<svg width="414" height="896" viewBox="0 0 414 896" fill="none" xmlns="http://www.w3.org/2000/svg">
<g clip-path="url(#clip0)">
<rect width="414" height="896" rx="50" fill="white"/>
<circle cx="62" cy="112" r="20" fill="#A3CEF5"/>
<path d="M70 106L59 117L54 112" stroke="black" stroke-width="2" stroke-linecap="round" stroke-linejoin="round"/>
<circle cx="207" cy="112" r="20" fill="#A3CEF5"/>
<path d="M210.38 116.6H204.54L207.82 113.62C209.74 111.86 210.58 110.36 210.58 108.68C210.58 106.3 208.86 104.58 206.46 104.58C204.02 104.58 202.16 106.36 202.16 108.66C202.16 109.02 202.2 109.26 202.3 109.48C202.46 109.84 202.74 110 203.04 110C203.5 110 203.8 109.68 203.8 109.24C203.8 109.14 203.78 108.96 203.78 108.74C203.78 107.18 204.9 106.02 206.44 106.02C207.92 106.02 208.96 107.12 208.96 108.7C208.96 110 208.28 111.14 206.64 112.6L202.24 116.62C202.04 116.8 201.94 116.98 201.94 117.22C201.94 117.64 202.3 118 202.72 118H210.38C210.8 118 211.12 117.68 211.12 117.3C211.12 116.9 210.8 116.6 210.38 116.6Z" fill="black"/>
<g opacity="0.3">
<circle cx="352" cy="112" r="20" fill="#808080"/>
</g>
<path d="M351.26 109.88H351.1L354.98 105.66C355.08 105.56 355.12 105.44 355.12 105.3C355.12 105.04 354.9 104.8 354.62 104.8H347.8C347.52 104.8 347.3 105 347.3 105.28C347.3 105.56 347.52 105.76 347.8 105.76H353.62L349.8 109.9C349.68 110.02 349.64 110.16 349.64 110.28C349.64 110.56 349.86 110.78 350.14 110.78H350.76C353.04 110.78 354.42 111.96 354.42 113.9C354.42 115.86 353 117.22 350.96 117.22C349.64 117.22 348.54 116.62 347.6 115.36C347.5 115.24 347.36 115.18 347.22 115.18C346.96 115.18 346.74 115.38 346.74 115.66C346.74 115.76 346.76 115.86 346.82 115.96C347.84 117.4 349.32 118.2 350.96 118.2C353.58 118.2 355.5 116.38 355.5 113.9C355.5 111.58 353.72 109.88 351.26 109.88Z" fill="black" fill-opacity="0.3"/>
<circle cx="99.5" cy="112.5" r="2.5" fill="#A3CEF5"/>
<circle cx="109.5" cy="112.5" r="2.5" fill="#A3CEF5"/>
<circle cx="119.5" cy="112.5" r="2.5" fill="#A3CEF5"/>
<circle cx="129.5" cy="112.5" r="2.5" fill="#A3CEF5"/>
<circle cx="139.5" cy="112.5" r="2.5" fill="#A3CEF5"/>
<circle cx="149.5" cy="112.5" r="2.5" fill="#A3CEF5"/>
<circle cx="159.5" cy="112.5" r="2.5" fill="#A3CEF5"/>
<circle cx="169.5" cy="112.5" r="2.5" fill="#A3CEF5"/>
<g opacity="0.5">
<circle cx="244.5" cy="112.5" r="2.5" fill="#808080"/>
<circle cx="254.5" cy="112.5" r="2.5" fill="#808080"/>
<circle cx="264.5" cy="112.5" r="2.5" fill="#808080"/>
<circle cx="274.5" cy="112.5" r="2.5" fill="#808080"/>
<circle cx="284.5" cy="112.5" r="2.5" fill="#808080"/>
<circle cx="294.5" cy="112.5" r="2.5" fill="#808080"/>
<circle cx="304.5" cy="112.5" r="2.5" fill="#808080"/>
<circle cx="314.5" cy="112.5" r="2.5" fill="#808080"/>
</g>
<rect x="32" y="511" width="150" height="100" rx="10" fill="#69048B"/>
<path d="M101.418 569.38C101.158 569.38 100.738 569.42 100.298 569.42C97.2983 569.42 95.0383 568.3 93.1783 565.88C94.8783 564.66 95.9583 562.68 95.9583 560.4C95.9583 556.6 92.8983 553.58 89.0183 553.58C85.1383 553.58 82.0983 556.58 82.0983 560.4C82.0983 564.22 85.1383 567.22 89.0183 567.22C89.8783 567.22 90.6783 567.08 91.4383 566.8C93.4583 569.7 96.4383 571.24 99.9583 571.24C100.598 571.24 101.178 571.18 101.618 571.04C102.098 570.92 102.338 570.62 102.338 570.22C102.338 569.7 101.998 569.38 101.418 569.38ZM84.2983 560.38C84.2983 557.58 86.2983 555.52 89.0183 555.52C91.7583 555.52 93.7783 557.6 93.7783 560.4C93.7783 563.2 91.7583 565.28 89.0383 565.28C86.2983 565.28 84.2983 563.2 84.2983 560.38ZM102.564 567.22C105.064 567.22 106.824 565.44 106.824 562.88V558.04C106.824 557.42 106.384 556.96 105.784 556.96C105.164 556.96 104.724 557.42 104.724 558.04V563.04C104.724 564.34 103.824 565.28 102.564 565.28C101.264 565.28 100.344 564.34 100.344 563.04V558.04C100.344 557.42 99.9038 556.96 99.3038 556.96C98.7038 556.96 98.2638 557.42 98.2638 558.04V562.88C98.2638 565.44 100.024 567.22 102.564 567.22ZM110.83 552.16C110.05 552.16 109.43 552.76 109.43 553.52C109.43 554.28 110.05 554.88 110.83 554.88C111.59 554.88 112.23 554.28 112.23 553.52C112.23 552.76 111.59 552.16 110.83 552.16ZM110.81 567.22C111.41 567.22 111.87 566.76 111.87 566.14V558.04C111.87 557.42 111.43 556.96 110.83 556.96C110.21 556.96 109.77 557.42 109.77 558.04V566.14C109.77 566.76 110.21 567.22 110.81 567.22ZM119.347 556.96C116.487 556.96 114.287 559.2 114.287 562.1C114.287 565.04 116.527 567.22 119.567 567.22C120.787 567.22 121.887 566.86 122.827 566.16C123.207 565.88 123.347 565.64 123.347 565.28C123.347 564.78 122.967 564.4 122.467 564.4C122.287 564.4 122.107 564.48 121.927 564.6C121.267 565.1 120.467 565.36 119.627 565.36C117.887 565.36 116.707 564.36 116.427 562.78H122.707C123.447 562.78 123.907 562.34 123.907 561.62V561.52C123.907 558.88 121.967 556.96 119.347 556.96ZM119.287 558.74C120.767 558.74 121.767 559.72 121.807 561.14H116.467C116.787 559.7 117.867 558.74 119.287 558.74ZM131.433 565.3C131.253 565.3 131.073 565.32 130.833 565.32C129.493 565.32 128.913 564.82 128.913 563.62V559H131.013C131.553 559 131.953 558.62 131.953 558.1C131.953 557.58 131.553 557.18 131.013 557.18H128.913V555.46C128.913 554.84 128.453 554.38 127.853 554.38C127.253 554.38 126.793 554.86 126.793 555.46V557.18H126.013C125.493 557.18 125.073 557.58 125.073 558.1C125.073 558.62 125.493 559 126.013 559H126.793V563.8C126.793 566.02 128.073 567.22 130.413 567.22C130.973 567.22 131.393 567.16 131.733 567.02C132.133 566.88 132.353 566.58 132.353 566.14C132.353 565.64 131.993 565.3 131.433 565.3Z" fill="white"/>
<rect x="232" y="511" width="150" height="100" rx="10" fill="#8B0404"/>
<path d="M259.781 567.22C260.401 567.22 260.841 566.76 260.841 566.14V561.56H265.221C265.781 561.56 266.201 561.14 266.201 560.6C266.201 560.06 265.781 559.64 265.221 559.64H260.841V555.7H266.321C266.881 555.7 267.301 555.3 267.301 554.76C267.301 554.22 266.881 553.8 266.321 553.8H259.821C259.181 553.8 258.721 554.26 258.721 554.9V566.14C258.721 566.76 259.161 567.22 259.781 567.22ZM272.962 556.96C270.102 556.96 267.902 559.2 267.902 562.1C267.902 565.04 270.142 567.22 273.182 567.22C274.402 567.22 275.502 566.86 276.442 566.16C276.822 565.88 276.962 565.64 276.962 565.28C276.962 564.78 276.582 564.4 276.082 564.4C275.902 564.4 275.722 564.48 275.542 564.6C274.882 565.1 274.082 565.36 273.242 565.36C271.502 565.36 270.322 564.36 270.042 562.78H276.322C277.062 562.78 277.522 562.34 277.522 561.62V561.52C277.522 558.88 275.582 556.96 272.962 556.96ZM272.902 558.74C274.382 558.74 275.382 559.72 275.422 561.14H270.082C270.402 559.7 271.482 558.74 272.902 558.74ZM293.598 556.96C293.198 556.96 292.838 557.2 292.678 557.58L289.958 563.78L287.538 557.72C287.358 557.24 286.998 556.96 286.538 556.96C286.098 556.96 285.738 557.24 285.538 557.72L283.138 563.78L280.418 557.58C280.258 557.2 279.898 556.96 279.478 556.96C278.918 556.96 278.458 557.42 278.458 557.98C278.458 558.14 278.498 558.3 278.558 558.46L282.118 566.58C282.298 566.98 282.638 567.22 283.058 567.22C283.478 567.22 283.818 566.98 284.018 566.6L286.558 560.48L289.078 566.6C289.258 566.98 289.618 567.22 290.018 567.22C290.458 567.22 290.798 566.98 290.978 566.58L294.538 558.46C294.598 558.3 294.638 558.14 294.638 557.98C294.638 557.42 294.158 556.96 293.598 556.96ZM315.648 556.96C315.248 556.96 314.888 557.2 314.728 557.58L312.008 563.78L309.588 557.72C309.408 557.24 309.048 556.96 308.588 556.96C308.148 556.96 307.788 557.24 307.588 557.72L305.188 563.78L302.468 557.58C302.308 557.2 301.948 556.96 301.528 556.96C300.968 556.96 300.508 557.42 300.508 557.98C300.508 558.14 300.548 558.3 300.608 558.46L304.168 566.58C304.348 566.98 304.688 567.22 305.108 567.22C305.528 567.22 305.868 566.98 306.068 566.6L308.608 560.48L311.128 566.6C311.308 566.98 311.668 567.22 312.068 567.22C312.508 567.22 312.848 566.98 313.028 566.58L316.588 558.46C316.648 558.3 316.688 558.14 316.688 557.98C316.688 557.42 316.208 556.96 315.648 556.96ZM322.809 556.96C319.909 556.96 317.629 559.2 317.629 562.08C317.629 564.94 319.909 567.2 322.809 567.22C325.729 567.22 328.029 564.94 328.029 562.08C328.029 559.22 325.729 556.96 322.809 556.96ZM322.829 558.88C324.549 558.9 325.869 560.26 325.869 562.1C325.869 563.9 324.549 565.28 322.809 565.28C321.069 565.28 319.769 563.92 319.769 562.1C319.769 560.26 321.069 558.9 322.829 558.88ZM335.256 557.08C334.156 557.08 333.176 557.56 332.516 558.34V558.04C332.516 557.42 332.076 556.96 331.496 556.96C330.876 556.96 330.436 557.42 330.436 558.04V566.14C330.436 566.76 330.896 567.22 331.496 567.22C332.096 567.22 332.536 566.78 332.536 566.14V561.76C332.536 560.18 333.636 559.1 335.236 559.06C335.836 559.02 336.256 558.62 336.256 558.04C336.256 557.48 335.836 557.08 335.256 557.08ZM346.261 551.78C345.661 551.78 345.201 552.24 345.201 552.86V558.38C344.461 557.5 343.301 556.96 341.921 556.96C339.161 556.96 337.121 559.14 337.121 562.1C337.121 565.06 339.161 567.22 341.921 567.22C343.341 567.22 344.521 566.68 345.241 565.76V566.16C345.241 566.76 345.681 567.22 346.281 567.22C346.861 567.22 347.321 566.78 347.321 566.16V552.86C347.321 552.22 346.861 551.78 346.261 551.78ZM342.281 565.3C340.521 565.3 339.261 563.94 339.261 562.08C339.261 560.24 340.541 558.88 342.281 558.88C344.041 558.88 345.241 560.2 345.241 562.1C345.241 564 344.041 565.3 342.281 565.3ZM353.398 567.22C355.358 567.22 357.038 566.2 357.038 564.22C357.038 562.78 356.138 562 354.358 561.26L353.418 560.88C352.518 560.52 352.118 560.26 352.118 559.72C352.118 559.08 352.678 558.78 353.458 558.78C354.198 558.78 354.878 559.06 355.398 559.46C355.658 559.66 355.838 559.76 356.058 559.76C356.538 559.76 356.938 559.36 356.938 558.86C356.938 558.6 356.838 558.36 356.618 558.16C355.858 557.42 354.758 556.96 353.498 556.96C351.558 556.96 350.038 557.98 350.038 559.8C350.038 561.28 351.018 562 352.598 562.66L353.598 563.08C354.398 563.4 354.978 563.66 354.978 564.3C354.978 565.04 354.258 565.4 353.398 565.4C352.458 565.4 351.718 564.96 351.098 564.38C350.878 564.18 350.658 564.1 350.438 564.1C349.918 564.1 349.498 564.52 349.498 565.02C349.498 565.3 349.598 565.52 349.798 565.7C350.638 566.6 351.878 567.22 353.398 567.22Z" fill="white"/>
<rect x="32" y="641" width="150" height="100" rx="10" fill="#8B8B04"/>
<rect opacity="0.2" x="32" y="641" width="150" height="100" rx="10" fill="#FAFDFE"/>
<path d="M127 677L99.5 704.5L87 692" stroke="#FAFDFE" stroke-width="5" stroke-linecap="square"/>
<path d="M72.0895 697.22C72.6895 697.22 73.1495 696.76 73.1495 696.14V685.7H76.7295C77.2895 685.7 77.7095 685.3 77.7095 684.76C77.7095 684.22 77.2895 683.8 76.7295 683.8H67.4695C66.9095 683.8 66.4895 684.22 66.4895 684.76C66.4895 685.3 66.9095 685.7 67.4695 685.7H71.0295V696.14C71.0295 696.76 71.4895 697.22 72.0895 697.22ZM81.862 686.96C80.422 686.96 79.122 687.46 78.282 688.34C78.002 688.62 77.862 688.9 77.862 689.2C77.862 689.66 78.282 690.08 78.782 690.08C79.022 690.08 79.242 689.98 79.502 689.76C80.122 689.14 80.862 688.84 81.682 688.84C83.022 688.84 83.782 689.6 83.782 690.94V691.58H81.002C78.782 691.58 77.382 692.66 77.382 694.38C77.382 696.08 78.762 697.22 80.802 697.22C82.062 697.22 83.102 696.8 83.822 696.04V696.16C83.822 696.76 84.262 697.22 84.862 697.22C85.462 697.22 85.902 696.78 85.902 696.16V691.06C85.902 688.48 84.402 686.96 81.862 686.96ZM81.242 695.6C80.202 695.6 79.522 695.1 79.522 694.3C79.522 693.52 80.122 693.1 81.262 693.1H83.782V693.28C83.782 694.58 82.662 695.6 81.242 695.6ZM89.8847 697.22C90.4847 697.22 90.9247 696.76 90.9247 696.14V682.86C90.9247 682.24 90.4847 681.78 89.8847 681.78C89.2647 681.78 88.8247 682.24 88.8247 682.86V696.14C88.8247 696.76 89.2847 697.22 89.8847 697.22ZM95.0214 681.78C94.4214 681.78 93.9614 682.24 93.9614 682.86V696.14C93.9614 696.76 94.4214 697.22 95.0214 697.22C95.6214 697.22 96.0614 696.78 96.0614 696.14V682.86C96.0614 682.22 95.6214 681.78 95.0214 681.78ZM102.281 695.54L98.8614 691.56L101.801 688.7C102.061 688.44 102.201 688.2 102.201 687.92C102.201 687.38 101.761 686.96 101.201 686.96C100.921 686.96 100.641 687.08 100.441 687.28L96.9014 690.8C96.6614 691.06 96.5614 691.3 96.5614 691.58C96.5614 691.82 96.6614 692.06 96.8814 692.34L100.741 696.8C101.001 697.1 101.241 697.22 101.581 697.22C102.121 697.22 102.561 696.8 102.561 696.24C102.561 695.98 102.481 695.76 102.281 695.54ZM108.19 686.96C106.75 686.96 105.45 687.46 104.61 688.34C104.33 688.62 104.19 688.9 104.19 689.2C104.19 689.66 104.61 690.08 105.11 690.08C105.35 690.08 105.57 689.98 105.83 689.76C106.45 689.14 107.19 688.84 108.01 688.84C109.35 688.84 110.11 689.6 110.11 690.94V691.58H107.33C105.11 691.58 103.71 692.66 103.71 694.38C103.71 696.08 105.09 697.22 107.13 697.22C108.39 697.22 109.43 696.8 110.15 696.04V696.16C110.15 696.76 110.59 697.22 111.19 697.22C111.79 697.22 112.23 696.78 112.23 696.16V691.06C112.23 688.48 110.73 686.96 108.19 686.96ZM107.57 695.6C106.53 695.6 105.85 695.1 105.85 694.3C105.85 693.52 106.45 693.1 107.59 693.1H110.11V693.28C110.11 694.58 108.99 695.6 107.57 695.6ZM120.273 695.3C120.093 695.3 119.913 695.32 119.673 695.32C118.333 695.32 117.753 694.82 117.753 693.62V689H119.853C120.393 689 120.793 688.62 120.793 688.1C120.793 687.58 120.393 687.18 119.853 687.18H117.753V685.46C117.753 684.84 117.293 684.38 116.693 684.38C116.093 684.38 115.633 684.86 115.633 685.46V687.18H114.853C114.333 687.18 113.913 687.58 113.913 688.1C113.913 688.62 114.333 689 114.853 689H115.633V693.8C115.633 696.02 116.913 697.22 119.253 697.22C119.813 697.22 120.233 697.16 120.573 697.02C120.973 696.88 121.193 696.58 121.193 696.14C121.193 695.64 120.833 695.3 120.273 695.3ZM124.182 682.16C123.402 682.16 122.782 682.76 122.782 683.52C122.782 684.28 123.402 684.88 124.182 684.88C124.942 684.88 125.582 684.28 125.582 683.52C125.582 682.76 124.942 682.16 124.182 682.16ZM124.162 697.22C124.762 697.22 125.222 696.76 125.222 696.14V688.04C125.222 687.42 124.782 686.96 124.182 686.96C123.562 686.96 123.122 687.42 123.122 688.04V696.14C123.122 696.76 123.562 697.22 124.162 697.22ZM136.218 686.96C135.798 686.96 135.458 687.18 135.258 687.58L132.238 693.98L129.198 687.58C128.998 687.18 128.658 686.96 128.238 686.96C127.678 686.96 127.218 687.44 127.218 687.98C127.218 688.16 127.258 688.32 127.358 688.52L131.258 696.58C131.458 696.98 131.818 697.22 132.238 697.22C132.638 697.22 132.998 696.98 133.198 696.58L137.118 688.52C137.198 688.32 137.238 688.16 137.238 687.98C137.238 687.44 136.778 686.96 136.218 686.96ZM143.284 686.96C140.424 686.96 138.224 689.2 138.224 692.1C138.224 695.04 140.464 697.22 143.504 697.22C144.724 697.22 145.824 696.86 146.764 696.16C147.144 695.88 147.284 695.64 147.284 695.28C147.284 694.78 146.904 694.4 146.404 694.4C146.224 694.4 146.044 694.48 145.864 694.6C145.204 695.1 144.404 695.36 143.564 695.36C141.824 695.36 140.644 694.36 140.364 692.78H146.644C147.384 692.78 147.844 692.34 147.844 691.62V691.52C147.844 688.88 145.904 686.96 143.284 686.96ZM143.224 688.74C144.704 688.74 145.704 689.72 145.744 691.14H140.404C140.724 689.7 141.804 688.74 143.224 688.74Z" fill="white"/>
<rect x="232" y="641" width="150" height="100" rx="10" fill="#808080"/>
<rect opacity="0.2" x="232" y="641" width="150" height="100" rx="10" fill="#FAFDFE"/>
<path d="M327 677L299.5 704.5L287 692" stroke="#FAFDFE" stroke-width="5" stroke-linecap="square"/>
<path d="M283.237 683.58C279.357 683.58 276.317 686.58 276.317 690.4C276.317 694.22 279.357 697.22 283.237 697.22C287.117 697.22 290.177 694.22 290.177 690.4C290.177 686.6 287.117 683.58 283.237 683.58ZM283.257 685.52C285.977 685.52 287.997 687.6 287.997 690.38C287.997 693.2 285.977 695.28 283.257 695.28C280.517 695.28 278.517 693.22 278.517 690.38C278.517 687.58 280.517 685.52 283.257 685.52ZM297.703 695.3C297.523 695.3 297.343 695.32 297.103 695.32C295.763 695.32 295.183 694.82 295.183 693.62V689H297.283C297.823 689 298.223 688.62 298.223 688.1C298.223 687.58 297.823 687.18 297.283 687.18H295.183V685.46C295.183 684.84 294.723 684.38 294.123 684.38C293.523 684.38 293.063 684.86 293.063 685.46V687.18H292.283C291.763 687.18 291.343 687.58 291.343 688.1C291.343 688.62 291.763 689 292.283 689H293.063V693.8C293.063 696.02 294.343 697.22 296.683 697.22C297.243 697.22 297.663 697.16 298.003 697.02C298.403 696.88 298.623 696.58 298.623 696.14C298.623 695.64 298.263 695.3 297.703 695.3ZM305.491 686.96C304.311 686.96 303.331 687.4 302.651 688.16V682.86C302.651 682.22 302.211 681.78 301.611 681.78C301.011 681.78 300.551 682.24 300.551 682.86V696.14C300.551 696.76 301.011 697.22 301.611 697.22C302.211 697.22 302.651 696.78 302.651 696.14V691.16C302.651 689.82 303.591 688.88 304.891 688.88C306.171 688.88 307.031 689.78 307.031 691.16V696.14C307.031 696.76 307.471 697.22 308.091 697.22C308.671 697.22 309.131 696.78 309.131 696.14V690.86C309.131 688.5 307.691 686.96 305.491 686.96ZM316.495 686.96C313.635 686.96 311.435 689.2 311.435 692.1C311.435 695.04 313.675 697.22 316.715 697.22C317.935 697.22 319.035 696.86 319.975 696.16C320.355 695.88 320.495 695.64 320.495 695.28C320.495 694.78 320.115 694.4 319.615 694.4C319.435 694.4 319.255 694.48 319.075 694.6C318.415 695.1 317.615 695.36 316.775 695.36C315.035 695.36 313.855 694.36 313.575 692.78H319.855C320.595 692.78 321.055 692.34 321.055 691.62V691.52C321.055 688.88 319.115 686.96 316.495 686.96ZM316.435 688.74C317.915 688.74 318.915 689.72 318.955 691.14H313.615C313.935 689.7 315.015 688.74 316.435 688.74ZM328.281 687.08C327.181 687.08 326.201 687.56 325.541 688.34V688.04C325.541 687.42 325.101 686.96 324.521 686.96C323.901 686.96 323.461 687.42 323.461 688.04V696.14C323.461 696.76 323.921 697.22 324.521 697.22C325.121 697.22 325.561 696.78 325.561 696.14V691.76C325.561 690.18 326.661 689.1 328.261 689.06C328.861 689.02 329.281 688.62 329.281 688.04C329.281 687.48 328.861 687.08 328.281 687.08ZM334.001 697.22C335.961 697.22 337.641 696.2 337.641 694.22C337.641 692.78 336.741 692 334.961 691.26L334.021 690.88C333.121 690.52 332.721 690.26 332.721 689.72C332.721 689.08 333.281 688.78 334.061 688.78C334.801 688.78 335.481 689.06 336.001 689.46C336.261 689.66 336.441 689.76 336.661 689.76C337.141 689.76 337.541 689.36 337.541 688.86C337.541 688.6 337.441 688.36 337.221 688.16C336.461 687.42 335.361 686.96 334.101 686.96C332.161 686.96 330.641 687.98 330.641 689.8C330.641 691.28 331.621 692 333.201 692.66L334.201 693.08C335.001 693.4 335.581 693.66 335.581 694.3C335.581 695.04 334.861 695.4 334.001 695.4C333.061 695.4 332.321 694.96 331.701 694.38C331.481 694.18 331.261 694.1 331.041 694.1C330.521 694.1 330.101 694.52 330.101 695.02C330.101 695.3 330.201 695.52 330.401 695.7C331.241 696.6 332.481 697.22 334.001 697.22Z" fill="white"/>
<rect x="32" y="251" width="150" height="100" rx="10" fill="#047F8B"/>
<rect opacity="0.2" x="32" y="251" width="150" height="100" rx="10" fill="#FAFDFE"/>
<path d="M127 287L99.5 314.5L87 302" stroke="#FAFDFE" stroke-width="5" stroke-linecap="square"/>
<path d="M78.7 307.22C81.26 307.22 83.12 305.7 83.12 303.4C83.12 301.72 82.16 300.66 79.96 299.64L78.48 298.96C77.04 298.28 76.64 297.9 76.64 297.08C76.64 296.1 77.44 295.48 78.64 295.48C79.6 295.48 80.38 295.92 81.02 296.56C81.22 296.74 81.44 296.84 81.66 296.84C82.16 296.84 82.64 296.4 82.64 295.9C82.64 295.66 82.56 295.4 82.32 295.14C81.56 294.3 80.36 293.56 78.64 293.58C76.26 293.58 74.48 295.08 74.48 297.16C74.48 298.74 75.46 299.84 77.56 300.82L79.02 301.5C80.48 302.18 80.96 302.62 80.96 303.48C80.96 304.58 80.08 305.32 78.68 305.32C77.38 305.32 76.34 304.64 75.62 303.78C75.44 303.58 75.22 303.5 74.98 303.5C74.46 303.5 74 303.9 74 304.46C74 304.72 74.12 304.98 74.32 305.2C75.34 306.44 77.06 307.22 78.7 307.22ZM99.3613 296.96C98.9613 296.96 98.6013 297.2 98.4413 297.58L95.7213 303.78L93.3013 297.72C93.1213 297.24 92.7613 296.96 92.3013 296.96C91.8613 296.96 91.5013 297.24 91.3013 297.72L88.9013 303.78L86.1813 297.58C86.0213 297.2 85.6613 296.96 85.2413 296.96C84.6813 296.96 84.2213 297.42 84.2213 297.98C84.2213 298.14 84.2613 298.3 84.3213 298.46L87.8813 306.58C88.0613 306.98 88.4013 307.22 88.8213 307.22C89.2413 307.22 89.5813 306.98 89.7813 306.6L92.3213 300.48L94.8413 306.6C95.0213 306.98 95.3813 307.22 95.7813 307.22C96.2213 307.22 96.5613 306.98 96.7413 306.58L100.301 298.46C100.361 298.3 100.401 298.14 100.401 297.98C100.401 297.42 99.9213 296.96 99.3613 296.96ZM106.401 296.96C103.541 296.96 101.341 299.2 101.341 302.1C101.341 305.04 103.581 307.22 106.621 307.22C107.841 307.22 108.941 306.86 109.881 306.16C110.261 305.88 110.401 305.64 110.401 305.28C110.401 304.78 110.021 304.4 109.521 304.4C109.341 304.4 109.161 304.48 108.981 304.6C108.321 305.1 107.521 305.36 106.681 305.36C104.941 305.36 103.761 304.36 103.481 302.78H109.761C110.501 302.78 110.961 302.34 110.961 301.62V301.52C110.961 298.88 109.021 296.96 106.401 296.96ZM106.341 298.74C107.821 298.74 108.821 299.72 108.861 301.14H103.521C103.841 299.7 104.921 298.74 106.341 298.74ZM117.128 296.96C115.688 296.96 114.388 297.46 113.548 298.34C113.268 298.62 113.128 298.9 113.128 299.2C113.128 299.66 113.548 300.08 114.048 300.08C114.288 300.08 114.508 299.98 114.768 299.76C115.388 299.14 116.128 298.84 116.948 298.84C118.288 298.84 119.048 299.6 119.048 300.94V301.58H116.268C114.048 301.58 112.648 302.66 112.648 304.38C112.648 306.08 114.028 307.22 116.068 307.22C117.328 307.22 118.368 306.8 119.088 306.04V306.16C119.088 306.76 119.528 307.22 120.128 307.22C120.728 307.22 121.168 306.78 121.168 306.16V301.06C121.168 298.48 119.668 296.96 117.128 296.96ZM116.508 305.6C115.468 305.6 114.788 305.1 114.788 304.3C114.788 303.52 115.388 303.1 116.528 303.1H119.048V303.28C119.048 304.58 117.928 305.6 116.508 305.6ZM129.21 305.3C129.03 305.3 128.85 305.32 128.61 305.32C127.27 305.32 126.69 304.82 126.69 303.62V299H128.79C129.33 299 129.73 298.62 129.73 298.1C129.73 297.58 129.33 297.18 128.79 297.18H126.69V295.46C126.69 294.84 126.23 294.38 125.63 294.38C125.03 294.38 124.57 294.86 124.57 295.46V297.18H123.79C123.27 297.18 122.85 297.58 122.85 298.1C122.85 298.62 123.27 299 123.79 299H124.57V303.8C124.57 306.02 125.85 307.22 128.19 307.22C128.75 307.22 129.17 307.16 129.51 307.02C129.91 306.88 130.13 306.58 130.13 306.14C130.13 305.64 129.77 305.3 129.21 305.3ZM140.019 296.96C139.599 296.96 139.219 297.22 139.059 297.58L136.039 304.18L133.099 297.58C132.939 297.2 132.559 296.96 132.139 296.96C131.579 296.96 131.099 297.44 131.099 297.98C131.099 298.18 131.159 298.32 131.219 298.48L134.859 306.54L134.419 307.48C133.939 308.5 133.299 308.92 132.379 308.92C132.259 308.92 132.139 308.9 131.979 308.9C131.459 308.9 131.019 309.32 131.019 309.82C131.019 310.22 131.259 310.58 131.659 310.7C131.919 310.78 132.259 310.82 132.599 310.82C134.319 310.82 135.439 309.96 136.419 307.92L140.939 298.46C141.019 298.3 141.039 298.14 141.039 297.98C141.039 297.44 140.579 296.96 140.019 296.96Z" fill="white"/>
<rect x="232" y="251" width="150" height="100" rx="10" fill="#043C8B"/>
<rect opacity="0.2" x="232" y="251" width="150" height="100" rx="10" fill="#FAFDFE"/>
<path d="M327 287L299.5 314.5L287 302" stroke="#FAFDFE" stroke-width="5" stroke-linecap="square"/>
<path d="M274.966 307.22C277.526 307.22 279.386 305.7 279.386 303.4C279.386 301.72 278.426 300.66 276.226 299.64L274.746 298.96C273.306 298.28 272.906 297.9 272.906 297.08C272.906 296.1 273.706 295.48 274.906 295.48C275.866 295.48 276.646 295.92 277.286 296.56C277.486 296.74 277.706 296.84 277.926 296.84C278.426 296.84 278.906 296.4 278.906 295.9C278.906 295.66 278.826 295.4 278.586 295.14C277.826 294.3 276.626 293.56 274.906 293.58C272.526 293.58 270.746 295.08 270.746 297.16C270.746 298.74 271.726 299.84 273.826 300.82L275.286 301.5C276.746 302.18 277.226 302.62 277.226 303.48C277.226 304.58 276.346 305.32 274.946 305.32C273.646 305.32 272.606 304.64 271.886 303.78C271.706 303.58 271.486 303.5 271.246 303.5C270.726 303.5 270.266 303.9 270.266 304.46C270.266 304.72 270.386 304.98 270.586 305.2C271.606 306.44 273.326 307.22 274.966 307.22ZM286.98 305.3C286.8 305.3 286.62 305.32 286.38 305.32C285.04 305.32 284.46 304.82 284.46 303.62V299H286.56C287.1 299 287.5 298.62 287.5 298.1C287.5 297.58 287.1 297.18 286.56 297.18H284.46V295.46C284.46 294.84 284 294.38 283.4 294.38C282.8 294.38 282.34 294.86 282.34 295.46V297.18H281.56C281.04 297.18 280.62 297.58 280.62 298.1C280.62 298.62 281.04 299 281.56 299H282.34V303.8C282.34 306.02 283.62 307.22 285.96 307.22C286.52 307.22 286.94 307.16 287.28 307.02C287.68 306.88 287.9 306.58 287.9 306.14C287.9 305.64 287.54 305.3 286.98 305.3ZM294.029 307.22C296.529 307.22 298.289 305.44 298.289 302.88V298.04C298.289 297.42 297.849 296.96 297.249 296.96C296.629 296.96 296.189 297.42 296.189 298.04V303.04C296.189 304.34 295.289 305.28 294.029 305.28C292.729 305.28 291.809 304.34 291.809 303.04V298.04C291.809 297.42 291.369 296.96 290.769 296.96C290.169 296.96 289.729 297.42 289.729 298.04V302.88C289.729 305.44 291.489 307.22 294.029 307.22ZM306.355 305.3C306.175 305.3 305.995 305.32 305.755 305.32C304.415 305.32 303.835 304.82 303.835 303.62V299H305.935C306.475 299 306.875 298.62 306.875 298.1C306.875 297.58 306.475 297.18 305.935 297.18H303.835V295.46C303.835 294.84 303.375 294.38 302.775 294.38C302.175 294.38 301.715 294.86 301.715 295.46V297.18H300.935C300.415 297.18 299.995 297.58 299.995 298.1C299.995 298.62 300.415 299 300.935 299H301.715V303.8C301.715 306.02 302.995 307.22 305.335 307.22C305.895 307.22 306.315 307.16 306.655 307.02C307.055 306.88 307.275 306.58 307.275 306.14C307.275 305.64 306.915 305.3 306.355 305.3ZM313.718 305.3C313.538 305.3 313.358 305.32 313.118 305.32C311.778 305.32 311.198 304.82 311.198 303.62V299H313.298C313.838 299 314.238 298.62 314.238 298.1C314.238 297.58 313.838 297.18 313.298 297.18H311.198V295.46C311.198 294.84 310.738 294.38 310.138 294.38C309.538 294.38 309.078 294.86 309.078 295.46V297.18H308.298C307.778 297.18 307.358 297.58 307.358 298.1C307.358 298.62 307.778 299 308.298 299H309.078V303.8C309.078 306.02 310.358 307.22 312.698 307.22C313.258 307.22 313.678 307.16 314.018 307.02C314.418 306.88 314.638 306.58 314.638 306.14C314.638 305.64 314.278 305.3 313.718 305.3ZM320.812 296.96C317.952 296.96 315.752 299.2 315.752 302.1C315.752 305.04 317.992 307.22 321.032 307.22C322.252 307.22 323.352 306.86 324.292 306.16C324.672 305.88 324.812 305.64 324.812 305.28C324.812 304.78 324.432 304.4 323.932 304.4C323.752 304.4 323.572 304.48 323.392 304.6C322.732 305.1 321.932 305.36 321.092 305.36C319.352 305.36 318.172 304.36 317.892 302.78H324.172C324.912 302.78 325.372 302.34 325.372 301.62V301.52C325.372 298.88 323.432 296.96 320.812 296.96ZM320.752 298.74C322.232 298.74 323.232 299.72 323.272 301.14H317.932C318.252 299.7 319.332 298.74 320.752 298.74ZM332.598 297.08C331.498 297.08 330.518 297.56 329.858 298.34V298.04C329.858 297.42 329.418 296.96 328.838 296.96C328.218 296.96 327.778 297.42 327.778 298.04V306.14C327.778 306.76 328.238 307.22 328.838 307.22C329.438 307.22 329.878 306.78 329.878 306.14V301.76C329.878 300.18 330.978 299.1 332.578 299.06C333.178 299.02 333.598 298.62 333.598 298.04C333.598 297.48 333.178 297.08 332.598 297.08ZM343.238 296.96C342.818 296.96 342.438 297.22 342.278 297.58L339.258 304.18L336.318 297.58C336.158 297.2 335.778 296.96 335.358 296.96C334.798 296.96 334.318 297.44 334.318 297.98C334.318 298.18 334.378 298.32 334.438 298.48L338.078 306.54L337.638 307.48C337.158 308.5 336.518 308.92 335.598 308.92C335.478 308.92 335.358 308.9 335.198 308.9C334.678 308.9 334.238 309.32 334.238 309.82C334.238 310.22 334.478 310.58 334.878 310.7C335.138 310.78 335.478 310.82 335.818 310.82C337.538 310.82 338.658 309.96 339.638 307.92L344.158 298.46C344.238 298.3 344.258 298.14 344.258 297.98C344.258 297.44 343.798 296.96 343.238 296.96Z" fill="white"/>
<rect x="32" y="381" width="150" height="100" rx="10" fill="#048B3C"/>
<rect opacity="0.2" x="32" y="381" width="150" height="100" rx="10" fill="#FAFDFE"/>
<path d="M127 417L99.5 444.5L87 432" stroke="#FAFDFE" stroke-width="5" stroke-linecap="square"/>
<path d="M87.008 437H93.208C93.768 437 94.168 436.58 94.168 436.04C94.168 435.5 93.768 435.1 93.208 435.1H88.028V424.66C88.028 424.04 87.588 423.58 86.968 423.58C86.348 423.58 85.908 424.06 85.908 424.66V435.9C85.908 436.54 86.368 437 87.008 437ZM100.621 426.96C97.721 426.96 95.441 429.2 95.441 432.08C95.441 434.94 97.721 437.2 100.621 437.22C103.541 437.22 105.841 434.94 105.841 432.08C105.841 429.22 103.541 426.96 100.621 426.96ZM100.641 428.88C102.361 428.9 103.681 430.26 103.681 432.1C103.681 433.9 102.361 435.28 100.621 435.28C98.881 435.28 97.581 433.92 97.581 432.1C97.581 430.26 98.881 428.9 100.641 428.88ZM112.449 437.22C114.949 437.22 116.709 435.44 116.709 432.88V428.04C116.709 427.42 116.269 426.96 115.669 426.96C115.049 426.96 114.609 427.42 114.609 428.04V433.04C114.609 434.34 113.709 435.28 112.449 435.28C111.149 435.28 110.229 434.34 110.229 433.04V428.04C110.229 427.42 109.789 426.96 109.189 426.96C108.589 426.96 108.149 427.42 108.149 428.04V432.88C108.149 435.44 109.909 437.22 112.449 437.22ZM128.175 421.78C127.575 421.78 127.115 422.24 127.115 422.86V428.38C126.375 427.5 125.215 426.96 123.835 426.96C121.075 426.96 119.035 429.14 119.035 432.1C119.035 435.06 121.075 437.22 123.835 437.22C125.255 437.22 126.435 436.68 127.155 435.76V436.16C127.155 436.76 127.595 437.22 128.195 437.22C128.775 437.22 129.235 436.78 129.235 436.16V422.86C129.235 422.22 128.775 421.78 128.175 421.78ZM124.195 435.3C122.435 435.3 121.175 433.94 121.175 432.08C121.175 430.24 122.455 428.88 124.195 428.88C125.955 428.88 127.155 430.2 127.155 432.1C127.155 434 125.955 435.3 124.195 435.3Z" fill="white"/>
<rect x="232" y="381" width="150" height="100" rx="10" fill="#8B0453"/>
<path d="M268.69 435.6L263.91 424.3C263.71 423.82 263.37 423.58 262.89 423.58C262.43 423.58 262.09 423.82 261.89 424.3L257.11 435.6C256.99 435.84 256.95 436.04 256.95 436.2C256.95 436.76 257.41 437.22 257.99 437.22C258.47 437.22 258.81 436.96 258.99 436.48L259.77 434.62H265.99L266.81 436.48C267.01 436.96 267.33 437.22 267.81 437.22C268.39 437.22 268.85 436.76 268.85 436.2C268.85 436.04 268.79 435.84 268.69 435.6ZM262.89 426.68L265.23 432.82H260.51L262.89 426.68ZM279.476 426.96C278.876 426.96 278.416 427.42 278.416 428.04V428.42C277.696 427.5 276.516 426.96 275.076 426.96C272.316 426.96 270.296 429.02 270.296 431.88C270.296 434.74 272.316 436.8 275.076 436.8C276.496 436.8 277.656 436.28 278.396 435.4V436.1C278.396 437.88 277.316 438.9 275.456 438.9C274.396 438.9 273.476 438.58 272.476 437.84C272.296 437.7 272.096 437.64 271.876 437.64C271.336 437.64 270.916 438.06 270.916 438.6C270.916 438.88 271.056 439.14 271.316 439.36C272.456 440.3 273.976 440.82 275.576 440.82C278.636 440.82 280.496 439 280.496 435.98V428.04C280.496 427.42 280.056 426.96 279.476 426.96ZM275.456 434.96C273.716 434.96 272.456 433.68 272.456 431.88C272.456 430.1 273.716 428.84 275.456 428.84C277.256 428.84 278.416 430.04 278.416 431.86C278.416 433.72 277.236 434.96 275.456 434.96ZM292.152 426.96C291.552 426.96 291.092 427.42 291.092 428.04V428.42C290.372 427.5 289.192 426.96 287.752 426.96C284.992 426.96 282.972 429.02 282.972 431.88C282.972 434.74 284.992 436.8 287.752 436.8C289.172 436.8 290.332 436.28 291.072 435.4V436.1C291.072 437.88 289.992 438.9 288.132 438.9C287.072 438.9 286.152 438.58 285.152 437.84C284.972 437.7 284.772 437.64 284.552 437.64C284.012 437.64 283.592 438.06 283.592 438.6C283.592 438.88 283.732 439.14 283.992 439.36C285.132 440.3 286.652 440.82 288.252 440.82C291.312 440.82 293.172 439 293.172 435.98V428.04C293.172 427.42 292.732 426.96 292.152 426.96ZM288.132 434.96C286.392 434.96 285.132 433.68 285.132 431.88C285.132 430.1 286.392 428.84 288.132 428.84C289.932 428.84 291.092 430.04 291.092 431.86C291.092 433.72 289.912 434.96 288.132 434.96ZM301.028 427.08C299.928 427.08 298.948 427.56 298.288 428.34V428.04C298.288 427.42 297.848 426.96 297.268 426.96C296.648 426.96 296.208 427.42 296.208 428.04V436.14C296.208 436.76 296.668 437.22 297.268 437.22C297.868 437.22 298.308 436.78 298.308 436.14V431.76C298.308 430.18 299.408 429.1 301.008 429.06C301.608 429.02 302.028 428.62 302.028 428.04C302.028 427.48 301.608 427.08 301.028 427.08ZM307.952 426.96C305.092 426.96 302.892 429.2 302.892 432.1C302.892 435.04 305.132 437.22 308.172 437.22C309.392 437.22 310.492 436.86 311.432 436.16C311.812 435.88 311.952 435.64 311.952 435.28C311.952 434.78 311.572 434.4 311.072 434.4C310.892 434.4 310.712 434.48 310.532 434.6C309.872 435.1 309.072 435.36 308.232 435.36C306.492 435.36 305.312 434.36 305.032 432.78H311.312C312.052 432.78 312.512 432.34 312.512 431.62V431.52C312.512 428.88 310.572 426.96 307.952 426.96ZM307.892 428.74C309.372 428.74 310.372 429.72 310.412 431.14H305.072C305.392 429.7 306.472 428.74 307.892 428.74ZM317.958 437.22C319.918 437.22 321.598 436.2 321.598 434.22C321.598 432.78 320.698 432 318.918 431.26L317.978 430.88C317.078 430.52 316.678 430.26 316.678 429.72C316.678 429.08 317.238 428.78 318.018 428.78C318.758 428.78 319.438 429.06 319.958 429.46C320.218 429.66 320.398 429.76 320.618 429.76C321.098 429.76 321.498 429.36 321.498 428.86C321.498 428.6 321.398 428.36 321.178 428.16C320.418 427.42 319.318 426.96 318.058 426.96C316.118 426.96 314.598 427.98 314.598 429.8C314.598 431.28 315.578 432 317.158 432.66L318.158 433.08C318.958 433.4 319.538 433.66 319.538 434.3C319.538 435.04 318.818 435.4 317.958 435.4C317.018 435.4 316.278 434.96 315.658 434.38C315.438 434.18 315.218 434.1 314.998 434.1C314.478 434.1 314.058 434.52 314.058 435.02C314.058 435.3 314.158 435.52 314.358 435.7C315.198 436.6 316.438 437.22 317.958 437.22ZM327.06 437.22C329.02 437.22 330.7 436.2 330.7 434.22C330.7 432.78 329.8 432 328.02 431.26L327.08 430.88C326.18 430.52 325.78 430.26 325.78 429.72C325.78 429.08 326.34 428.78 327.12 428.78C327.86 428.78 328.54 429.06 329.06 429.46C329.32 429.66 329.5 429.76 329.72 429.76C330.2 429.76 330.6 429.36 330.6 428.86C330.6 428.6 330.5 428.36 330.28 428.16C329.52 427.42 328.42 426.96 327.16 426.96C325.22 426.96 323.7 427.98 323.7 429.8C323.7 431.28 324.68 432 326.26 432.66L327.26 433.08C328.06 433.4 328.64 433.66 328.64 434.3C328.64 435.04 327.92 435.4 327.06 435.4C326.12 435.4 325.38 434.96 324.76 434.38C324.54 434.18 324.32 434.1 324.1 434.1C323.58 434.1 323.16 434.52 323.16 435.02C323.16 435.3 323.26 435.52 323.46 435.7C324.3 436.6 325.54 437.22 327.06 437.22ZM334.182 422.16C333.402 422.16 332.782 422.76 332.782 423.52C332.782 424.28 333.402 424.88 334.182 424.88C334.942 424.88 335.582 424.28 335.582 423.52C335.582 422.76 334.942 422.16 334.182 422.16ZM334.162 437.22C334.762 437.22 335.222 436.76 335.222 436.14V428.04C335.222 427.42 334.782 426.96 334.182 426.96C333.562 426.96 333.122 427.42 333.122 428.04V436.14C333.122 436.76 333.562 437.22 334.162 437.22ZM346.218 426.96C345.798 426.96 345.458 427.18 345.258 427.58L342.238 433.98L339.198 427.58C338.998 427.18 338.658 426.96 338.238 426.96C337.678 426.96 337.218 427.44 337.218 427.98C337.218 428.16 337.258 428.32 337.358 428.52L341.258 436.58C341.458 436.98 341.818 437.22 342.238 437.22C342.638 437.22 342.998 436.98 343.198 436.58L347.118 428.52C347.198 428.32 347.238 428.16 347.238 427.98C347.238 427.44 346.778 426.96 346.218 426.96ZM353.284 426.96C350.424 426.96 348.224 429.2 348.224 432.1C348.224 435.04 350.464 437.22 353.504 437.22C354.724 437.22 355.824 436.86 356.764 436.16C357.144 435.88 357.284 435.64 357.284 435.28C357.284 434.78 356.904 434.4 356.404 434.4C356.224 434.4 356.044 434.48 355.864 434.6C355.204 435.1 354.404 435.36 353.564 435.36C351.824 435.36 350.644 434.36 350.364 432.78H356.644C357.384 432.78 357.844 432.34 357.844 431.62V431.52C357.844 428.88 355.904 426.96 353.284 426.96ZM353.224 428.74C354.704 428.74 355.704 429.72 355.744 431.14H350.404C350.724 429.7 351.804 428.74 353.224 428.74Z" fill="white"/>
<path d="M81.5222 170.198C82.0622 170.198 82.4762 169.784 82.4762 169.226V164.564H88.4522V169.226C88.4522 169.784 88.8662 170.198 89.4062 170.198C89.9462 170.198 90.3602 169.784 90.3602 169.226V158.894C90.3602 158.336 89.9642 157.922 89.4062 157.922C88.8482 157.922 88.4522 158.336 88.4522 158.894V162.854H82.4762V158.894C82.4762 158.336 82.0802 157.922 81.5222 157.922C80.9642 157.922 80.5682 158.336 80.5682 158.894V169.226C80.5682 169.784 80.9822 170.198 81.5222 170.198ZM97.2376 160.964C94.6276 160.964 92.5756 162.98 92.5756 165.572C92.5756 168.146 94.6276 170.18 97.2376 170.198C99.8656 170.198 101.936 168.146 101.936 165.572C101.936 162.998 99.8656 160.964 97.2376 160.964ZM97.2556 162.692C98.8036 162.71 99.9916 163.934 99.9916 165.59C99.9916 167.21 98.8036 168.452 97.2376 168.452C95.6716 168.452 94.5016 167.228 94.5016 165.59C94.5016 163.934 95.6716 162.71 97.2556 162.692ZM116.405 160.964C116.045 160.964 115.721 161.18 115.577 161.522L113.129 167.102L110.951 161.648C110.789 161.216 110.465 160.964 110.051 160.964C109.655 160.964 109.331 161.216 109.151 161.648L106.991 167.102L104.543 161.522C104.399 161.18 104.075 160.964 103.697 160.964C103.193 160.964 102.779 161.378 102.779 161.882C102.779 162.026 102.815 162.17 102.869 162.314L106.073 169.622C106.235 169.982 106.541 170.198 106.919 170.198C107.297 170.198 107.603 169.982 107.783 169.64L110.069 164.132L112.337 169.64C112.499 169.982 112.823 170.198 113.183 170.198C113.579 170.198 113.885 169.982 114.047 169.622L117.251 162.314C117.305 162.17 117.341 162.026 117.341 161.882C117.341 161.378 116.909 160.964 116.405 160.964ZM131.809 156.302C131.269 156.302 130.855 156.716 130.855 157.274V162.242C130.189 161.45 129.145 160.964 127.903 160.964C125.419 160.964 123.583 162.926 123.583 165.59C123.583 168.254 125.419 170.198 127.903 170.198C129.181 170.198 130.243 169.712 130.891 168.884V169.244C130.891 169.784 131.287 170.198 131.827 170.198C132.349 170.198 132.763 169.802 132.763 169.244V157.274C132.763 156.698 132.349 156.302 131.809 156.302ZM128.227 168.47C126.643 168.47 125.509 167.246 125.509 165.572C125.509 163.916 126.661 162.692 128.227 162.692C129.811 162.692 130.891 163.88 130.891 165.59C130.891 167.3 129.811 168.47 128.227 168.47ZM139.601 160.964C136.991 160.964 134.939 162.98 134.939 165.572C134.939 168.146 136.991 170.18 139.601 170.198C142.229 170.198 144.299 168.146 144.299 165.572C144.299 162.998 142.229 160.964 139.601 160.964ZM139.619 162.692C141.167 162.71 142.355 163.934 142.355 165.59C142.355 167.21 141.167 168.452 139.601 168.452C138.035 168.452 136.865 167.228 136.865 165.59C136.865 163.934 138.035 162.71 139.619 162.692ZM158.675 160.964C158.297 160.964 157.955 161.198 157.811 161.522L155.093 167.462L152.447 161.522C152.303 161.18 151.961 160.964 151.583 160.964C151.079 160.964 150.647 161.396 150.647 161.882C150.647 162.062 150.701 162.188 150.755 162.332L154.031 169.586L153.635 170.432C153.203 171.35 152.627 171.728 151.799 171.728C151.691 171.728 151.583 171.71 151.439 171.71C150.971 171.71 150.575 172.088 150.575 172.538C150.575 172.898 150.791 173.222 151.151 173.33C151.385 173.402 151.691 173.438 151.997 173.438C153.545 173.438 154.553 172.664 155.435 170.828L159.503 162.314C159.575 162.17 159.593 162.026 159.593 161.882C159.593 161.396 159.179 160.964 158.675 160.964ZM165.142 160.964C162.532 160.964 160.48 162.98 160.48 165.572C160.48 168.146 162.532 170.18 165.142 170.198C167.77 170.198 169.84 168.146 169.84 165.572C169.84 162.998 167.77 160.964 165.142 160.964ZM165.16 162.692C166.708 162.71 167.896 163.934 167.896 165.59C167.896 167.21 166.708 168.452 165.142 168.452C163.576 168.452 162.406 167.228 162.406 165.59C162.406 163.934 163.576 162.71 165.16 162.692ZM175.787 170.198C178.037 170.198 179.621 168.596 179.621 166.292V161.936C179.621 161.378 179.225 160.964 178.685 160.964C178.127 160.964 177.731 161.378 177.731 161.936V166.436C177.731 167.606 176.921 168.452 175.787 168.452C174.617 168.452 173.789 167.606 173.789 166.436V161.936C173.789 161.378 173.393 160.964 172.853 160.964C172.313 160.964 171.917 161.378 171.917 161.936V166.292C171.917 168.596 173.501 170.198 175.787 170.198ZM190.989 158.012C191.169 158.012 191.295 158.03 191.421 158.03C191.925 158.03 192.267 157.724 192.267 157.274C192.267 156.878 192.051 156.59 191.709 156.464C191.421 156.356 191.097 156.302 190.683 156.302C188.775 156.302 187.641 157.436 187.641 159.38V161.162H187.029C186.561 161.162 186.201 161.522 186.201 161.99C186.201 162.458 186.561 162.8 187.029 162.8H187.641V169.226C187.641 169.784 188.037 170.198 188.595 170.198C189.135 170.198 189.531 169.802 189.531 169.226V162.8H190.953C191.439 162.8 191.799 162.458 191.799 161.99C191.799 161.522 191.439 161.162 190.953 161.162H189.531V159.542C189.531 158.552 190.053 158.012 190.989 158.012ZM197.114 160.964C194.54 160.964 192.56 162.98 192.56 165.59C192.56 168.236 194.576 170.198 197.312 170.198C198.41 170.198 199.4 169.874 200.246 169.244C200.588 168.992 200.714 168.776 200.714 168.452C200.714 168.002 200.372 167.66 199.922 167.66C199.76 167.66 199.598 167.732 199.436 167.84C198.842 168.29 198.122 168.524 197.366 168.524C195.8 168.524 194.738 167.624 194.486 166.202H200.138C200.804 166.202 201.218 165.806 201.218 165.158V165.068C201.218 162.692 199.472 160.964 197.114 160.964ZM197.06 162.566C198.392 162.566 199.292 163.448 199.328 164.726H194.522C194.81 163.43 195.782 162.566 197.06 162.566ZM207.38 160.964C204.806 160.964 202.826 162.98 202.826 165.59C202.826 168.236 204.842 170.198 207.578 170.198C208.676 170.198 209.666 169.874 210.512 169.244C210.854 168.992 210.98 168.776 210.98 168.452C210.98 168.002 210.638 167.66 210.188 167.66C210.026 167.66 209.864 167.732 209.702 167.84C209.108 168.29 208.388 168.524 207.632 168.524C206.066 168.524 205.004 167.624 204.752 166.202H210.404C211.07 166.202 211.484 165.806 211.484 165.158V165.068C211.484 162.692 209.738 160.964 207.38 160.964ZM207.326 162.566C208.658 162.566 209.558 163.448 209.594 164.726H204.788C205.076 163.43 206.048 162.566 207.326 162.566ZM214.603 170.198C215.143 170.198 215.539 169.784 215.539 169.226V157.274C215.539 156.716 215.143 156.302 214.603 156.302C214.045 156.302 213.649 156.716 213.649 157.274V169.226C213.649 169.784 214.063 170.198 214.603 170.198ZM226.701 160.964C225.405 160.964 224.235 161.414 223.479 162.206C223.227 162.458 223.101 162.71 223.101 162.98C223.101 163.394 223.479 163.772 223.929 163.772C224.145 163.772 224.343 163.682 224.577 163.484C225.135 162.926 225.801 162.656 226.539 162.656C227.745 162.656 228.429 163.34 228.429 164.546V165.122H225.927C223.929 165.122 222.669 166.094 222.669 167.642C222.669 169.172 223.911 170.198 225.747 170.198C226.881 170.198 227.817 169.82 228.465 169.136V169.244C228.465 169.784 228.861 170.198 229.401 170.198C229.941 170.198 230.337 169.802 230.337 169.244V164.654C230.337 162.332 228.987 160.964 226.701 160.964ZM226.143 168.74C225.207 168.74 224.595 168.29 224.595 167.57C224.595 166.868 225.135 166.49 226.161 166.49H228.429V166.652C228.429 167.822 227.421 168.74 226.143 168.74ZM237.378 160.964C236.352 160.964 235.47 161.324 234.84 161.936C234.84 161.378 234.444 160.964 233.922 160.964C233.364 160.964 232.968 161.378 232.968 161.936V169.226C232.968 169.784 233.382 170.198 233.922 170.198C234.462 170.198 234.858 169.802 234.858 169.226V164.726C234.858 163.538 235.704 162.674 236.874 162.674C238.026 162.674 238.8 163.502 238.8 164.726V169.226C238.8 169.784 239.196 170.198 239.754 170.198C240.276 170.198 240.69 169.802 240.69 169.226V164.474C240.69 162.332 239.394 160.964 237.378 160.964ZM250.989 156.302C250.449 156.302 250.035 156.716 250.035 157.274V162.242C249.369 161.45 248.325 160.964 247.083 160.964C244.599 160.964 242.763 162.926 242.763 165.59C242.763 168.254 244.599 170.198 247.083 170.198C248.361 170.198 249.423 169.712 250.071 168.884V169.244C250.071 169.784 250.467 170.198 251.007 170.198C251.529 170.198 251.943 169.802 251.943 169.244V157.274C251.943 156.698 251.529 156.302 250.989 156.302ZM247.407 168.47C245.823 168.47 244.689 167.246 244.689 165.572C244.689 163.916 245.841 162.692 247.407 162.692C248.991 162.692 250.071 163.88 250.071 165.59C250.071 167.3 248.991 168.47 247.407 168.47ZM263.106 160.964C261.81 160.964 260.64 161.414 259.884 162.206C259.632 162.458 259.506 162.71 259.506 162.98C259.506 163.394 259.884 163.772 260.334 163.772C260.55 163.772 260.748 163.682 260.982 163.484C261.54 162.926 262.206 162.656 262.944 162.656C264.15 162.656 264.834 163.34 264.834 164.546V165.122H262.332C260.334 165.122 259.074 166.094 259.074 167.642C259.074 169.172 260.316 170.198 262.152 170.198C263.286 170.198 264.222 169.82 264.87 169.136V169.244C264.87 169.784 265.266 170.198 265.806 170.198C266.346 170.198 266.742 169.802 266.742 169.244V164.654C266.742 162.332 265.392 160.964 263.106 160.964ZM262.548 168.74C261.612 168.74 261 168.29 261 167.57C261 166.868 261.54 166.49 262.566 166.49H264.834V166.652C264.834 167.822 263.826 168.74 262.548 168.74ZM273.494 170.198C275.078 170.198 276.338 169.478 277.076 168.38C277.202 168.2 277.238 168.056 277.238 167.894C277.238 167.426 276.86 167.048 276.392 167.048C276.14 167.048 275.942 167.102 275.726 167.354C275.186 167.984 274.484 168.452 273.512 168.452C271.91 168.452 270.74 167.246 270.74 165.572C270.74 163.934 271.928 162.71 273.512 162.71C274.484 162.71 275.204 163.178 275.726 163.826C275.924 164.06 276.14 164.132 276.392 164.132C276.86 164.132 277.238 163.754 277.238 163.268C277.238 163.124 277.202 162.98 277.058 162.764C276.374 161.702 275.042 160.964 273.494 160.964C270.866 160.964 268.814 162.998 268.814 165.572C268.814 168.164 270.866 170.198 273.494 170.198ZM283.912 168.47C283.75 168.47 283.588 168.488 283.372 168.488C282.166 168.488 281.644 168.038 281.644 166.958V162.8H283.534C284.02 162.8 284.38 162.458 284.38 161.99C284.38 161.522 284.02 161.162 283.534 161.162H281.644V159.614C281.644 159.056 281.23 158.642 280.69 158.642C280.15 158.642 279.736 159.074 279.736 159.614V161.162H279.034C278.566 161.162 278.188 161.522 278.188 161.99C278.188 162.458 278.566 162.8 279.034 162.8H279.736V167.12C279.736 169.118 280.888 170.198 282.994 170.198C283.498 170.198 283.876 170.144 284.182 170.018C284.542 169.892 284.74 169.622 284.74 169.226C284.74 168.776 284.416 168.47 283.912 168.47ZM303.629 160.964C303.269 160.964 302.945 161.18 302.801 161.522L300.353 167.102L298.175 161.648C298.013 161.216 297.689 160.964 297.275 160.964C296.879 160.964 296.555 161.216 296.375 161.648L294.215 167.102L291.767 161.522C291.623 161.18 291.299 160.964 290.921 160.964C290.417 160.964 290.003 161.378 290.003 161.882C290.003 162.026 290.039 162.17 290.093 162.314L293.297 169.622C293.459 169.982 293.765 170.198 294.143 170.198C294.521 170.198 294.827 169.982 295.007 169.64L297.293 164.132L299.561 169.64C299.723 169.982 300.047 170.198 300.407 170.198C300.803 170.198 301.109 169.982 301.271 169.622L304.475 162.314C304.529 162.17 304.565 162.026 304.565 161.882C304.565 161.378 304.133 160.964 303.629 160.964ZM310.767 160.964C309.705 160.964 308.823 161.36 308.211 162.044V157.274C308.211 156.698 307.815 156.302 307.275 156.302C306.735 156.302 306.321 156.716 306.321 157.274V169.226C306.321 169.784 306.735 170.198 307.275 170.198C307.815 170.198 308.211 169.802 308.211 169.226V164.744C308.211 163.538 309.057 162.692 310.227 162.692C311.379 162.692 312.153 163.502 312.153 164.744V169.226C312.153 169.784 312.549 170.198 313.107 170.198C313.629 170.198 314.043 169.802 314.043 169.226V164.474C314.043 162.35 312.747 160.964 310.767 160.964ZM320.671 160.964C318.097 160.964 316.117 162.98 316.117 165.59C316.117 168.236 318.133 170.198 320.869 170.198C321.967 170.198 322.957 169.874 323.803 169.244C324.145 168.992 324.271 168.776 324.271 168.452C324.271 168.002 323.929 167.66 323.479 167.66C323.317 167.66 323.155 167.732 322.993 167.84C322.399 168.29 321.679 168.524 320.923 168.524C319.357 168.524 318.295 167.624 318.043 166.202H323.695C324.361 166.202 324.775 165.806 324.775 165.158V165.068C324.775 162.692 323.029 160.964 320.671 160.964ZM320.617 162.566C321.949 162.566 322.849 163.448 322.885 164.726H318.079C318.367 163.43 319.339 162.566 320.617 162.566ZM331.35 160.964C330.324 160.964 329.442 161.324 328.812 161.936C328.812 161.378 328.416 160.964 327.894 160.964C327.336 160.964 326.94 161.378 326.94 161.936V169.226C326.94 169.784 327.354 170.198 327.894 170.198C328.434 170.198 328.83 169.802 328.83 169.226V164.726C328.83 163.538 329.676 162.674 330.846 162.674C331.998 162.674 332.772 163.502 332.772 164.726V169.226C332.772 169.784 333.168 170.198 333.726 170.198C334.248 170.198 334.662 169.802 334.662 169.226V164.474C334.662 162.332 333.366 160.964 331.35 160.964ZM146.704 195.198C148.954 195.198 150.538 193.596 150.538 191.292V186.936C150.538 186.378 150.142 185.964 149.602 185.964C149.044 185.964 148.648 186.378 148.648 186.936V191.436C148.648 192.606 147.838 193.452 146.704 193.452C145.534 193.452 144.706 192.606 144.706 191.436V186.936C144.706 186.378 144.31 185.964 143.77 185.964C143.23 185.964 142.834 186.378 142.834 186.936V191.292C142.834 193.596 144.418 195.198 146.704 195.198ZM157.599 185.964C156.573 185.964 155.691 186.324 155.061 186.936C155.061 186.378 154.665 185.964 154.143 185.964C153.585 185.964 153.189 186.378 153.189 186.936V194.226C153.189 194.784 153.603 195.198 154.143 195.198C154.683 195.198 155.079 194.802 155.079 194.226V189.726C155.079 188.538 155.925 187.674 157.095 187.674C158.247 187.674 159.021 188.502 159.021 189.726V194.226C159.021 194.784 159.417 195.198 159.975 195.198C160.497 195.198 160.911 194.802 160.911 194.226V189.474C160.911 187.332 159.615 185.964 157.599 185.964ZM167.665 195.198C169.249 195.198 170.509 194.478 171.247 193.38C171.373 193.2 171.409 193.056 171.409 192.894C171.409 192.426 171.031 192.048 170.563 192.048C170.311 192.048 170.113 192.102 169.897 192.354C169.357 192.984 168.655 193.452 167.683 193.452C166.081 193.452 164.911 192.246 164.911 190.572C164.911 188.934 166.099 187.71 167.683 187.71C168.655 187.71 169.375 188.178 169.897 188.826C170.095 189.06 170.311 189.132 170.563 189.132C171.031 189.132 171.409 188.754 171.409 188.268C171.409 188.124 171.373 187.98 171.229 187.764C170.545 186.702 169.213 185.964 167.665 185.964C165.037 185.964 162.985 187.998 162.985 190.572C162.985 193.164 165.037 195.198 167.665 195.198ZM177.403 185.964C174.793 185.964 172.741 187.98 172.741 190.572C172.741 193.146 174.793 195.18 177.403 195.198C180.031 195.198 182.101 193.146 182.101 190.572C182.101 187.998 180.031 185.964 177.403 185.964ZM177.421 187.692C178.969 187.71 180.157 188.934 180.157 190.59C180.157 192.21 178.969 193.452 177.403 193.452C175.837 193.452 174.667 192.228 174.667 190.59C174.667 188.934 175.837 187.71 177.421 187.692ZM194.257 185.964C193.015 185.964 191.935 186.486 191.269 187.35C190.729 186.45 189.793 185.964 188.587 185.964C187.597 185.964 186.751 186.306 186.139 186.882C186.121 186.36 185.725 185.964 185.221 185.964C184.663 185.964 184.267 186.378 184.267 186.936V194.226C184.267 194.784 184.681 195.198 185.221 195.198C185.761 195.198 186.157 194.802 186.157 194.226V189.744C186.157 188.52 186.949 187.692 188.101 187.692C189.217 187.692 189.955 188.502 189.955 189.744V194.226C189.955 194.784 190.351 195.198 190.909 195.198C191.431 195.198 191.845 194.802 191.845 194.226V189.654C191.845 188.52 192.673 187.692 193.789 187.692C194.923 187.692 195.625 188.484 195.625 189.744V194.226C195.625 194.784 196.039 195.198 196.579 195.198C197.119 195.198 197.533 194.802 197.533 194.226V189.474C197.533 187.314 196.273 185.964 194.257 185.964ZM203.83 183.012C204.01 183.012 204.136 183.03 204.262 183.03C204.766 183.03 205.108 182.724 205.108 182.274C205.108 181.878 204.892 181.59 204.55 181.464C204.262 181.356 203.938 181.302 203.524 181.302C201.616 181.302 200.482 182.436 200.482 184.38V186.162H199.87C199.402 186.162 199.042 186.522 199.042 186.99C199.042 187.458 199.402 187.8 199.87 187.8H200.482V194.226C200.482 194.784 200.878 195.198 201.436 195.198C201.976 195.198 202.372 194.802 202.372 194.226V187.8H203.794C204.28 187.8 204.64 187.458 204.64 186.99C204.64 186.522 204.28 186.162 203.794 186.162H202.372V184.542C202.372 183.552 202.894 183.012 203.83 183.012ZM210.063 185.964C207.453 185.964 205.401 187.98 205.401 190.572C205.401 193.146 207.453 195.18 210.063 195.198C212.691 195.198 214.761 193.146 214.761 190.572C214.761 187.998 212.691 185.964 210.063 185.964ZM210.081 187.692C211.629 187.71 212.817 188.934 212.817 190.59C212.817 192.21 211.629 193.452 210.063 193.452C208.497 193.452 207.327 192.228 207.327 190.59C207.327 188.934 208.497 187.71 210.081 187.692ZM221.266 186.072C220.276 186.072 219.394 186.504 218.8 187.206V186.936C218.8 186.378 218.404 185.964 217.882 185.964C217.324 185.964 216.928 186.378 216.928 186.936V194.226C216.928 194.784 217.342 195.198 217.882 195.198C218.422 195.198 218.818 194.802 218.818 194.226V190.284C218.818 188.862 219.808 187.89 221.248 187.854C221.788 187.818 222.166 187.458 222.166 186.936C222.166 186.432 221.788 186.072 221.266 186.072ZM228.286 193.47C228.124 193.47 227.962 193.488 227.746 193.488C226.54 193.488 226.018 193.038 226.018 191.958V187.8H227.908C228.394 187.8 228.754 187.458 228.754 186.99C228.754 186.522 228.394 186.162 227.908 186.162H226.018V184.614C226.018 184.056 225.604 183.642 225.064 183.642C224.524 183.642 224.11 184.074 224.11 184.614V186.162H223.408C222.94 186.162 222.562 186.522 222.562 186.99C222.562 187.458 222.94 187.8 223.408 187.8H224.11V192.12C224.11 194.118 225.262 195.198 227.368 195.198C227.872 195.198 228.25 195.144 228.556 195.018C228.916 194.892 229.114 194.622 229.114 194.226C229.114 193.776 228.79 193.47 228.286 193.47ZM234.233 185.964C232.937 185.964 231.767 186.414 231.011 187.206C230.759 187.458 230.633 187.71 230.633 187.98C230.633 188.394 231.011 188.772 231.461 188.772C231.677 188.772 231.875 188.682 232.109 188.484C232.667 187.926 233.333 187.656 234.071 187.656C235.277 187.656 235.961 188.34 235.961 189.546V190.122H233.459C231.461 190.122 230.201 191.094 230.201 192.642C230.201 194.172 231.443 195.198 233.279 195.198C234.413 195.198 235.349 194.82 235.997 194.136V194.244C235.997 194.784 236.393 195.198 236.933 195.198C237.473 195.198 237.869 194.802 237.869 194.244V189.654C237.869 187.332 236.519 185.964 234.233 185.964ZM233.675 193.74C232.739 193.74 232.127 193.29 232.127 192.57C232.127 191.868 232.667 191.49 233.693 191.49H235.961V191.652C235.961 192.822 234.953 193.74 233.675 193.74ZM245.342 185.964C244.1 185.964 243.056 186.45 242.39 187.26V182.274C242.39 181.698 241.994 181.302 241.454 181.302C240.914 181.302 240.5 181.716 240.5 182.274V194.226C240.5 194.784 240.896 195.198 241.454 195.198C241.976 195.198 242.372 194.802 242.372 194.226V193.902C243.038 194.712 244.1 195.198 245.36 195.198C247.844 195.198 249.68 193.254 249.68 190.59C249.68 187.926 247.844 185.964 245.342 185.964ZM245.036 193.47C243.452 193.47 242.372 192.3 242.372 190.59C242.372 188.862 243.434 187.692 245.036 187.692C246.602 187.692 247.736 188.916 247.736 190.572C247.736 192.246 246.602 193.47 245.036 193.47ZM252.809 195.198C253.349 195.198 253.745 194.784 253.745 194.226V182.274C253.745 181.716 253.349 181.302 252.809 181.302C252.251 181.302 251.855 181.716 251.855 182.274V194.226C251.855 194.784 252.269 195.198 252.809 195.198ZM260.474 185.964C257.9 185.964 255.92 187.98 255.92 190.59C255.92 193.236 257.936 195.198 260.672 195.198C261.77 195.198 262.76 194.874 263.606 194.244C263.948 193.992 264.074 193.776 264.074 193.452C264.074 193.002 263.732 192.66 263.282 192.66C263.12 192.66 262.958 192.732 262.796 192.84C262.202 193.29 261.482 193.524 260.726 193.524C259.16 193.524 258.098 192.624 257.846 191.202H263.498C264.164 191.202 264.578 190.806 264.578 190.158V190.068C264.578 187.692 262.832 185.964 260.474 185.964ZM260.42 187.566C261.752 187.566 262.652 188.448 262.688 189.726H257.882C258.17 188.43 259.142 187.566 260.42 187.566ZM268.976 191.418C269.462 191.418 269.84 191.076 269.858 190.608L269.876 190.428C269.876 189.906 270.164 189.492 271.136 188.628C272.27 187.62 272.72 186.864 272.72 185.91C272.72 184.2 271.28 182.922 269.39 182.922C267.95 182.922 266.834 183.624 266.276 184.848C266.168 185.046 266.114 185.208 266.114 185.424C266.114 185.892 266.492 186.27 266.96 186.27C267.302 186.27 267.554 186.108 267.77 185.73C268.112 185.028 268.652 184.668 269.318 184.668C270.128 184.668 270.758 185.28 270.758 186.108C270.758 186.738 270.524 187.098 269.462 188.052C268.4 189.042 268.076 189.582 268.076 190.338V190.554C268.076 191.04 268.49 191.418 268.976 191.418ZM269.03 195.198C269.786 195.198 270.38 194.604 270.38 193.848C270.38 193.092 269.786 192.48 269.03 192.48C268.256 192.48 267.644 193.092 267.644 193.848C267.644 194.604 268.256 195.198 269.03 195.198Z" fill="#808080"/>
<path d="M33.736 233.14C33.932 233.14 34.1 232.986 34.1 232.762V228.856H36.508C38.188 228.856 39.308 227.834 39.308 226.308C39.308 224.768 38.188 223.76 36.508 223.76H33.75C33.526 223.76 33.372 223.928 33.372 224.138V232.762C33.372 232.986 33.526 233.14 33.736 233.14ZM34.1 228.198V224.418H36.48C37.754 224.418 38.552 225.146 38.552 226.308C38.552 227.484 37.754 228.198 36.48 228.198H34.1ZM41.5543 233.14C41.7643 233.14 41.9043 232.986 41.9043 232.79V222.71C41.9043 222.514 41.7503 222.36 41.5543 222.36C41.3583 222.36 41.2043 222.514 41.2043 222.71V232.79C41.2043 232.986 41.3583 233.14 41.5543 233.14ZM47.3829 226.098C45.4929 226.098 43.9949 227.638 43.9949 229.626C43.9949 231.6 45.5209 233.14 47.5089 233.14C48.4609 233.14 49.3009 232.79 49.9729 232.118C50.0989 231.992 50.1409 231.908 50.1409 231.796C50.1409 231.614 50.0149 231.474 49.8329 231.474C49.7349 231.474 49.6649 231.516 49.5669 231.614C49.0489 232.16 48.2929 232.482 47.5089 232.482C45.9549 232.482 44.8069 231.348 44.7229 229.794H50.0009C50.2949 229.794 50.4349 229.626 50.4349 229.332V229.164C50.4349 227.386 49.1609 226.098 47.3829 226.098ZM47.3829 226.742C48.7829 226.742 49.7349 227.764 49.7209 229.15H44.7509C44.9469 227.764 46.0109 226.742 47.3829 226.742ZM54.7927 226.098C53.8547 226.098 53.0427 226.462 52.4267 227.19C52.3147 227.316 52.2727 227.414 52.2727 227.512C52.2727 227.666 52.4267 227.806 52.5947 227.806C52.7067 227.806 52.7907 227.764 52.8887 227.666C53.4347 227.05 54.0367 226.756 54.7507 226.756C55.9267 226.756 56.6127 227.484 56.6127 228.73V229.5H54.2607C52.8327 229.5 51.9087 230.2 51.9087 231.306C51.9087 232.398 52.8467 233.14 54.2327 233.14C55.2687 233.14 56.1227 232.706 56.6127 231.992V232.79C56.6127 232.986 56.7807 233.14 56.9767 233.14C57.1727 233.14 57.3267 232.986 57.3267 232.79V228.758C57.3267 227.092 56.3747 226.098 54.7927 226.098ZM54.3027 232.524C53.2947 232.524 52.6367 232.034 52.6367 231.292C52.6367 230.536 53.2387 230.102 54.3307 230.102H56.6127V230.48C56.6127 231.614 55.5907 232.524 54.3027 232.524ZM61.7574 233.14C62.9334 233.14 64.0114 232.51 64.0114 231.264C64.0114 230.256 63.2974 229.766 62.2614 229.318L61.6314 229.038C60.8474 228.702 60.3574 228.45 60.3574 227.82C60.3574 227.078 61.0154 226.756 61.7294 226.756C62.3874 226.756 62.9194 227.022 63.3394 227.47C63.4654 227.582 63.5494 227.624 63.6474 227.624C63.8154 227.624 63.9554 227.47 63.9554 227.288C63.9554 227.218 63.9134 227.12 63.8294 227.036C63.3674 226.504 62.6814 226.098 61.7714 226.098C60.6374 226.098 59.6154 226.728 59.6154 227.862C59.6154 228.828 60.3714 229.276 61.2814 229.668L61.8974 229.934C62.6534 230.27 63.2834 230.536 63.2834 231.292C63.2834 232.09 62.5694 232.482 61.7574 232.482C60.9454 232.482 60.3154 232.076 59.7834 231.404C59.7134 231.32 59.6154 231.278 59.5174 231.278C59.3354 231.278 59.1674 231.446 59.1674 231.628C59.1674 231.712 59.2094 231.796 59.2654 231.866C59.7974 232.594 60.6654 233.14 61.7574 233.14ZM69.0665 226.098C67.1765 226.098 65.6785 227.638 65.6785 229.626C65.6785 231.6 67.2045 233.14 69.1925 233.14C70.1445 233.14 70.9845 232.79 71.6565 232.118C71.7825 231.992 71.8245 231.908 71.8245 231.796C71.8245 231.614 71.6985 231.474 71.5165 231.474C71.4185 231.474 71.3485 231.516 71.2505 231.614C70.7325 232.16 69.9765 232.482 69.1925 232.482C67.6385 232.482 66.4905 231.348 66.4065 229.794H71.6845C71.9785 229.794 72.1185 229.626 72.1185 229.332V229.164C72.1185 227.386 70.8445 226.098 69.0665 226.098ZM69.0665 226.742C70.4665 226.742 71.4185 227.764 71.4045 229.15H66.4345C66.6305 227.764 67.6945 226.742 69.0665 226.742ZM80.0641 233.14C81.2401 233.14 82.3181 232.51 82.3181 231.264C82.3181 230.256 81.6041 229.766 80.5681 229.318L79.9381 229.038C79.1541 228.702 78.6641 228.45 78.6641 227.82C78.6641 227.078 79.3221 226.756 80.0361 226.756C80.6941 226.756 81.2261 227.022 81.6461 227.47C81.7721 227.582 81.8561 227.624 81.9541 227.624C82.1221 227.624 82.2621 227.47 82.2621 227.288C82.2621 227.218 82.2201 227.12 82.1361 227.036C81.6741 226.504 80.9881 226.098 80.0781 226.098C78.9441 226.098 77.9221 226.728 77.9221 227.862C77.9221 228.828 78.6781 229.276 79.5881 229.668L80.2041 229.934C80.9601 230.27 81.5901 230.536 81.5901 231.292C81.5901 232.09 80.8761 232.482 80.0641 232.482C79.2521 232.482 78.6221 232.076 78.0901 231.404C78.0201 231.32 77.9221 231.278 77.8241 231.278C77.6421 231.278 77.4741 231.446 77.4741 231.628C77.4741 231.712 77.5161 231.796 77.5721 231.866C78.1041 232.594 78.9721 233.14 80.0641 233.14ZM87.3732 226.098C85.4832 226.098 83.9852 227.638 83.9852 229.626C83.9852 231.6 85.5112 233.14 87.4992 233.14C88.4512 233.14 89.2912 232.79 89.9632 232.118C90.0892 231.992 90.1312 231.908 90.1312 231.796C90.1312 231.614 90.0052 231.474 89.8232 231.474C89.7252 231.474 89.6552 231.516 89.5572 231.614C89.0392 232.16 88.2832 232.482 87.4992 232.482C85.9452 232.482 84.7972 231.348 84.7132 229.794H89.9912C90.2852 229.794 90.4252 229.626 90.4252 229.332V229.164C90.4252 227.386 89.1512 226.098 87.3732 226.098ZM87.3732 226.742C88.7732 226.742 89.7252 227.764 89.7112 229.15H84.7412C84.9372 227.764 86.0012 226.742 87.3732 226.742ZM92.8649 233.14C93.0749 233.14 93.2149 232.986 93.2149 232.79V222.71C93.2149 222.514 93.0609 222.36 92.8649 222.36C92.6689 222.36 92.5149 222.514 92.5149 222.71V232.79C92.5149 232.986 92.6689 233.14 92.8649 233.14ZM98.6935 226.098C96.8035 226.098 95.3055 227.638 95.3055 229.626C95.3055 231.6 96.8315 233.14 98.8195 233.14C99.7715 233.14 100.611 232.79 101.283 232.118C101.409 231.992 101.451 231.908 101.451 231.796C101.451 231.614 101.325 231.474 101.143 231.474C101.045 231.474 100.975 231.516 100.877 231.614C100.359 232.16 99.6035 232.482 98.8195 232.482C97.2655 232.482 96.1175 231.348 96.0335 229.794H101.311C101.605 229.794 101.745 229.626 101.745 229.332V229.164C101.745 227.386 100.471 226.098 98.6935 226.098ZM98.6935 226.742C100.093 226.742 101.045 227.764 101.031 229.15H96.0615C96.2575 227.764 97.3215 226.742 98.6935 226.742ZM106.803 233.14C107.951 233.14 108.833 232.664 109.477 231.838C109.561 231.726 109.589 231.656 109.589 231.572C109.589 231.404 109.435 231.264 109.253 231.264C109.169 231.264 109.085 231.292 108.987 231.404C108.441 232.09 107.769 232.482 106.803 232.482C105.235 232.482 104.045 231.222 104.045 229.612C104.045 228.002 105.249 226.756 106.817 226.756C107.769 226.756 108.455 227.148 109.001 227.834C109.085 227.946 109.183 227.974 109.267 227.974C109.435 227.974 109.589 227.834 109.589 227.666C109.589 227.582 109.575 227.512 109.491 227.4C108.861 226.574 107.951 226.098 106.817 226.098C104.857 226.098 103.317 227.652 103.317 229.612C103.317 231.572 104.857 233.14 106.803 233.14ZM114.724 232.426C114.57 232.426 114.36 232.496 114.01 232.496C113.016 232.496 112.54 232.034 112.54 231.082V226.882H114.43C114.612 226.882 114.766 226.742 114.766 226.56C114.766 226.378 114.612 226.238 114.43 226.238H112.54V224.586C112.54 224.39 112.386 224.222 112.19 224.222C111.994 224.222 111.826 224.376 111.826 224.586V226.238H110.944C110.762 226.238 110.608 226.378 110.608 226.56C110.608 226.742 110.762 226.882 110.944 226.882H111.826V231.11C111.826 232.412 112.568 233.14 113.898 233.14C114.206 233.14 114.486 233.112 114.752 233.042C114.948 233 115.046 232.888 115.046 232.72C115.046 232.538 114.906 232.426 114.724 232.426ZM122.838 226.098C121.9 226.098 121.088 226.462 120.472 227.19C120.36 227.316 120.318 227.414 120.318 227.512C120.318 227.666 120.472 227.806 120.64 227.806C120.752 227.806 120.836 227.764 120.934 227.666C121.48 227.05 122.082 226.756 122.796 226.756C123.972 226.756 124.658 227.484 124.658 228.73V229.5H122.306C120.878 229.5 119.954 230.2 119.954 231.306C119.954 232.398 120.892 233.14 122.278 233.14C123.314 233.14 124.168 232.706 124.658 231.992V232.79C124.658 232.986 124.826 233.14 125.022 233.14C125.218 233.14 125.372 232.986 125.372 232.79V228.758C125.372 227.092 124.42 226.098 122.838 226.098ZM122.348 232.524C121.34 232.524 120.682 232.034 120.682 231.292C120.682 230.536 121.284 230.102 122.376 230.102H124.658V230.48C124.658 231.614 123.636 232.524 122.348 232.524ZM129.802 233.14C130.978 233.14 132.056 232.51 132.056 231.264C132.056 230.256 131.342 229.766 130.306 229.318L129.676 229.038C128.892 228.702 128.402 228.45 128.402 227.82C128.402 227.078 129.06 226.756 129.774 226.756C130.432 226.756 130.964 227.022 131.384 227.47C131.51 227.582 131.594 227.624 131.692 227.624C131.86 227.624 132 227.47 132 227.288C132 227.218 131.958 227.12 131.874 227.036C131.412 226.504 130.726 226.098 129.816 226.098C128.682 226.098 127.66 226.728 127.66 227.862C127.66 228.828 128.416 229.276 129.326 229.668L129.942 229.934C130.698 230.27 131.328 230.536 131.328 231.292C131.328 232.09 130.614 232.482 129.802 232.482C128.99 232.482 128.36 232.076 127.828 231.404C127.758 231.32 127.66 231.278 127.562 231.278C127.38 231.278 127.212 231.446 127.212 231.628C127.212 231.712 127.254 231.796 127.31 231.866C127.842 232.594 128.71 233.14 129.802 233.14ZM145.389 226.098C144.367 226.098 143.499 226.602 143.051 227.414C142.701 226.574 141.945 226.098 140.923 226.098C140.041 226.098 139.313 226.462 138.865 227.092V226.448C138.865 226.252 138.711 226.098 138.515 226.098C138.319 226.098 138.165 226.252 138.165 226.448V232.79C138.165 232.986 138.319 233.14 138.515 233.14C138.711 233.14 138.865 232.986 138.865 232.79V228.786C138.865 227.596 139.677 226.756 140.825 226.756C141.917 226.756 142.631 227.554 142.631 228.786V232.79C142.631 232.986 142.785 233.14 142.981 233.14C143.177 233.14 143.331 232.986 143.331 232.79V228.674C143.331 227.582 144.185 226.756 145.291 226.756C146.383 226.756 147.083 227.54 147.083 228.786V232.79C147.083 232.986 147.237 233.14 147.447 233.14C147.643 233.14 147.797 232.986 147.797 232.79V228.73C147.797 227.106 146.859 226.098 145.389 226.098ZM152.854 233.14C154.394 233.14 155.5 232.02 155.5 230.438V226.448C155.5 226.252 155.346 226.098 155.15 226.098C154.954 226.098 154.8 226.252 154.8 226.448V230.466C154.8 231.656 154.002 232.482 152.854 232.482C151.678 232.482 150.894 231.656 150.894 230.466V226.448C150.894 226.252 150.726 226.098 150.544 226.098C150.348 226.098 150.194 226.252 150.194 226.448V230.438C150.194 232.02 151.286 233.14 152.854 233.14ZM160.971 233.14C162.119 233.14 163.001 232.664 163.645 231.838C163.729 231.726 163.757 231.656 163.757 231.572C163.757 231.404 163.603 231.264 163.421 231.264C163.337 231.264 163.253 231.292 163.155 231.404C162.609 232.09 161.937 232.482 160.971 232.482C159.403 232.482 158.213 231.222 158.213 229.612C158.213 228.002 159.417 226.756 160.985 226.756C161.937 226.756 162.623 227.148 163.169 227.834C163.253 227.946 163.351 227.974 163.435 227.974C163.603 227.974 163.757 227.834 163.757 227.666C163.757 227.582 163.743 227.512 163.659 227.4C163.029 226.574 162.119 226.098 160.985 226.098C159.025 226.098 157.485 227.652 157.485 229.612C157.485 231.572 159.025 233.14 160.971 233.14ZM168.57 226.098C167.632 226.098 166.876 226.49 166.428 227.176V222.71C166.428 222.514 166.274 222.36 166.078 222.36C165.882 222.36 165.728 222.514 165.728 222.71V232.79C165.728 232.986 165.882 233.14 166.078 233.14C166.274 233.14 166.428 232.986 166.428 232.79V228.786C166.428 227.596 167.282 226.756 168.444 226.756C169.578 226.756 170.334 227.554 170.334 228.786V232.79C170.334 232.986 170.488 233.14 170.684 233.14C170.88 233.14 171.034 232.986 171.034 232.79V228.73C171.034 227.12 170.068 226.098 168.57 226.098ZM179.726 226.098C178.788 226.098 177.976 226.462 177.36 227.19C177.248 227.316 177.206 227.414 177.206 227.512C177.206 227.666 177.36 227.806 177.528 227.806C177.64 227.806 177.724 227.764 177.822 227.666C178.368 227.05 178.97 226.756 179.684 226.756C180.86 226.756 181.546 227.484 181.546 228.73V229.5H179.194C177.766 229.5 176.842 230.2 176.842 231.306C176.842 232.398 177.78 233.14 179.166 233.14C180.202 233.14 181.056 232.706 181.546 231.992V232.79C181.546 232.986 181.714 233.14 181.91 233.14C182.106 233.14 182.26 232.986 182.26 232.79V228.758C182.26 227.092 181.308 226.098 179.726 226.098ZM179.236 232.524C178.228 232.524 177.57 232.034 177.57 231.292C177.57 230.536 178.172 230.102 179.264 230.102H181.546V230.48C181.546 231.614 180.524 232.524 179.236 232.524ZM186.691 233.14C187.867 233.14 188.945 232.51 188.945 231.264C188.945 230.256 188.231 229.766 187.195 229.318L186.565 229.038C185.781 228.702 185.291 228.45 185.291 227.82C185.291 227.078 185.949 226.756 186.663 226.756C187.321 226.756 187.853 227.022 188.273 227.47C188.399 227.582 188.483 227.624 188.581 227.624C188.749 227.624 188.889 227.47 188.889 227.288C188.889 227.218 188.847 227.12 188.763 227.036C188.301 226.504 187.615 226.098 186.705 226.098C185.571 226.098 184.549 226.728 184.549 227.862C184.549 228.828 185.305 229.276 186.215 229.668L186.831 229.934C187.587 230.27 188.217 230.536 188.217 231.292C188.217 232.09 187.503 232.482 186.691 232.482C185.879 232.482 185.249 232.076 184.717 231.404C184.647 231.32 184.549 231.278 184.451 231.278C184.269 231.278 184.101 231.446 184.101 231.628C184.101 231.712 184.143 231.796 184.199 231.866C184.731 232.594 185.599 233.14 186.691 233.14ZM198.484 226.098C197.28 226.098 196.258 226.686 195.754 227.554V226.448C195.754 226.238 195.6 226.084 195.404 226.084C195.208 226.084 195.054 226.238 195.054 226.448V235.31C195.054 235.506 195.208 235.674 195.404 235.674C195.6 235.674 195.754 235.52 195.754 235.31V231.684C196.258 232.552 197.28 233.14 198.484 233.14C200.388 233.14 201.844 231.614 201.844 229.612C201.844 227.624 200.374 226.098 198.484 226.098ZM198.414 232.482C196.818 232.482 195.754 231.334 195.754 229.612C195.754 227.904 196.818 226.756 198.414 226.756C199.954 226.756 201.116 227.974 201.116 229.626C201.116 231.264 199.968 232.482 198.414 232.482ZM206.909 226.098C204.949 226.098 203.409 227.624 203.409 229.612C203.409 231.586 204.949 233.14 206.895 233.14C208.855 233.14 210.409 231.586 210.409 229.612C210.409 227.638 208.855 226.098 206.909 226.098ZM206.909 226.756C208.463 226.756 209.681 227.988 209.681 229.626C209.681 231.236 208.463 232.482 206.895 232.482C205.327 232.482 204.137 231.25 204.137 229.626C204.137 227.988 205.327 226.756 206.909 226.756ZM214.431 233.14C215.607 233.14 216.685 232.51 216.685 231.264C216.685 230.256 215.971 229.766 214.935 229.318L214.305 229.038C213.521 228.702 213.031 228.45 213.031 227.82C213.031 227.078 213.689 226.756 214.403 226.756C215.061 226.756 215.593 227.022 216.013 227.47C216.139 227.582 216.223 227.624 216.321 227.624C216.489 227.624 216.629 227.47 216.629 227.288C216.629 227.218 216.587 227.12 216.503 227.036C216.041 226.504 215.355 226.098 214.445 226.098C213.311 226.098 212.289 226.728 212.289 227.862C212.289 228.828 213.045 229.276 213.955 229.668L214.571 229.934C215.327 230.27 215.957 230.536 215.957 231.292C215.957 232.09 215.243 232.482 214.431 232.482C213.619 232.482 212.989 232.076 212.457 231.404C212.387 231.32 212.289 231.278 212.191 231.278C212.009 231.278 211.841 231.446 211.841 231.628C211.841 231.712 211.883 231.796 211.939 231.866C212.471 232.594 213.339 233.14 214.431 233.14ZM220.802 233.14C221.978 233.14 223.056 232.51 223.056 231.264C223.056 230.256 222.342 229.766 221.306 229.318L220.676 229.038C219.892 228.702 219.402 228.45 219.402 227.82C219.402 227.078 220.06 226.756 220.774 226.756C221.432 226.756 221.964 227.022 222.384 227.47C222.51 227.582 222.594 227.624 222.692 227.624C222.86 227.624 223 227.47 223 227.288C223 227.218 222.958 227.12 222.874 227.036C222.412 226.504 221.726 226.098 220.816 226.098C219.682 226.098 218.66 226.728 218.66 227.862C218.66 228.828 219.416 229.276 220.326 229.668L220.942 229.934C221.698 230.27 222.328 230.536 222.328 231.292C222.328 232.09 221.614 232.482 220.802 232.482C219.99 232.482 219.36 232.076 218.828 231.404C218.758 231.32 218.66 231.278 218.562 231.278C218.38 231.278 218.212 231.446 218.212 231.628C218.212 231.712 218.254 231.796 218.31 231.866C218.842 232.594 219.71 233.14 220.802 233.14ZM225.591 223.032C225.255 223.032 224.989 223.298 224.989 223.634C224.989 223.97 225.255 224.236 225.591 224.236C225.927 224.236 226.193 223.97 226.193 223.634C226.193 223.298 225.927 223.032 225.591 223.032ZM225.577 233.14C225.787 233.14 225.941 232.986 225.941 232.79V226.448C225.941 226.252 225.787 226.098 225.591 226.098C225.381 226.098 225.241 226.252 225.241 226.448V232.79C225.241 232.986 225.395 233.14 225.577 233.14ZM231.98 226.098C230.776 226.098 229.754 226.686 229.25 227.554V222.71C229.25 222.514 229.096 222.36 228.9 222.36C228.704 222.36 228.55 222.514 228.55 222.71V232.79C228.55 232.986 228.704 233.14 228.9 233.14C229.096 233.14 229.25 232.986 229.25 232.79V231.684C229.754 232.552 230.776 233.14 231.98 233.14C233.87 233.14 235.34 231.614 235.34 229.626C235.34 227.624 233.884 226.098 231.98 226.098ZM231.91 232.482C230.314 232.482 229.25 231.334 229.25 229.626C229.25 227.904 230.314 226.756 231.91 226.756C233.464 226.756 234.612 227.974 234.612 229.612C234.612 231.264 233.45 232.482 231.91 232.482ZM237.773 233.14C237.983 233.14 238.123 232.986 238.123 232.79V222.71C238.123 222.514 237.969 222.36 237.773 222.36C237.577 222.36 237.423 222.514 237.423 222.71V232.79C237.423 232.986 237.577 233.14 237.773 233.14ZM243.602 226.098C241.712 226.098 240.214 227.638 240.214 229.626C240.214 231.6 241.74 233.14 243.728 233.14C244.68 233.14 245.52 232.79 246.192 232.118C246.318 231.992 246.36 231.908 246.36 231.796C246.36 231.614 246.234 231.474 246.052 231.474C245.954 231.474 245.884 231.516 245.786 231.614C245.268 232.16 244.512 232.482 243.728 232.482C242.174 232.482 241.026 231.348 240.942 229.794H246.22C246.514 229.794 246.654 229.626 246.654 229.332V229.164C246.654 227.386 245.38 226.098 243.602 226.098ZM243.602 226.742C245.002 226.742 245.954 227.764 245.94 229.15H240.97C241.166 227.764 242.23 226.742 243.602 226.742Z" fill="#808080"/>
<path d="M34.72 785.22C35.32 785.22 35.78 784.76 35.78 784.14V779.9H38.46C41.12 779.9 42.94 778.24 42.94 775.84C42.94 773.42 41.14 771.8 38.46 771.8H34.76C34.12 771.8 33.66 772.26 33.66 772.9V784.14C33.66 784.76 34.12 785.22 34.72 785.22ZM35.78 778.02V773.68H38.44C39.88 773.68 40.76 774.52 40.76 775.86C40.76 777.2 39.88 778.02 38.44 778.02H35.78ZM46.2402 785.22C46.8402 785.22 47.2802 784.76 47.2802 784.14V770.86C47.2802 770.24 46.8402 769.78 46.2402 769.78C45.6202 769.78 45.1802 770.24 45.1802 770.86V784.14C45.1802 784.76 45.6402 785.22 46.2402 785.22ZM54.7569 774.96C51.8969 774.96 49.6969 777.2 49.6969 780.1C49.6969 783.04 51.9369 785.22 54.9769 785.22C56.1969 785.22 57.2969 784.86 58.2369 784.16C58.6169 783.88 58.7569 783.64 58.7569 783.28C58.7569 782.78 58.3769 782.4 57.8769 782.4C57.6969 782.4 57.5169 782.48 57.3369 782.6C56.6769 783.1 55.8769 783.36 55.0369 783.36C53.2969 783.36 52.1169 782.36 51.8369 780.78H58.1169C58.8569 780.78 59.3169 780.34 59.3169 779.62V779.52C59.3169 776.88 57.3769 774.96 54.7569 774.96ZM54.6969 776.74C56.1769 776.74 57.1769 777.72 57.2169 779.14H51.8769C52.1969 777.7 53.2769 776.74 54.6969 776.74ZM65.4831 774.96C64.0431 774.96 62.7431 775.46 61.9031 776.34C61.6231 776.62 61.4831 776.9 61.4831 777.2C61.4831 777.66 61.9031 778.08 62.4031 778.08C62.6431 778.08 62.8631 777.98 63.1231 777.76C63.7431 777.14 64.4831 776.84 65.3031 776.84C66.6431 776.84 67.4031 777.6 67.4031 778.94V779.58H64.6231C62.4031 779.58 61.0031 780.66 61.0031 782.38C61.0031 784.08 62.3831 785.22 64.4231 785.22C65.6831 785.22 66.7231 784.8 67.4431 784.04V784.16C67.4431 784.76 67.8831 785.22 68.4831 785.22C69.0831 785.22 69.5231 784.78 69.5231 784.16V779.06C69.5231 776.48 68.0231 774.96 65.4831 774.96ZM64.8631 783.6C63.8231 783.6 63.1431 783.1 63.1431 782.3C63.1431 781.52 63.7431 781.1 64.8831 781.1H67.4031V781.28C67.4031 782.58 66.2831 783.6 64.8631 783.6ZM75.4858 785.22C77.4458 785.22 79.1258 784.2 79.1258 782.22C79.1258 780.78 78.2258 780 76.4458 779.26L75.5058 778.88C74.6058 778.52 74.2058 778.26 74.2058 777.72C74.2058 777.08 74.7658 776.78 75.5458 776.78C76.2858 776.78 76.9658 777.06 77.4858 777.46C77.7458 777.66 77.9258 777.76 78.1458 777.76C78.6258 777.76 79.0258 777.36 79.0258 776.86C79.0258 776.6 78.9258 776.36 78.7058 776.16C77.9458 775.42 76.8458 774.96 75.5858 774.96C73.6458 774.96 72.1258 775.98 72.1258 777.8C72.1258 779.28 73.1058 780 74.6858 780.66L75.6858 781.08C76.4858 781.4 77.0658 781.66 77.0658 782.3C77.0658 783.04 76.3458 783.4 75.4858 783.4C74.5458 783.4 73.8058 782.96 73.1858 782.38C72.9658 782.18 72.7458 782.1 72.5258 782.1C72.0058 782.1 71.5858 782.52 71.5858 783.02C71.5858 783.3 71.6858 783.52 71.8858 783.7C72.7258 784.6 73.9658 785.22 75.4858 785.22ZM85.9873 774.96C83.1273 774.96 80.9273 777.2 80.9273 780.1C80.9273 783.04 83.1673 785.22 86.2073 785.22C87.4273 785.22 88.5273 784.86 89.4673 784.16C89.8473 783.88 89.9873 783.64 89.9873 783.28C89.9873 782.78 89.6073 782.4 89.1073 782.4C88.9273 782.4 88.7473 782.48 88.5673 782.6C87.9073 783.1 87.1073 783.36 86.2673 783.36C84.5273 783.36 83.3473 782.36 83.0673 780.78H89.3473C90.0873 780.78 90.5473 780.34 90.5473 779.62V779.52C90.5473 776.88 88.6073 774.96 85.9873 774.96ZM85.9273 776.74C87.4073 776.74 88.4073 777.72 88.4473 779.14H83.1073C83.4273 777.7 84.5073 776.74 85.9273 776.74ZM101.599 785.22C103.559 785.22 105.239 784.2 105.239 782.22C105.239 780.78 104.339 780 102.559 779.26L101.619 778.88C100.719 778.52 100.319 778.26 100.319 777.72C100.319 777.08 100.879 776.78 101.659 776.78C102.399 776.78 103.079 777.06 103.599 777.46C103.859 777.66 104.039 777.76 104.259 777.76C104.739 777.76 105.139 777.36 105.139 776.86C105.139 776.6 105.039 776.36 104.819 776.16C104.059 775.42 102.959 774.96 101.699 774.96C99.7591 774.96 98.2391 775.98 98.2391 777.8C98.2391 779.28 99.2191 780 100.799 780.66L101.799 781.08C102.599 781.4 103.179 781.66 103.179 782.3C103.179 783.04 102.459 783.4 101.599 783.4C100.659 783.4 99.9191 782.96 99.2991 782.38C99.0791 782.18 98.8591 782.1 98.6391 782.1C98.1191 782.1 97.6991 782.52 97.6991 783.02C97.6991 783.3 97.7991 783.52 97.9991 783.7C98.8391 784.6 100.079 785.22 101.599 785.22ZM113.041 774.96C111.641 774.96 110.461 775.5 109.741 776.4V776C109.741 775.4 109.301 774.94 108.721 774.94C108.101 774.94 107.661 775.4 107.661 776V787.76C107.661 788.38 108.121 788.84 108.721 788.84C109.321 788.84 109.761 788.38 109.761 787.76V783.8C110.501 784.68 111.661 785.22 113.041 785.22C115.821 785.22 117.861 783.04 117.861 780.08C117.861 777.14 115.821 774.96 113.041 774.96ZM112.701 783.3C110.921 783.3 109.741 782 109.741 780.08C109.741 778.18 110.941 776.88 112.701 776.88C114.441 776.88 115.701 778.24 115.701 780.1C115.701 781.94 114.441 783.3 112.701 783.3ZM124.718 774.96C121.858 774.96 119.658 777.2 119.658 780.1C119.658 783.04 121.898 785.22 124.938 785.22C126.158 785.22 127.258 784.86 128.198 784.16C128.578 783.88 128.718 783.64 128.718 783.28C128.718 782.78 128.338 782.4 127.838 782.4C127.658 782.4 127.478 782.48 127.298 782.6C126.638 783.1 125.838 783.36 124.998 783.36C123.258 783.36 122.078 782.36 121.798 780.78H128.078C128.818 780.78 129.278 780.34 129.278 779.62V779.52C129.278 776.88 127.338 774.96 124.718 774.96ZM124.658 776.74C126.138 776.74 127.138 777.72 127.178 779.14H121.838C122.158 777.7 123.238 776.74 124.658 776.74ZM136.264 785.22C138.024 785.22 139.424 784.42 140.244 783.2C140.384 783 140.424 782.84 140.424 782.66C140.424 782.14 140.004 781.72 139.484 781.72C139.204 781.72 138.984 781.78 138.744 782.06C138.144 782.76 137.364 783.28 136.284 783.28C134.504 783.28 133.204 781.94 133.204 780.08C133.204 778.26 134.524 776.9 136.284 776.9C137.364 776.9 138.164 777.42 138.744 778.14C138.964 778.4 139.204 778.48 139.484 778.48C140.004 778.48 140.424 778.06 140.424 777.52C140.424 777.36 140.384 777.2 140.224 776.96C139.464 775.78 137.984 774.96 136.264 774.96C133.344 774.96 131.064 777.22 131.064 780.08C131.064 782.96 133.344 785.22 136.264 785.22ZM143.779 770.16C142.999 770.16 142.379 770.76 142.379 771.52C142.379 772.28 142.999 772.88 143.779 772.88C144.539 772.88 145.179 772.28 145.179 771.52C145.179 770.76 144.539 770.16 143.779 770.16ZM143.759 785.22C144.359 785.22 144.819 784.76 144.819 784.14V776.04C144.819 775.42 144.379 774.96 143.779 774.96C143.159 774.96 142.719 775.42 142.719 776.04V784.14C142.719 784.76 143.159 785.22 143.759 785.22ZM151.936 771.68C152.136 771.68 152.276 771.7 152.416 771.7C152.976 771.7 153.356 771.36 153.356 770.86C153.356 770.42 153.116 770.1 152.736 769.96C152.416 769.84 152.056 769.78 151.596 769.78C149.476 769.78 148.216 771.04 148.216 773.2V775.18H147.536C147.016 775.18 146.616 775.58 146.616 776.1C146.616 776.62 147.016 777 147.536 777H148.216V784.14C148.216 784.76 148.656 785.22 149.276 785.22C149.876 785.22 150.316 784.78 150.316 784.14V777H151.896C152.436 777 152.836 776.62 152.836 776.1C152.836 775.58 152.436 775.18 151.896 775.18H150.316V773.38C150.316 772.28 150.896 771.68 151.936 771.68ZM162.457 774.96C162.037 774.96 161.657 775.22 161.497 775.58L158.477 782.18L155.537 775.58C155.377 775.2 154.997 774.96 154.577 774.96C154.017 774.96 153.537 775.44 153.537 775.98C153.537 776.18 153.597 776.32 153.657 776.48L157.297 784.54L156.857 785.48C156.377 786.5 155.737 786.92 154.817 786.92C154.697 786.92 154.577 786.9 154.417 786.9C153.897 786.9 153.457 787.32 153.457 787.82C153.457 788.22 153.697 788.58 154.097 788.7C154.357 788.78 154.697 788.82 155.037 788.82C156.757 788.82 157.877 787.96 158.857 785.92L163.377 776.46C163.457 776.3 163.477 776.14 163.477 775.98C163.477 775.44 163.017 774.96 162.457 774.96ZM165.393 775.36C165.393 774.853 165.513 774.5 165.753 774.3C165.993 774.1 166.28 774 166.613 774C166.96 774 167.253 774.1 167.493 774.3C167.746 774.5 167.873 774.853 167.873 775.36C167.873 775.84 167.746 776.187 167.493 776.4C167.253 776.613 166.96 776.72 166.613 776.72C166.28 776.72 165.993 776.613 165.753 776.4C165.513 776.187 165.393 775.84 165.393 775.36ZM165.393 783.92C165.393 783.427 165.513 783.08 165.753 782.88C165.993 782.68 166.28 782.58 166.613 782.58C166.96 782.58 167.253 782.68 167.493 782.88C167.746 783.08 167.873 783.427 167.873 783.92C167.873 784.4 167.746 784.747 167.493 784.96C167.253 785.173 166.96 785.28 166.613 785.28C166.28 785.28 165.993 785.173 165.753 784.96C165.513 784.747 165.393 784.4 165.393 783.92Z" fill="black"/>
<line x1="32" y1="829.5" x2="382" y2="829.5" stroke="black"/>
<path d="M297.136 846.792H300.32V847.928H297.136V851.224H295.984V847.928H292.8V846.792H295.984V843.48H297.136V846.792ZM314.78 851.88L310.956 842.84C310.796 842.456 310.524 842.264 310.14 842.264C309.772 842.264 309.5 842.456 309.34 842.84L305.516 851.88C305.42 852.072 305.388 852.232 305.388 852.36C305.388 852.808 305.756 853.176 306.22 853.176C306.604 853.176 306.876 852.968 307.02 852.584L307.644 851.096H312.62L313.276 852.584C313.436 852.968 313.692 853.176 314.076 853.176C314.54 853.176 314.908 852.808 314.908 852.36C314.908 852.232 314.86 852.072 314.78 851.88ZM310.14 844.744L312.012 849.656H308.236L310.14 844.744ZM323.329 840.824C322.849 840.824 322.481 841.192 322.481 841.688V846.104C321.889 845.4 320.961 844.968 319.857 844.968C317.649 844.968 316.017 846.712 316.017 849.08C316.017 851.448 317.649 853.176 319.857 853.176C320.993 853.176 321.937 852.744 322.513 852.008V852.328C322.513 852.808 322.865 853.176 323.345 853.176C323.809 853.176 324.177 852.824 324.177 852.328V841.688C324.177 841.176 323.809 840.824 323.329 840.824ZM320.145 851.64C318.737 851.64 317.729 850.552 317.729 849.064C317.729 847.592 318.753 846.504 320.145 846.504C321.553 846.504 322.513 847.56 322.513 849.08C322.513 850.6 321.553 851.64 320.145 851.64ZM333.423 840.824C332.943 840.824 332.575 841.192 332.575 841.688V846.104C331.983 845.4 331.055 844.968 329.951 844.968C327.743 844.968 326.111 846.712 326.111 849.08C326.111 851.448 327.743 853.176 329.951 853.176C331.087 853.176 332.031 852.744 332.607 852.008V852.328C332.607 852.808 332.959 853.176 333.439 853.176C333.903 853.176 334.271 852.824 334.271 852.328V841.688C334.271 841.176 333.903 840.824 333.423 840.824ZM330.239 851.64C328.831 851.64 327.823 850.552 327.823 849.064C327.823 847.592 328.847 846.504 330.239 846.504C331.647 846.504 332.607 847.56 332.607 849.08C332.607 850.6 331.647 851.64 330.239 851.64ZM350.065 844.968C348.961 844.968 348.001 845.432 347.409 846.2C346.929 845.4 346.097 844.968 345.025 844.968C344.145 844.968 343.393 845.272 342.849 845.784C342.833 845.32 342.481 844.968 342.033 844.968C341.537 844.968 341.185 845.336 341.185 845.832V852.312C341.185 852.808 341.553 853.176 342.033 853.176C342.513 853.176 342.865 852.824 342.865 852.312V848.328C342.865 847.24 343.569 846.504 344.593 846.504C345.585 846.504 346.241 847.224 346.241 848.328V852.312C346.241 852.808 346.593 853.176 347.089 853.176C347.553 853.176 347.921 852.824 347.921 852.312V848.248C347.921 847.24 348.657 846.504 349.649 846.504C350.657 846.504 351.281 847.208 351.281 848.328V852.312C351.281 852.808 351.649 853.176 352.129 853.176C352.609 853.176 352.977 852.824 352.977 852.312V848.088C352.977 846.168 351.857 844.968 350.065 844.968ZM358.958 844.968C356.638 844.968 354.814 846.76 354.814 849.064C354.814 851.352 356.638 853.16 358.958 853.176C361.294 853.176 363.134 851.352 363.134 849.064C363.134 846.776 361.294 844.968 358.958 844.968ZM358.974 846.504C360.35 846.52 361.406 847.608 361.406 849.08C361.406 850.52 360.35 851.624 358.958 851.624C357.566 851.624 356.526 850.536 356.526 849.08C356.526 847.608 357.566 846.52 358.974 846.504ZM368.916 845.064C368.036 845.064 367.252 845.448 366.724 846.072V845.832C366.724 845.336 366.372 844.968 365.908 844.968C365.412 844.968 365.06 845.336 365.06 845.832V852.312C365.06 852.808 365.428 853.176 365.908 853.176C366.388 853.176 366.74 852.824 366.74 852.312V848.808C366.74 847.544 367.62 846.68 368.9 846.648C369.38 846.616 369.716 846.296 369.716 845.832C369.716 845.384 369.38 845.064 368.916 845.064ZM374.456 844.968C372.168 844.968 370.408 846.76 370.408 849.08C370.408 851.432 372.2 853.176 374.632 853.176C375.608 853.176 376.488 852.888 377.24 852.328C377.544 852.104 377.656 851.912 377.656 851.624C377.656 851.224 377.352 850.92 376.952 850.92C376.808 850.92 376.664 850.984 376.52 851.08C375.992 851.48 375.352 851.688 374.68 851.688C373.288 851.688 372.344 850.888 372.12 849.624H377.144C377.736 849.624 378.104 849.272 378.104 848.696V848.616C378.104 846.504 376.552 844.968 374.456 844.968ZM374.408 846.392C375.592 846.392 376.392 847.176 376.424 848.312H372.152C372.408 847.16 373.272 846.392 374.408 846.392Z" fill="#1469B8"/>
<rect x="27" y="806" width="360" height="64" rx="5" fill="#0A345A"/>
<path d="M155.336 845.288C157.784 845.288 160.064 844.256 161.456 842.552C161.816 842.12 161.96 841.736 161.96 841.352C161.96 840.56 161.312 839.888 160.472 839.888C159.992 839.888 159.584 840.104 159.2 840.512C158.144 841.712 156.872 842.288 155.36 842.288C152.384 842.288 150.248 840.128 150.248 837.104C150.248 834.056 152.384 831.872 155.36 831.872C156.896 831.872 158.192 832.448 159.224 833.648C159.584 834.056 160.016 834.272 160.472 834.272C161.312 834.272 161.984 833.6 161.984 832.808C161.984 832.376 161.816 831.992 161.48 831.608C160.064 829.904 157.784 828.872 155.36 828.872C150.608 828.872 146.912 832.472 146.912 837.08C146.912 841.688 150.584 845.288 155.336 845.288ZM172.468 828.872C167.764 828.872 164.068 832.472 164.068 837.08C164.068 841.688 167.74 845.288 172.468 845.288C177.196 845.288 180.916 841.664 180.916 837.08C180.916 832.496 177.196 828.872 172.468 828.872ZM172.492 831.872C175.444 831.872 177.58 834.056 177.58 837.08C177.58 840.104 175.444 842.288 172.492 842.288C169.516 842.288 167.404 840.128 167.404 837.08C167.404 834.032 169.516 831.872 172.492 831.872ZM195.516 828.872C194.58 828.872 193.884 829.592 193.884 830.528L193.908 838.928L186.876 829.928C186.396 829.328 186.036 828.872 185.22 828.872C184.332 828.872 183.636 829.592 183.636 830.504V843.632C183.636 844.568 184.332 845.288 185.268 845.288C186.18 845.288 186.876 844.568 186.876 843.632V835.232L193.932 844.304C194.364 844.832 194.748 845.288 195.54 845.288C196.452 845.288 197.124 844.568 197.124 843.656V830.528C197.124 829.592 196.428 828.872 195.516 828.872ZM205.93 845.288C206.866 845.288 207.562 844.568 207.562 843.632V832.088H211.33C212.17 832.088 212.818 831.44 212.818 830.624C212.818 829.784 212.194 829.16 211.33 829.16H200.554C199.714 829.16 199.066 829.784 199.066 830.624C199.066 831.44 199.714 832.088 200.554 832.088H204.322V843.632C204.322 844.568 205.018 845.288 205.93 845.288ZM216.393 845.288C217.329 845.288 218.001 844.568 218.001 843.632V830.528C218.001 829.592 217.329 828.872 216.393 828.872C215.433 828.872 214.761 829.592 214.761 830.528V843.632C214.761 844.568 215.433 845.288 216.393 845.288ZM233.485 828.872C232.549 828.872 231.853 829.592 231.853 830.528L231.877 838.928L224.845 829.928C224.365 829.328 224.005 828.872 223.189 828.872C222.301 828.872 221.605 829.592 221.605 830.504V843.632C221.605 844.568 222.301 845.288 223.237 845.288C224.149 845.288 224.845 844.568 224.845 843.632V835.232L231.901 844.304C232.333 844.832 232.717 845.288 233.509 845.288C234.421 845.288 235.093 844.568 235.093 843.656V830.528C235.093 829.592 234.397 828.872 233.485 828.872ZM245.291 845.288C249.299 845.288 252.011 842.528 252.011 838.448V830.528C252.011 829.592 251.315 828.872 250.403 828.872C249.467 828.872 248.771 829.592 248.771 830.528V838.688C248.771 840.896 247.427 842.288 245.291 842.288C243.155 842.288 241.811 840.896 241.811 838.688V830.528C241.811 829.592 241.115 828.872 240.203 828.872C239.267 828.872 238.571 829.592 238.571 830.528V838.448C238.571 842.528 241.283 845.288 245.291 845.288ZM257.103 845H265.143C265.983 845 266.631 844.376 266.631 843.536C266.631 842.72 266.007 842.072 265.143 842.072H258.735V838.064H262.935C263.751 838.064 264.351 837.464 264.351 836.696C264.351 835.904 263.751 835.304 262.935 835.304H258.735V832.088H264.855C265.695 832.088 266.343 831.44 266.343 830.624C266.343 829.784 265.719 829.16 264.855 829.16H257.103C256.191 829.16 255.495 829.856 255.495 830.768V843.392C255.495 844.304 256.191 845 257.103 845Z" fill="white"/>
<path d="M119 0H295V25C295 38.8071 283.807 50 270 50H144C130.193 50 119 38.8071 119 25V0Z" fill="#479CEB"/>
<rect width="414" height="896" rx="50" stroke="#479CEB" stroke-width="30"/>
<g opacity="0.5">
<path d="M309.304 65.9066C309.176 65.7146 309.128 65.6346 309.336 65.5386C311.704 64.4346 312.824 59.2986 310.056 58.1146C308.84 57.6026 306.104 59.6666 305.624 61.1066C305.56 61.5706 304.936 58.9626 304.632 58.5466C304.104 57.7146 303.336 57.2666 303.016 57.2346C302.872 57.2026 302.808 57.2346 302.824 57.4106C302.6 58.1466 302.328 69.2826 302.616 70.9306C302.68 71.6986 302.568 73.5866 303.288 73.7146C303.304 73.6186 303.32 73.5386 303.368 73.4426C303.496 73.4426 303.592 73.4746 303.704 73.4586C304.744 73.2986 305.672 68.6106 305.672 67.4586C305.672 66.8826 306.04 67.4746 306.584 67.9386C307.752 68.9146 310.664 71.9066 311.448 72.1146C312.536 72.4026 313.656 71.7466 313.944 71.0586C313.8 71.3626 312.344 70.5946 309.304 65.9066ZM305.672 64.0026C305.768 60.8506 308.648 59.0586 308.808 60.3866C309.224 63.8906 306.744 65.9066 305.96 66.2906C305.624 66.5626 305.656 64.4666 305.672 64.0026ZM316.657 68.9146C315.521 69.4426 315.329 67.8906 315.329 67.1226C315.361 67.0106 315.297 66.7066 315.425 66.6746C316.353 66.4986 317.729 65.0586 317.441 62.7866C317.345 62.0506 316.817 61.7786 316.225 61.7786C314.881 61.7786 313.601 63.7146 313.329 64.8666C312.897 66.6426 313.457 70.3226 315.793 70.3226C316.321 70.3226 317.681 69.1386 318.225 68.3386C318.609 67.8426 319.409 66.4826 319.393 65.9066C319.473 65.7146 319.217 65.3626 319.105 65.8746C318.817 66.9626 317.937 68.3226 316.657 68.9146ZM315.889 62.5146C316.625 62.4826 316.481 64.0986 316.497 64.2906C316.529 64.8506 316.417 65.8906 315.329 66.3546C315.297 65.5066 315.217 62.5466 315.889 62.5146ZM321.8 68.0666C321.512 68.1946 321.16 67.3786 321.032 67.0746C320.552 65.9066 319.864 64.5306 320.456 64.0826C320.792 63.8266 321.928 62.4026 322.248 61.8906C322.44 61.5226 321.88 60.9786 321.512 60.7386C320.408 61.2346 319.448 62.7066 319.08 63.8266C318.472 65.8106 319.56 68.5306 319.624 69.4266C319.608 69.4906 318.584 70.9306 318.472 71.4746C318.168 72.9146 320.36 72.7866 321.24 72.3066C322.056 71.7146 322.184 69.8266 322.008 69.2826C321.896 68.6906 321.656 68.6106 321.976 68.3706C322.616 67.8906 323.528 67.1866 323.816 65.8586C323.816 65.8106 323.8 65.7466 323.768 65.6986C323.752 65.6826 323.704 65.6666 323.64 65.6826C323.512 65.7466 323.528 65.7626 323.464 65.9066C323.272 66.5306 322.824 67.4266 321.8 68.0666ZM319.56 70.1466C319.64 70.6106 319.512 71.0426 319.432 71.5066C319.4 71.7306 319.128 71.7626 318.68 71.7626C318.776 71.1386 319.064 70.6746 319.56 70.1466ZM320.024 63.7946C319.976 63.3626 320.888 62.1626 321.112 61.8906C321.32 61.6346 321.512 61.4106 321.768 61.4906C321.592 62.1626 320.44 63.3786 320.024 63.7946ZM329.439 65.8426C329.263 66.5306 329.103 67.1546 328.911 67.7626C328.639 68.4986 327.807 69.7786 326.751 69.7306C326.511 69.7306 325.423 69.2186 325.727 66.0026C325.775 65.6346 325.855 65.2186 325.967 64.8346C326.079 64.3546 326.927 61.8586 327.503 62.2586C327.679 62.4186 327.679 62.9946 327.599 63.2346C327.295 64.2106 326.431 66.2586 327.215 66.1626C327.407 66.1306 327.695 65.7786 327.711 65.5546C327.727 65.4586 327.759 65.4266 327.791 65.3466C327.983 64.8346 328.191 62.9786 328.127 62.3546C328.079 61.9386 327.951 61.6826 327.615 61.4586C326.575 60.8186 325.295 61.1226 324.575 62.3386C323.247 64.5466 322.831 67.1386 323.583 68.6586C323.871 69.2026 324.623 69.8586 325.215 70.2106C325.615 70.4506 326.031 70.5306 326.543 70.5946C328.671 70.7866 329.775 67.0586 329.807 65.6986C329.871 65.3946 329.535 65.4906 329.439 65.8426ZM331.504 69.0106C331.488 67.3146 331.568 64.3546 331.632 62.6266C331.648 62.5626 331.616 62.5466 331.616 62.4666C331.52 62.0506 330.144 61.3146 329.824 61.2026C329.184 62.9306 329.104 66.9306 329.712 68.6586C330.224 69.2346 330.96 69.8426 331.68 69.6346C332.224 69.5066 332.752 69.2186 333.36 68.2106C333.808 67.1706 333.072 69.8266 334.224 70.5626C335.68 71.4906 336.384 68.0986 337.072 65.8426C337.104 65.5706 336.928 65.6346 336.912 65.6026C336.784 65.6506 336.784 65.5706 336.704 65.7946C336.656 66.1466 335.664 69.5866 335.184 69.9066C335.104 69.9546 334.896 69.8426 334.864 69.7306C334.736 68.8986 334.944 66.9946 335.04 66.1626C335.056 65.8586 335.136 63.4266 335.168 63.3146C335.296 62.8026 333.952 62.9786 333.92 63.6826C333.76 64.4826 333.488 67.1226 333.232 67.8426C332.96 68.5466 331.68 69.8106 331.504 69.0106ZM339.986 68.9146C338.85 69.4426 338.658 67.8906 338.658 67.1226C338.69 67.0106 338.626 66.7066 338.754 66.6746C339.682 66.4986 341.058 65.0586 340.77 62.7866C340.674 62.0506 340.146 61.7786 339.554 61.7786C338.21 61.7786 336.93 63.7146 336.658 64.8666C336.226 66.6426 336.786 70.3226 339.122 70.3226C339.65 70.3226 341.01 69.1386 341.554 68.3386C341.938 67.8426 342.738 66.4826 342.722 65.9066C342.802 65.7146 342.546 65.3626 342.434 65.8746C342.146 66.9626 341.266 68.3226 339.986 68.9146ZM339.218 62.5146C339.954 62.4826 339.81 64.0986 339.826 64.2906C339.858 64.8506 339.746 65.8906 338.658 66.3546C338.626 65.5066 338.546 62.5466 339.218 62.5146ZM346.44 57.2986C342.2 60.3866 340.776 69.7466 345.048 71.9226C346.024 72.2106 346.92 72.1146 347.704 71.3466C347.736 71.2986 347.784 71.2506 347.832 71.2186C348.76 71.0266 349.96 68.0986 349.944 66.7386C350.072 66.1466 347.976 65.2186 348.184 66.3386C348.68 67.1226 348.328 70.4026 347.352 70.5626C347.256 70.7066 347.192 70.7066 347.064 70.6106C345.688 69.2986 345.432 64.2746 345.848 62.6106C345.912 62.4186 345.944 62.4026 346.12 62.4506C346.28 62.5306 346.808 62.5306 346.968 62.4826C347.784 62.8666 350.84 58.4186 349.72 58.2586C349.208 57.7466 346.968 56.8986 346.44 57.2986ZM345.976 62.0986C345.976 62.0506 345.976 62.0186 345.976 61.9706C346.008 61.6666 346.744 59.0426 347 58.6746C350.248 58.0026 346.856 62.0666 346.056 62.1146C346.04 62.0986 346.024 62.0986 345.976 62.0986ZM354.674 67.4426C354.994 67.2986 358.114 66.1786 358.002 66.5786C358.082 67.1546 358.13 70.4666 358.514 71.6666C358.578 71.8426 358.674 71.9386 358.834 72.0026C359.266 72.1146 359.73 72.7226 359.97 72.2266C359.506 70.3546 359.282 68.3386 359.09 66.2906C359.058 66.0506 359.01 66.0826 359.25 65.9706C359.618 65.7946 359.922 65.6666 360.258 65.4906C360.594 65.3146 360.642 65.0746 360.658 64.7706C360.674 64.5786 360.546 64.5146 360.354 64.6266C359.97 64.8186 359.618 64.9946 359.106 65.1066C358.914 65.1546 358.834 65.0906 358.85 64.8666C358.738 63.5706 358.53 60.5146 358.13 58.9946C358.13 58.8346 358.114 58.7066 358.21 58.5626C358.274 58.5626 358.37 58.5466 358.418 58.5146C358.562 58.4346 358.658 58.3226 358.658 58.1786C358.658 58.0346 358.514 57.9706 358.418 57.9226C357.954 57.8266 356.69 57.4106 356.226 57.4106C352.626 57.4106 351.714 68.5306 351.17 71.1546C351.138 71.7626 350.354 71.2666 351.058 71.8106C351.682 72.2906 351.842 72.4026 352.514 72.8506C353.17 73.2826 354.226 68.8506 354.37 67.7306C354.386 67.6026 354.466 67.4906 354.674 67.4426ZM357.794 59.0586C357.602 60.0826 357.81 64.2586 357.906 65.1386C357.922 65.2346 357.938 65.4586 357.778 65.5066C357.25 65.7786 355.538 66.0666 355.01 66.2106C354.882 66.2426 354.738 66.3866 354.738 66.1146C354.77 65.9866 354.834 65.5866 354.882 65.4266C355.042 64.8506 356.53 59.1386 357.794 59.0586ZM363.897 71.3626C363.401 71.3626 363.449 71.4426 363.417 70.7706C363.273 68.0986 364.921 58.3386 364.089 57.3786C363.961 57.3466 363.833 57.3306 363.689 57.3306C363.337 57.2986 361.993 59.2026 361.625 59.3146C361.449 59.3626 361.417 59.4266 361.433 59.6186C361.193 60.5626 361.225 72.0186 361.193 72.3226C361.209 72.4666 361.801 73.6666 361.961 73.6666C362.137 73.9386 368.841 71.5546 369.337 71.7306C369.561 71.7946 369.689 71.6186 369.817 71.5226C369.833 71.5066 369.849 71.4586 369.849 71.4266C369.865 71.2826 369.689 71.0426 369.545 71.0106C368.745 70.9626 364.857 71.2826 363.897 71.3626ZM369.678 71.3626C369.182 71.3626 369.23 71.4426 369.198 70.7706C369.054 68.0986 370.702 58.3386 369.87 57.3786C369.742 57.3466 369.614 57.3306 369.47 57.3306C369.118 57.2986 367.774 59.2026 367.406 59.3146C367.23 59.3626 367.198 59.4266 367.214 59.6186C366.974 60.5626 367.006 72.0186 366.974 72.3226C366.99 72.4666 367.582 73.6666 367.742 73.6666C367.918 73.9386 374.622 71.5546 375.118 71.7306C375.342 71.7946 375.47 71.6186 375.598 71.5226C375.614 71.5066 375.63 71.4586 375.63 71.4266C375.646 71.2826 375.47 71.0426 375.326 71.0106C374.526 70.9626 370.638 71.2826 369.678 71.3626Z" fill="#0A345A"/>
<path d="M276.644 71.7752L278.225 71.1679L276.403 66.4245L274.822 67.0319L276.644 71.7752ZM279.623 72.4453L281.205 71.8379L278.168 63.9323L276.586 64.5397L279.623 72.4453ZM292.214 60.3506L294.037 65.0939L295.618 64.4865L293.796 59.7432L292.214 60.3506ZM292.272 67.5861L293.853 66.9787L290.816 59.0731L289.235 59.6805L292.272 67.5861ZM286.044 57.2776L278.929 60.0108C278.273 60.2629 277.947 60.9961 278.199 61.6522L282.754 73.5106C283.006 74.1667 283.74 74.4929 284.396 74.2409L291.511 71.5076C292.167 71.2555 292.493 70.5224 292.241 69.8662L287.686 58.0078C287.433 57.3517 286.7 57.0255 286.044 57.2776ZM290.508 70.0783L284.184 72.5079L279.932 61.4401L286.256 59.0105L290.508 70.0783Z" fill="#1469B8"/>
</g>
</g>
<defs>
<clipPath id="clip0">
<rect width="414" height="896" rx="50" fill="white"/>
</clipPath>
</defs>
</svg>
