<svg width="253" height="53" viewBox="0 0 253 53" fill="none" xmlns="http://www.w3.org/2000/svg">
<path d="M87.16 27.1703C86.84 26.6903 86.72 26.4903 87.24 26.2503C93.16 23.4903 95.96 10.6503 89.04 7.6903C86 6.4103 79.16 11.5703 77.96 15.1703C77.8 16.3303 76.24 9.8103 75.48 8.7703C74.16 6.6903 72.24 5.5703 71.44 5.4903C71.08 5.4103 70.92 5.4903 70.96 5.9303C70.4 7.7703 69.72 35.6103 70.44 39.7303C70.6 41.6503 70.32 46.3703 72.12 46.6903C72.16 46.4503 72.2 46.2503 72.32 46.0103C72.64 46.0103 72.88 46.0903 73.16 46.0503C75.76 45.6503 78.08 33.9303 78.08 31.0503C78.08 29.6103 79 31.0903 80.36 32.2503C83.28 34.6903 90.56 42.1703 92.52 42.6903C95.24 43.4103 98.04 41.7703 98.76 40.0503C98.4 40.8103 94.76 38.8903 87.16 27.1703ZM78.08 22.4103C78.32 14.5303 85.52 10.0503 85.92 13.3703C86.96 22.1303 80.76 27.1703 78.8 28.1303C77.96 28.8103 78.04 23.5703 78.08 22.4103ZM105.544 34.6903C102.704 36.0103 102.224 32.1303 102.224 30.2103C102.304 29.9303 102.144 29.1703 102.464 29.0903C104.784 28.6503 108.224 25.0503 107.504 19.3703C107.264 17.5303 105.944 16.8503 104.464 16.8503C101.104 16.8503 97.9038 21.6903 97.2237 24.5703C96.1437 29.0103 97.5438 38.2103 103.384 38.2103C104.704 38.2103 108.104 35.2503 109.464 33.2503C110.424 32.0103 112.424 28.6103 112.384 27.1703C112.584 26.6903 111.944 25.8103 111.664 27.0903C110.944 29.8103 108.744 33.2103 105.544 34.6903ZM103.624 18.6903C105.464 18.6103 105.104 22.6503 105.144 23.1303C105.224 24.5303 104.944 27.1303 102.224 28.2903C102.144 26.1703 101.944 18.7703 103.624 18.6903ZM118.401 32.5703C117.681 32.8903 116.801 30.8503 116.481 30.0903C115.281 27.1703 113.561 23.7303 115.041 22.6103C115.881 21.9703 118.721 18.4103 119.521 17.1303C120.001 16.2103 118.601 14.8503 117.681 14.2503C114.921 15.4903 112.521 19.1703 111.601 21.9703C110.081 26.9303 112.801 33.7303 112.961 35.9703C112.921 36.1303 110.361 39.7303 110.081 41.0903C109.321 44.6903 114.801 44.3703 117.001 43.1703C119.041 41.6903 119.361 36.9703 118.921 35.6103C118.641 34.1303 118.041 33.9303 118.841 33.3303C120.441 32.1303 122.721 30.3703 123.441 27.0503C123.441 26.9303 123.401 26.7703 123.321 26.6503C123.281 26.6103 123.161 26.5703 123.001 26.6103C122.681 26.7703 122.721 26.8103 122.561 27.1703C122.081 28.7303 120.961 30.9703 118.401 32.5703ZM112.801 37.7703C113.001 38.9303 112.681 40.0103 112.481 41.1703C112.401 41.7303 111.721 41.8103 110.601 41.8103C110.841 40.2503 111.561 39.0903 112.801 37.7703ZM113.961 21.8903C113.841 20.8103 116.121 17.8103 116.681 17.1303C117.201 16.4903 117.681 15.9303 118.321 16.1303C117.881 17.8103 115.001 20.8503 113.961 21.8903ZM137.498 27.0103C137.058 28.7303 136.658 30.2903 136.178 31.8103C135.498 33.6503 133.418 36.8503 130.778 36.7303C130.178 36.7303 127.458 35.4503 128.218 27.4103C128.338 26.4903 128.538 25.4503 128.818 24.4903C129.098 23.2903 131.218 17.0503 132.658 18.0503C133.098 18.4503 133.098 19.8903 132.898 20.4903C132.138 22.9303 129.978 28.0503 131.938 27.8103C132.418 27.7303 133.138 26.8503 133.178 26.2903C133.218 26.0503 133.298 25.9703 133.378 25.7703C133.858 24.4903 134.378 19.8503 134.218 18.2903C134.098 17.2503 133.778 16.6103 132.938 16.0503C130.338 14.4503 127.138 15.2103 125.338 18.2503C122.018 23.7703 120.978 30.2503 122.858 34.0503C123.578 35.4103 125.458 37.0503 126.938 37.9303C127.938 38.5303 128.978 38.7303 130.258 38.8903C135.578 39.3703 138.338 30.0503 138.418 26.6503C138.578 25.8903 137.738 26.1303 137.498 27.0103ZM142.659 34.9303C142.619 30.6903 142.819 23.2903 142.979 18.9703C143.019 18.8103 142.939 18.7703 142.939 18.5703C142.699 17.5303 139.259 15.6903 138.459 15.4103C136.859 19.7303 136.659 29.7303 138.179 34.0503C139.459 35.4903 141.299 37.0103 143.099 36.4903C144.459 36.1703 145.779 35.4503 147.299 32.9303C148.419 30.3303 146.579 36.9703 149.459 38.8103C153.099 41.1303 154.859 32.6503 156.579 27.0103C156.659 26.3303 156.219 26.4903 156.179 26.4103C155.859 26.5303 155.859 26.3303 155.659 26.8903C155.539 27.7703 153.059 36.3703 151.859 37.1703C151.659 37.2903 151.139 37.0103 151.059 36.7303C150.739 34.6503 151.259 29.8903 151.499 27.8103C151.539 27.0503 151.739 20.9703 151.819 20.6903C152.139 19.4103 148.779 19.8503 148.699 21.6103C148.299 23.6103 147.619 30.2103 146.979 32.0103C146.299 33.7703 143.099 36.9303 142.659 34.9303ZM163.864 34.6903C161.024 36.0103 160.544 32.1303 160.544 30.2103C160.624 29.9303 160.464 29.1703 160.784 29.0903C163.104 28.6503 166.544 25.0503 165.824 19.3703C165.584 17.5303 164.264 16.8503 162.784 16.8503C159.424 16.8503 156.224 21.6903 155.544 24.5703C154.464 29.0103 155.864 38.2103 161.704 38.2103C163.024 38.2103 166.424 35.2503 167.784 33.2503C168.744 32.0103 170.744 28.6103 170.704 27.1703C170.904 26.6903 170.264 25.8103 169.984 27.0903C169.264 29.8103 167.064 33.2103 163.864 34.6903ZM161.944 18.6903C163.784 18.6103 163.424 22.6503 163.464 23.1303C163.544 24.5303 163.264 27.1303 160.544 28.2903C160.464 26.1703 160.264 18.7703 161.944 18.6903ZM180.001 5.6503C169.401 13.3703 165.841 36.7703 176.521 42.2103C178.961 42.9303 181.201 42.6903 183.161 40.7703C183.241 40.6503 183.361 40.5303 183.481 40.4503C185.801 39.9703 188.801 32.6503 188.761 29.2503C189.081 27.7703 183.841 25.4503 184.361 28.2503C185.601 30.2103 184.721 38.4103 182.281 38.8103C182.041 39.1703 181.881 39.1703 181.561 38.9303C178.121 35.6503 177.481 23.0903 178.521 18.9303C178.681 18.4503 178.761 18.4103 179.201 18.5303C179.601 18.7303 180.921 18.7303 181.321 18.6103C183.361 19.5703 191.001 8.4503 188.201 8.0503C186.921 6.7703 181.321 4.6503 180.001 5.6503ZM178.841 17.6503C178.841 17.5303 178.841 17.4503 178.841 17.3303C178.921 16.5703 180.761 10.0103 181.401 9.0903C189.521 7.4103 181.041 17.5703 179.041 17.6903C179.001 17.6503 178.961 17.6503 178.841 17.6503ZM200.586 31.0103C201.386 30.6503 209.186 27.8503 208.906 28.8503C209.106 30.2903 209.226 38.5703 210.186 41.5703C210.346 42.0103 210.586 42.2503 210.986 42.4103C212.066 42.6903 213.226 44.2103 213.826 42.9703C212.666 38.2903 212.106 33.2503 211.626 28.1303C211.546 27.5303 211.426 27.6103 212.026 27.3303C212.946 26.8903 213.706 26.5703 214.546 26.1303C215.386 25.6903 215.506 25.0903 215.546 24.3303C215.586 23.8503 215.266 23.6903 214.786 23.9703C213.826 24.4503 212.946 24.8903 211.666 25.1703C211.186 25.2903 210.986 25.1303 211.026 24.5703C210.746 21.3303 210.226 13.6903 209.226 9.8903C209.226 9.4903 209.186 9.1703 209.426 8.8103C209.586 8.8103 209.826 8.7703 209.946 8.6903C210.306 8.4903 210.546 8.2103 210.546 7.8503C210.546 7.4903 210.186 7.3303 209.946 7.2103C208.786 6.9703 205.626 5.9303 204.466 5.9303C195.466 5.9303 193.186 33.7303 191.826 40.2903C191.746 41.8103 189.786 40.5703 191.546 41.9303C193.106 43.1303 193.506 43.4103 195.186 44.5303C196.826 45.6103 199.466 34.5303 199.826 31.7303C199.866 31.4103 200.066 31.1303 200.586 31.0103ZM208.386 10.0503C207.906 12.6103 208.426 23.0503 208.666 25.2503C208.706 25.4903 208.746 26.0503 208.346 26.1703C207.026 26.8503 202.746 27.5703 201.426 27.9303C201.106 28.0103 200.746 28.3703 200.746 27.6903C200.826 27.3703 200.986 26.3703 201.106 25.9703C201.506 24.5303 205.226 10.2503 208.386 10.0503ZM223.643 40.8103C222.403 40.8103 222.523 41.0103 222.442 39.3303C222.083 32.6503 226.203 8.2503 224.123 5.8503C223.803 5.7703 223.483 5.7303 223.123 5.7303C222.243 5.6503 218.883 10.4103 217.963 10.6903C217.523 10.8103 217.443 10.9703 217.483 11.4503C216.883 13.8103 216.963 42.4503 216.883 43.2103C216.923 43.5703 218.403 46.5703 218.803 46.5703C219.243 47.2503 236.003 41.2903 237.243 41.7303C237.803 41.8903 238.123 41.4503 238.443 41.2103C238.483 41.1703 238.523 41.0503 238.523 40.9703C238.563 40.6103 238.123 40.0103 237.763 39.9303C235.763 39.8103 226.043 40.6103 223.643 40.8103ZM238.096 40.8103C236.856 40.8103 236.976 41.0103 236.896 39.3303C236.536 32.6503 240.656 8.2503 238.576 5.8503C238.256 5.7703 237.936 5.7303 237.576 5.7303C236.696 5.6503 233.336 10.4103 232.416 10.6903C231.976 10.8103 231.896 10.9703 231.936 11.4503C231.336 13.8103 231.416 42.4503 231.336 43.2103C231.376 43.5703 232.856 46.5703 233.256 46.5703C233.696 47.2503 250.456 41.2903 251.696 41.7303C252.256 41.8903 252.576 41.4503 252.896 41.2103C252.936 41.1703 252.976 41.0503 252.976 40.9703C253.016 40.6103 252.576 40.0103 252.216 39.9303C250.216 39.8103 240.496 40.6103 238.096 40.8103Z" fill="#ffffff"/>
<path d="M8.96516 41.2675L12.8547 39.7733L8.37212 28.1047L4.48258 29.5989L8.96516 41.2675ZM16.2937 42.9158L20.1832 41.4216L12.7122 21.9739L8.82269 23.4681L16.2937 42.9158ZM47.2675 13.1628L51.7501 24.8314L55.6396 23.3372L51.157 11.6686L47.2675 13.1628ZM47.41 30.9622L51.2995 29.468L43.8285 10.0203L39.939 11.5145L47.41 30.9622ZM32.0887 5.6032L14.5858 12.3271C12.9716 12.9472 12.1692 14.7507 12.7893 16.3649L23.9957 45.5364C24.6158 47.1505 26.4193 47.953 28.0335 47.3329L45.5364 40.609C47.1506 39.9889 47.953 38.1854 47.3329 36.5712L36.1265 7.39971C35.5064 5.78555 33.7028 4.98311 32.0887 5.6032ZM43.0698 37.093L27.5117 43.0698L17.0523 15.8431L32.6105 9.86628L43.0698 37.093Z" fill="#1469B8"/>
</svg>
