<svg width="61" height="53" viewBox="0 0 61 53" fill="none" xmlns="http://www.w3.org/2000/svg">
<path d="M8.96516 41.2674L12.8547 39.7732L8.37212 28.1046L4.48258 29.5988L8.96516 41.2674ZM16.2937 42.9156L20.1832 41.4214L12.7122 21.9738L8.82269 23.468L16.2937 42.9156ZM47.2675 13.1627L51.7501 24.8313L55.6396 23.3371L51.157 11.6685L47.2675 13.1627ZM47.41 30.9621L51.2995 29.4679L43.8285 10.0202L39.939 11.5144L47.41 30.9621ZM32.0887 5.60308L14.5858 12.3269C12.9716 12.947 12.1692 14.7506 12.7893 16.3647L23.9957 45.5363C24.6158 47.1504 26.4193 47.9529 28.0335 47.3328L45.5364 40.6089C47.1506 39.9888 47.953 38.1853 47.3329 36.5711L36.1265 7.39958C35.5064 5.78543 33.7028 4.98299 32.0887 5.60308ZM43.0698 37.0929L27.5117 43.0697L17.0523 15.8429L32.6105 9.86616L43.0698 37.0929Z" fill="#1469B8"/>
</svg>
