<svg width="50" height="101" viewBox="0 0 100 101" fill="none" xmlns="http://www.w3.org/2000/svg">
<circle cx="50" cy="50.8945" r="50" fill="#0A345A"/>
<path d="M45.1345 28.5536L21.7402 67.6085C21.2575 68.4445 21.0023 69.3923 21 70.3577C20.9977 71.323 21.2484 72.272 21.7272 73.1103C22.2059 73.9485 22.8959 74.6467 23.7285 75.1352C24.5611 75.6237 25.5072 75.8855 26.4725 75.8945H73.2425C74.2078 75.8855 75.1539 75.6237 75.9865 75.1352C76.8191 74.6467 77.5091 73.9485 77.9878 73.1103C78.4666 72.272 78.7173 71.323 78.715 70.3577C78.7127 69.3923 78.4575 68.4445 77.9748 67.6085L54.5805 28.5536C54.0882 27.7419 53.3949 27.0708 52.5676 26.605C51.7403 26.1392 50.8069 25.8945 49.8575 25.8945C48.9081 25.8945 47.9747 26.1392 47.1474 26.605C46.3201 27.0708 45.6268 27.7419 45.1345 28.5536Z" fill="white"/>
<path d="M49.8575 42.7502V53.7983V42.7502Z" fill="white"/>
<path d="M49.8575 42.7502V53.7983" stroke="#0A345A" stroke-width="5" stroke-linecap="round" stroke-linejoin="round"/>
</svg>
