<svg width="50" height="101" viewBox="0 0 100 101" fill="none" xmlns="http://www.w3.org/2000/svg">
<circle cx="50" cy="50.8945" r="50" fill="#0A345A"/>
<path d="M53.8198 38.4954C55.92 38.9052 57.8501 39.9323 59.3632 41.4454C60.8762 42.9584 61.9034 44.8886 62.3131 46.9888L53.8198 38.4954ZM53.8198 29.8945C58.1831 30.3793 62.252 32.3333 65.3583 35.4357C68.4647 38.5381 70.4238 42.6045 70.914 46.9673L53.8198 29.8945ZM68.7638 64.126V70.5766C68.7662 71.1755 68.6435 71.7682 68.4036 72.3169C68.1637 72.8656 67.8119 73.3581 67.3706 73.763C66.9293 74.1678 66.4084 74.476 65.8411 74.6679C65.2738 74.8597 64.6727 74.931 64.0763 74.8771C57.4603 74.1603 51.1047 71.9018 45.5199 68.2831C40.3246 64.9818 35.9199 60.5771 32.6186 55.3818C28.9836 49.7702 26.7221 43.381 26.0175 36.7322C25.9637 36.1376 26.0344 35.5383 26.2249 34.9725C26.4155 34.4067 26.7218 33.8868 27.1243 33.4459C27.5268 33.0049 28.0167 32.6526 28.5629 32.4114C29.109 32.1702 29.6994 32.0453 30.2964 32.0447H36.747C37.7906 32.0345 38.8022 32.404 39.5934 33.0844C40.3846 33.7649 40.9014 34.7098 41.0475 35.7431C41.3192 37.8099 41.8241 39.8393 42.5526 41.7924C42.8419 42.562 42.9045 43.3984 42.733 44.2025C42.5615 45.0066 42.1631 45.7447 41.585 46.3294L38.8542 49.053C41.9152 54.4361 46.3724 58.8933 51.7556 61.9543L54.4792 59.2235C55.0638 58.6454 55.8019 58.247 56.606 58.0755C57.4101 57.904 58.2465 57.9666 59.0161 58.2559C60.967 58.9839 62.9939 59.4888 65.0582 59.761C66.104 59.9068 67.0597 60.4322 67.743 61.2372C68.4264 62.0421 68.7897 63.0704 68.7638 64.126Z" fill="white" stroke="white" stroke-width="3" stroke-linecap="round" stroke-linejoin="round"/>
</svg>
