<svg width="50" height="101" viewBox="0 0 100 101" fill="none" xmlns="http://www.w3.org/2000/svg">
<circle cx="50" cy="50.8945" r="50" fill="#0A345A"/>
<path d="M22.9536 69.941L28.1396 67.9487L22.1628 52.3906L16.9768 54.3829L22.9536 69.941ZM32.7249 72.1387L37.9109 70.1464L27.9496 44.2162L22.7636 46.2084L32.7249 72.1387ZM74.0233 32.468L80.0001 48.0262L85.1861 46.0339L79.2094 30.4758L74.0233 32.468ZM74.2133 56.2006L79.3993 54.2083L69.438 28.2781L64.252 30.2703L74.2133 56.2006ZM53.7849 22.3886L30.4477 31.3537C28.2955 32.1805 27.2256 34.5853 28.0523 36.7375L42.9943 75.6328C43.8211 77.785 46.2258 78.855 48.378 78.0282L71.7152 69.063C73.8674 68.2362 74.9374 65.8315 74.1106 63.6793L59.1686 24.7839C58.3418 22.6317 55.9371 21.5618 53.7849 22.3886ZM68.4265 64.375L47.6823 72.3441L33.7365 36.0417L54.4806 28.0727L68.4265 64.375Z" fill="white"/>
</svg>
