<svg width="574" height="1056" viewBox="0 0 574 1056" fill="none" xmlns="http://www.w3.org/2000/svg">
<circle cx="125" cy="931" r="125" fill="url(#paint0_linear)"/>
<circle cx="449" cy="125" r="125" transform="rotate(-180 449 125)" fill="url(#paint1_linear)"/>
<rect x="62" y="68" width="450" height="920" rx="50" fill="#FAFDFE" stroke="#479CEB" stroke-width="30"/>
<path d="M199 73H375V98C375 111.807 363.807 123 350 123H224C210.193 123 199 111.807 199 98V73Z" fill="#479CEB"/>
<circle cx="142" cy="192" r="20" fill="#A3CEF5"/>
<path d="M150 186L139 197L134 192" stroke="black" stroke-width="2" stroke-linecap="round" stroke-linejoin="round"/>
<circle cx="287" cy="192" r="20" fill="#A3CEF5"/>
<path d="M290.38 196.6H284.54L287.82 193.62C289.74 191.86 290.58 190.36 290.58 188.68C290.58 186.3 288.86 184.58 286.46 184.58C284.02 184.58 282.16 186.36 282.16 188.66C282.16 189.02 282.2 189.26 282.3 189.48C282.46 189.84 282.74 190 283.04 190C283.5 190 283.8 189.68 283.8 189.24C283.8 189.14 283.78 188.96 283.78 188.74C283.78 187.18 284.9 186.02 286.44 186.02C287.92 186.02 288.96 187.12 288.96 188.7C288.96 190 288.28 191.14 286.64 192.6L282.24 196.62C282.04 196.8 281.94 196.98 281.94 197.22C281.94 197.64 282.3 198 282.72 198H290.38C290.8 198 291.12 197.68 291.12 197.3C291.12 196.9 290.8 196.6 290.38 196.6Z" fill="black"/>
<g opacity="0.3">
<circle cx="432" cy="192" r="20" fill="#808080"/>
</g>
<path d="M431.26 189.88H431.1L434.98 185.66C435.08 185.56 435.12 185.44 435.12 185.3C435.12 185.04 434.9 184.8 434.62 184.8H427.8C427.52 184.8 427.3 185 427.3 185.28C427.3 185.56 427.52 185.76 427.8 185.76H433.62L429.8 189.9C429.68 190.02 429.64 190.16 429.64 190.28C429.64 190.56 429.86 190.78 430.14 190.78H430.76C433.04 190.78 434.42 191.96 434.42 193.9C434.42 195.86 433 197.22 430.96 197.22C429.64 197.22 428.54 196.62 427.6 195.36C427.5 195.24 427.36 195.18 427.22 195.18C426.96 195.18 426.74 195.38 426.74 195.66C426.74 195.76 426.76 195.86 426.82 195.96C427.84 197.4 429.32 198.2 430.96 198.2C433.58 198.2 435.5 196.38 435.5 193.9C435.5 191.58 433.72 189.88 431.26 189.88Z" fill="black" fill-opacity="0.3"/>
<circle cx="179.5" cy="192.5" r="2.5" fill="#A3CEF5"/>
<circle cx="189.5" cy="192.5" r="2.5" fill="#A3CEF5"/>
<circle cx="199.5" cy="192.5" r="2.5" fill="#A3CEF5"/>
<circle cx="209.5" cy="192.5" r="2.5" fill="#A3CEF5"/>
<circle cx="219.5" cy="192.5" r="2.5" fill="#A3CEF5"/>
<circle cx="229.5" cy="192.5" r="2.5" fill="#A3CEF5"/>
<circle cx="239.5" cy="192.5" r="2.5" fill="#A3CEF5"/>
<circle cx="249.5" cy="192.5" r="2.5" fill="#A3CEF5"/>
<g opacity="0.5">
<circle cx="324.5" cy="192.5" r="2.5" fill="#808080"/>
<circle cx="334.5" cy="192.5" r="2.5" fill="#808080"/>
<circle cx="344.5" cy="192.5" r="2.5" fill="#808080"/>
<circle cx="354.5" cy="192.5" r="2.5" fill="#808080"/>
<circle cx="364.5" cy="192.5" r="2.5" fill="#808080"/>
<circle cx="374.5" cy="192.5" r="2.5" fill="#808080"/>
<circle cx="384.5" cy="192.5" r="2.5" fill="#808080"/>
<circle cx="394.5" cy="192.5" r="2.5" fill="#808080"/>
</g>
<rect x="112" y="591" width="150" height="100" rx="10" fill="#69048B"/>
<path d="M181.418 649.38C181.158 649.38 180.738 649.42 180.298 649.42C177.298 649.42 175.038 648.3 173.178 645.88C174.878 644.66 175.958 642.68 175.958 640.4C175.958 636.6 172.898 633.58 169.018 633.58C165.138 633.58 162.098 636.58 162.098 640.4C162.098 644.22 165.138 647.22 169.018 647.22C169.878 647.22 170.678 647.08 171.438 646.8C173.458 649.7 176.438 651.24 179.958 651.24C180.598 651.24 181.178 651.18 181.618 651.04C182.098 650.92 182.338 650.62 182.338 650.22C182.338 649.7 181.998 649.38 181.418 649.38ZM164.298 640.38C164.298 637.58 166.298 635.52 169.018 635.52C171.758 635.52 173.778 637.6 173.778 640.4C173.778 643.2 171.758 645.28 169.038 645.28C166.298 645.28 164.298 643.2 164.298 640.38ZM182.564 647.22C185.064 647.22 186.824 645.44 186.824 642.88V638.04C186.824 637.42 186.384 636.96 185.784 636.96C185.164 636.96 184.724 637.42 184.724 638.04V643.04C184.724 644.34 183.824 645.28 182.564 645.28C181.264 645.28 180.344 644.34 180.344 643.04V638.04C180.344 637.42 179.904 636.96 179.304 636.96C178.704 636.96 178.264 637.42 178.264 638.04V642.88C178.264 645.44 180.024 647.22 182.564 647.22ZM190.83 632.16C190.05 632.16 189.43 632.76 189.43 633.52C189.43 634.28 190.05 634.88 190.83 634.88C191.59 634.88 192.23 634.28 192.23 633.52C192.23 632.76 191.59 632.16 190.83 632.16ZM190.81 647.22C191.41 647.22 191.87 646.76 191.87 646.14V638.04C191.87 637.42 191.43 636.96 190.83 636.96C190.21 636.96 189.77 637.42 189.77 638.04V646.14C189.77 646.76 190.21 647.22 190.81 647.22ZM199.347 636.96C196.487 636.96 194.287 639.2 194.287 642.1C194.287 645.04 196.527 647.22 199.567 647.22C200.787 647.22 201.887 646.86 202.827 646.16C203.207 645.88 203.347 645.64 203.347 645.28C203.347 644.78 202.967 644.4 202.467 644.4C202.287 644.4 202.107 644.48 201.927 644.6C201.267 645.1 200.467 645.36 199.627 645.36C197.887 645.36 196.707 644.36 196.427 642.78H202.707C203.447 642.78 203.907 642.34 203.907 641.62V641.52C203.907 638.88 201.967 636.96 199.347 636.96ZM199.287 638.74C200.767 638.74 201.767 639.72 201.807 641.14H196.467C196.787 639.7 197.867 638.74 199.287 638.74ZM211.433 645.3C211.253 645.3 211.073 645.32 210.833 645.32C209.493 645.32 208.913 644.82 208.913 643.62V639H211.013C211.553 639 211.953 638.62 211.953 638.1C211.953 637.58 211.553 637.18 211.013 637.18H208.913V635.46C208.913 634.84 208.453 634.38 207.853 634.38C207.253 634.38 206.793 634.86 206.793 635.46V637.18H206.013C205.493 637.18 205.073 637.58 205.073 638.1C205.073 638.62 205.493 639 206.013 639H206.793V643.8C206.793 646.02 208.073 647.22 210.413 647.22C210.973 647.22 211.393 647.16 211.733 647.02C212.133 646.88 212.353 646.58 212.353 646.14C212.353 645.64 211.993 645.3 211.433 645.3Z" fill="white"/>
<rect x="312" y="591" width="150" height="100" rx="10" fill="#8B0404"/>
<path d="M339.781 647.22C340.401 647.22 340.841 646.76 340.841 646.14V641.56H345.221C345.781 641.56 346.201 641.14 346.201 640.6C346.201 640.06 345.781 639.64 345.221 639.64H340.841V635.7H346.321C346.881 635.7 347.301 635.3 347.301 634.76C347.301 634.22 346.881 633.8 346.321 633.8H339.821C339.181 633.8 338.721 634.26 338.721 634.9V646.14C338.721 646.76 339.161 647.22 339.781 647.22ZM352.962 636.96C350.102 636.96 347.902 639.2 347.902 642.1C347.902 645.04 350.142 647.22 353.182 647.22C354.402 647.22 355.502 646.86 356.442 646.16C356.822 645.88 356.962 645.64 356.962 645.28C356.962 644.78 356.582 644.4 356.082 644.4C355.902 644.4 355.722 644.48 355.542 644.6C354.882 645.1 354.082 645.36 353.242 645.36C351.502 645.36 350.322 644.36 350.042 642.78H356.322C357.062 642.78 357.522 642.34 357.522 641.62V641.52C357.522 638.88 355.582 636.96 352.962 636.96ZM352.902 638.74C354.382 638.74 355.382 639.72 355.422 641.14H350.082C350.402 639.7 351.482 638.74 352.902 638.74ZM373.598 636.96C373.198 636.96 372.838 637.2 372.678 637.58L369.958 643.78L367.538 637.72C367.358 637.24 366.998 636.96 366.538 636.96C366.098 636.96 365.738 637.24 365.538 637.72L363.138 643.78L360.418 637.58C360.258 637.2 359.898 636.96 359.478 636.96C358.918 636.96 358.458 637.42 358.458 637.98C358.458 638.14 358.498 638.3 358.558 638.46L362.118 646.58C362.298 646.98 362.638 647.22 363.058 647.22C363.478 647.22 363.818 646.98 364.018 646.6L366.558 640.48L369.078 646.6C369.258 646.98 369.618 647.22 370.018 647.22C370.458 647.22 370.798 646.98 370.978 646.58L374.538 638.46C374.598 638.3 374.638 638.14 374.638 637.98C374.638 637.42 374.158 636.96 373.598 636.96ZM395.648 636.96C395.248 636.96 394.888 637.2 394.728 637.58L392.008 643.78L389.588 637.72C389.408 637.24 389.048 636.96 388.588 636.96C388.148 636.96 387.788 637.24 387.588 637.72L385.188 643.78L382.468 637.58C382.308 637.2 381.948 636.96 381.528 636.96C380.968 636.96 380.508 637.42 380.508 637.98C380.508 638.14 380.548 638.3 380.608 638.46L384.168 646.58C384.348 646.98 384.688 647.22 385.108 647.22C385.528 647.22 385.868 646.98 386.068 646.6L388.608 640.48L391.128 646.6C391.308 646.98 391.668 647.22 392.068 647.22C392.508 647.22 392.848 646.98 393.028 646.58L396.588 638.46C396.648 638.3 396.688 638.14 396.688 637.98C396.688 637.42 396.208 636.96 395.648 636.96ZM402.809 636.96C399.909 636.96 397.629 639.2 397.629 642.08C397.629 644.94 399.909 647.2 402.809 647.22C405.729 647.22 408.029 644.94 408.029 642.08C408.029 639.22 405.729 636.96 402.809 636.96ZM402.829 638.88C404.549 638.9 405.869 640.26 405.869 642.1C405.869 643.9 404.549 645.28 402.809 645.28C401.069 645.28 399.769 643.92 399.769 642.1C399.769 640.26 401.069 638.9 402.829 638.88ZM415.256 637.08C414.156 637.08 413.176 637.56 412.516 638.34V638.04C412.516 637.42 412.076 636.96 411.496 636.96C410.876 636.96 410.436 637.42 410.436 638.04V646.14C410.436 646.76 410.896 647.22 411.496 647.22C412.096 647.22 412.536 646.78 412.536 646.14V641.76C412.536 640.18 413.636 639.1 415.236 639.06C415.836 639.02 416.256 638.62 416.256 638.04C416.256 637.48 415.836 637.08 415.256 637.08ZM426.261 631.78C425.661 631.78 425.201 632.24 425.201 632.86V638.38C424.461 637.5 423.301 636.96 421.921 636.96C419.161 636.96 417.121 639.14 417.121 642.1C417.121 645.06 419.161 647.22 421.921 647.22C423.341 647.22 424.521 646.68 425.241 645.76V646.16C425.241 646.76 425.681 647.22 426.281 647.22C426.861 647.22 427.321 646.78 427.321 646.16V632.86C427.321 632.22 426.861 631.78 426.261 631.78ZM422.281 645.3C420.521 645.3 419.261 643.94 419.261 642.08C419.261 640.24 420.541 638.88 422.281 638.88C424.041 638.88 425.241 640.2 425.241 642.1C425.241 644 424.041 645.3 422.281 645.3ZM433.398 647.22C435.358 647.22 437.038 646.2 437.038 644.22C437.038 642.78 436.138 642 434.358 641.26L433.418 640.88C432.518 640.52 432.118 640.26 432.118 639.72C432.118 639.08 432.678 638.78 433.458 638.78C434.198 638.78 434.878 639.06 435.398 639.46C435.658 639.66 435.838 639.76 436.058 639.76C436.538 639.76 436.938 639.36 436.938 638.86C436.938 638.6 436.838 638.36 436.618 638.16C435.858 637.42 434.758 636.96 433.498 636.96C431.558 636.96 430.038 637.98 430.038 639.8C430.038 641.28 431.018 642 432.598 642.66L433.598 643.08C434.398 643.4 434.978 643.66 434.978 644.3C434.978 645.04 434.258 645.4 433.398 645.4C432.458 645.4 431.718 644.96 431.098 644.38C430.878 644.18 430.658 644.1 430.438 644.1C429.918 644.1 429.498 644.52 429.498 645.02C429.498 645.3 429.598 645.52 429.798 645.7C430.638 646.6 431.878 647.22 433.398 647.22Z" fill="white"/>
<rect x="112" y="721" width="150" height="100" rx="10" fill="#8B8B04"/>
<rect opacity="0.2" x="112" y="721" width="150" height="100" rx="10" fill="#FAFDFE"/>
<path d="M207 757L179.5 784.5L167 772" stroke="#FAFDFE" stroke-width="5" stroke-linecap="square"/>
<path d="M152.09 777.22C152.69 777.22 153.15 776.76 153.15 776.14V765.7H156.73C157.29 765.7 157.71 765.3 157.71 764.76C157.71 764.22 157.29 763.8 156.73 763.8H147.47C146.91 763.8 146.49 764.22 146.49 764.76C146.49 765.3 146.91 765.7 147.47 765.7H151.03V776.14C151.03 776.76 151.49 777.22 152.09 777.22ZM161.862 766.96C160.422 766.96 159.122 767.46 158.282 768.34C158.002 768.62 157.862 768.9 157.862 769.2C157.862 769.66 158.282 770.08 158.782 770.08C159.022 770.08 159.242 769.98 159.502 769.76C160.122 769.14 160.862 768.84 161.682 768.84C163.022 768.84 163.782 769.6 163.782 770.94V771.58H161.002C158.782 771.58 157.382 772.66 157.382 774.38C157.382 776.08 158.762 777.22 160.802 777.22C162.062 777.22 163.102 776.8 163.822 776.04V776.16C163.822 776.76 164.262 777.22 164.862 777.22C165.462 777.22 165.902 776.78 165.902 776.16V771.06C165.902 768.48 164.402 766.96 161.862 766.96ZM161.242 775.6C160.202 775.6 159.522 775.1 159.522 774.3C159.522 773.52 160.122 773.1 161.262 773.1H163.782V773.28C163.782 774.58 162.662 775.6 161.242 775.6ZM169.885 777.22C170.485 777.22 170.925 776.76 170.925 776.14V762.86C170.925 762.24 170.485 761.78 169.885 761.78C169.265 761.78 168.825 762.24 168.825 762.86V776.14C168.825 776.76 169.285 777.22 169.885 777.22ZM175.021 761.78C174.421 761.78 173.961 762.24 173.961 762.86V776.14C173.961 776.76 174.421 777.22 175.021 777.22C175.621 777.22 176.061 776.78 176.061 776.14V762.86C176.061 762.22 175.621 761.78 175.021 761.78ZM182.281 775.54L178.861 771.56L181.801 768.7C182.061 768.44 182.201 768.2 182.201 767.92C182.201 767.38 181.761 766.96 181.201 766.96C180.921 766.96 180.641 767.08 180.441 767.28L176.901 770.8C176.661 771.06 176.561 771.3 176.561 771.58C176.561 771.82 176.661 772.06 176.881 772.34L180.741 776.8C181.001 777.1 181.241 777.22 181.581 777.22C182.121 777.22 182.561 776.8 182.561 776.24C182.561 775.98 182.481 775.76 182.281 775.54ZM188.19 766.96C186.75 766.96 185.45 767.46 184.61 768.34C184.33 768.62 184.19 768.9 184.19 769.2C184.19 769.66 184.61 770.08 185.11 770.08C185.35 770.08 185.57 769.98 185.83 769.76C186.45 769.14 187.19 768.84 188.01 768.84C189.35 768.84 190.11 769.6 190.11 770.94V771.58H187.33C185.11 771.58 183.71 772.66 183.71 774.38C183.71 776.08 185.09 777.22 187.13 777.22C188.39 777.22 189.43 776.8 190.15 776.04V776.16C190.15 776.76 190.59 777.22 191.19 777.22C191.79 777.22 192.23 776.78 192.23 776.16V771.06C192.23 768.48 190.73 766.96 188.19 766.96ZM187.57 775.6C186.53 775.6 185.85 775.1 185.85 774.3C185.85 773.52 186.45 773.1 187.59 773.1H190.11V773.28C190.11 774.58 188.99 775.6 187.57 775.6ZM200.273 775.3C200.093 775.3 199.913 775.32 199.673 775.32C198.333 775.32 197.753 774.82 197.753 773.62V769H199.853C200.393 769 200.793 768.62 200.793 768.1C200.793 767.58 200.393 767.18 199.853 767.18H197.753V765.46C197.753 764.84 197.293 764.38 196.693 764.38C196.093 764.38 195.633 764.86 195.633 765.46V767.18H194.853C194.333 767.18 193.913 767.58 193.913 768.1C193.913 768.62 194.333 769 194.853 769H195.633V773.8C195.633 776.02 196.913 777.22 199.253 777.22C199.813 777.22 200.233 777.16 200.573 777.02C200.973 776.88 201.193 776.58 201.193 776.14C201.193 775.64 200.833 775.3 200.273 775.3ZM204.182 762.16C203.402 762.16 202.782 762.76 202.782 763.52C202.782 764.28 203.402 764.88 204.182 764.88C204.942 764.88 205.582 764.28 205.582 763.52C205.582 762.76 204.942 762.16 204.182 762.16ZM204.162 777.22C204.762 777.22 205.222 776.76 205.222 776.14V768.04C205.222 767.42 204.782 766.96 204.182 766.96C203.562 766.96 203.122 767.42 203.122 768.04V776.14C203.122 776.76 203.562 777.22 204.162 777.22ZM216.218 766.96C215.798 766.96 215.458 767.18 215.258 767.58L212.238 773.98L209.198 767.58C208.998 767.18 208.658 766.96 208.238 766.96C207.678 766.96 207.218 767.44 207.218 767.98C207.218 768.16 207.258 768.32 207.358 768.52L211.258 776.58C211.458 776.98 211.818 777.22 212.238 777.22C212.638 777.22 212.998 776.98 213.198 776.58L217.118 768.52C217.198 768.32 217.238 768.16 217.238 767.98C217.238 767.44 216.778 766.96 216.218 766.96ZM223.284 766.96C220.424 766.96 218.224 769.2 218.224 772.1C218.224 775.04 220.464 777.22 223.504 777.22C224.724 777.22 225.824 776.86 226.764 776.16C227.144 775.88 227.284 775.64 227.284 775.28C227.284 774.78 226.904 774.4 226.404 774.4C226.224 774.4 226.044 774.48 225.864 774.6C225.204 775.1 224.404 775.36 223.564 775.36C221.824 775.36 220.644 774.36 220.364 772.78H226.644C227.384 772.78 227.844 772.34 227.844 771.62V771.52C227.844 768.88 225.904 766.96 223.284 766.96ZM223.224 768.74C224.704 768.74 225.704 769.72 225.744 771.14H220.404C220.724 769.7 221.804 768.74 223.224 768.74Z" fill="white"/>
<rect x="312" y="721" width="150" height="100" rx="10" fill="#808080"/>
<rect opacity="0.2" x="312" y="721" width="150" height="100" rx="10" fill="#FAFDFE"/>
<path d="M407 757L379.5 784.5L367 772" stroke="#FAFDFE" stroke-width="5" stroke-linecap="square"/>
<path d="M363.237 763.58C359.357 763.58 356.317 766.58 356.317 770.4C356.317 774.22 359.357 777.22 363.237 777.22C367.117 777.22 370.177 774.22 370.177 770.4C370.177 766.6 367.117 763.58 363.237 763.58ZM363.257 765.52C365.977 765.52 367.997 767.6 367.997 770.38C367.997 773.2 365.977 775.28 363.257 775.28C360.517 775.28 358.517 773.22 358.517 770.38C358.517 767.58 360.517 765.52 363.257 765.52ZM377.703 775.3C377.523 775.3 377.343 775.32 377.103 775.32C375.763 775.32 375.183 774.82 375.183 773.62V769H377.283C377.823 769 378.223 768.62 378.223 768.1C378.223 767.58 377.823 767.18 377.283 767.18H375.183V765.46C375.183 764.84 374.723 764.38 374.123 764.38C373.523 764.38 373.063 764.86 373.063 765.46V767.18H372.283C371.763 767.18 371.343 767.58 371.343 768.1C371.343 768.62 371.763 769 372.283 769H373.063V773.8C373.063 776.02 374.343 777.22 376.683 777.22C377.243 777.22 377.663 777.16 378.003 777.02C378.403 776.88 378.623 776.58 378.623 776.14C378.623 775.64 378.263 775.3 377.703 775.3ZM385.491 766.96C384.311 766.96 383.331 767.4 382.651 768.16V762.86C382.651 762.22 382.211 761.78 381.611 761.78C381.011 761.78 380.551 762.24 380.551 762.86V776.14C380.551 776.76 381.011 777.22 381.611 777.22C382.211 777.22 382.651 776.78 382.651 776.14V771.16C382.651 769.82 383.591 768.88 384.891 768.88C386.171 768.88 387.031 769.78 387.031 771.16V776.14C387.031 776.76 387.471 777.22 388.091 777.22C388.671 777.22 389.131 776.78 389.131 776.14V770.86C389.131 768.5 387.691 766.96 385.491 766.96ZM396.495 766.96C393.635 766.96 391.435 769.2 391.435 772.1C391.435 775.04 393.675 777.22 396.715 777.22C397.935 777.22 399.035 776.86 399.975 776.16C400.355 775.88 400.495 775.64 400.495 775.28C400.495 774.78 400.115 774.4 399.615 774.4C399.435 774.4 399.255 774.48 399.075 774.6C398.415 775.1 397.615 775.36 396.775 775.36C395.035 775.36 393.855 774.36 393.575 772.78H399.855C400.595 772.78 401.055 772.34 401.055 771.62V771.52C401.055 768.88 399.115 766.96 396.495 766.96ZM396.435 768.74C397.915 768.74 398.915 769.72 398.955 771.14H393.615C393.935 769.7 395.015 768.74 396.435 768.74ZM408.281 767.08C407.181 767.08 406.201 767.56 405.541 768.34V768.04C405.541 767.42 405.101 766.96 404.521 766.96C403.901 766.96 403.461 767.42 403.461 768.04V776.14C403.461 776.76 403.921 777.22 404.521 777.22C405.121 777.22 405.561 776.78 405.561 776.14V771.76C405.561 770.18 406.661 769.1 408.261 769.06C408.861 769.02 409.281 768.62 409.281 768.04C409.281 767.48 408.861 767.08 408.281 767.08ZM414.001 777.22C415.961 777.22 417.641 776.2 417.641 774.22C417.641 772.78 416.741 772 414.961 771.26L414.021 770.88C413.121 770.52 412.721 770.26 412.721 769.72C412.721 769.08 413.281 768.78 414.061 768.78C414.801 768.78 415.481 769.06 416.001 769.46C416.261 769.66 416.441 769.76 416.661 769.76C417.141 769.76 417.541 769.36 417.541 768.86C417.541 768.6 417.441 768.36 417.221 768.16C416.461 767.42 415.361 766.96 414.101 766.96C412.161 766.96 410.641 767.98 410.641 769.8C410.641 771.28 411.621 772 413.201 772.66L414.201 773.08C415.001 773.4 415.581 773.66 415.581 774.3C415.581 775.04 414.861 775.4 414.001 775.4C413.061 775.4 412.321 774.96 411.701 774.38C411.481 774.18 411.261 774.1 411.041 774.1C410.521 774.1 410.101 774.52 410.101 775.02C410.101 775.3 410.201 775.52 410.401 775.7C411.241 776.6 412.481 777.22 414.001 777.22Z" fill="white"/>
<rect x="112" y="331" width="150" height="100" rx="10" fill="#047F8B"/>
<rect opacity="0.2" x="112" y="331" width="150" height="100" rx="10" fill="#FAFDFE"/>
<path d="M207 367L179.5 394.5L167 382" stroke="#FAFDFE" stroke-width="5" stroke-linecap="square"/>
<path d="M158.7 387.22C161.26 387.22 163.12 385.7 163.12 383.4C163.12 381.72 162.16 380.66 159.96 379.64L158.48 378.96C157.04 378.28 156.64 377.9 156.64 377.08C156.64 376.1 157.44 375.48 158.64 375.48C159.6 375.48 160.38 375.92 161.02 376.56C161.22 376.74 161.44 376.84 161.66 376.84C162.16 376.84 162.64 376.4 162.64 375.9C162.64 375.66 162.56 375.4 162.32 375.14C161.56 374.3 160.36 373.56 158.64 373.58C156.26 373.58 154.48 375.08 154.48 377.16C154.48 378.74 155.46 379.84 157.56 380.82L159.02 381.5C160.48 382.18 160.96 382.62 160.96 383.48C160.96 384.58 160.08 385.32 158.68 385.32C157.38 385.32 156.34 384.64 155.62 383.78C155.44 383.58 155.22 383.5 154.98 383.5C154.46 383.5 154 383.9 154 384.46C154 384.72 154.12 384.98 154.32 385.2C155.34 386.44 157.06 387.22 158.7 387.22ZM179.361 376.96C178.961 376.96 178.601 377.2 178.441 377.58L175.721 383.78L173.301 377.72C173.121 377.24 172.761 376.96 172.301 376.96C171.861 376.96 171.501 377.24 171.301 377.72L168.901 383.78L166.181 377.58C166.021 377.2 165.661 376.96 165.241 376.96C164.681 376.96 164.221 377.42 164.221 377.98C164.221 378.14 164.261 378.3 164.321 378.46L167.881 386.58C168.061 386.98 168.401 387.22 168.821 387.22C169.241 387.22 169.581 386.98 169.781 386.6L172.321 380.48L174.841 386.6C175.021 386.98 175.381 387.22 175.781 387.22C176.221 387.22 176.561 386.98 176.741 386.58L180.301 378.46C180.361 378.3 180.401 378.14 180.401 377.98C180.401 377.42 179.921 376.96 179.361 376.96ZM186.401 376.96C183.541 376.96 181.341 379.2 181.341 382.1C181.341 385.04 183.581 387.22 186.621 387.22C187.841 387.22 188.941 386.86 189.881 386.16C190.261 385.88 190.401 385.64 190.401 385.28C190.401 384.78 190.021 384.4 189.521 384.4C189.341 384.4 189.161 384.48 188.981 384.6C188.321 385.1 187.521 385.36 186.681 385.36C184.941 385.36 183.761 384.36 183.481 382.78H189.761C190.501 382.78 190.961 382.34 190.961 381.62V381.52C190.961 378.88 189.021 376.96 186.401 376.96ZM186.341 378.74C187.821 378.74 188.821 379.72 188.861 381.14H183.521C183.841 379.7 184.921 378.74 186.341 378.74ZM197.128 376.96C195.688 376.96 194.388 377.46 193.548 378.34C193.268 378.62 193.128 378.9 193.128 379.2C193.128 379.66 193.548 380.08 194.048 380.08C194.288 380.08 194.508 379.98 194.768 379.76C195.388 379.14 196.128 378.84 196.948 378.84C198.288 378.84 199.048 379.6 199.048 380.94V381.58H196.268C194.048 381.58 192.648 382.66 192.648 384.38C192.648 386.08 194.028 387.22 196.068 387.22C197.328 387.22 198.368 386.8 199.088 386.04V386.16C199.088 386.76 199.528 387.22 200.128 387.22C200.728 387.22 201.168 386.78 201.168 386.16V381.06C201.168 378.48 199.668 376.96 197.128 376.96ZM196.508 385.6C195.468 385.6 194.788 385.1 194.788 384.3C194.788 383.52 195.388 383.1 196.528 383.1H199.048V383.28C199.048 384.58 197.928 385.6 196.508 385.6ZM209.21 385.3C209.03 385.3 208.85 385.32 208.61 385.32C207.27 385.32 206.69 384.82 206.69 383.62V379H208.79C209.33 379 209.73 378.62 209.73 378.1C209.73 377.58 209.33 377.18 208.79 377.18H206.69V375.46C206.69 374.84 206.23 374.38 205.63 374.38C205.03 374.38 204.57 374.86 204.57 375.46V377.18H203.79C203.27 377.18 202.85 377.58 202.85 378.1C202.85 378.62 203.27 379 203.79 379H204.57V383.8C204.57 386.02 205.85 387.22 208.19 387.22C208.75 387.22 209.17 387.16 209.51 387.02C209.91 386.88 210.13 386.58 210.13 386.14C210.13 385.64 209.77 385.3 209.21 385.3ZM220.019 376.96C219.599 376.96 219.219 377.22 219.059 377.58L216.039 384.18L213.099 377.58C212.939 377.2 212.559 376.96 212.139 376.96C211.579 376.96 211.099 377.44 211.099 377.98C211.099 378.18 211.159 378.32 211.219 378.48L214.859 386.54L214.419 387.48C213.939 388.5 213.299 388.92 212.379 388.92C212.259 388.92 212.139 388.9 211.979 388.9C211.459 388.9 211.019 389.32 211.019 389.82C211.019 390.22 211.259 390.58 211.659 390.7C211.919 390.78 212.259 390.82 212.599 390.82C214.319 390.82 215.439 389.96 216.419 387.92L220.939 378.46C221.019 378.3 221.039 378.14 221.039 377.98C221.039 377.44 220.579 376.96 220.019 376.96Z" fill="white"/>
<rect x="312" y="331" width="150" height="100" rx="10" fill="#043C8B"/>
<rect opacity="0.2" x="312" y="331" width="150" height="100" rx="10" fill="#FAFDFE"/>
<path d="M407 367L379.5 394.5L367 382" stroke="#FAFDFE" stroke-width="5" stroke-linecap="square"/>
<path d="M354.966 387.22C357.526 387.22 359.386 385.7 359.386 383.4C359.386 381.72 358.426 380.66 356.226 379.64L354.746 378.96C353.306 378.28 352.906 377.9 352.906 377.08C352.906 376.1 353.706 375.48 354.906 375.48C355.866 375.48 356.646 375.92 357.286 376.56C357.486 376.74 357.706 376.84 357.926 376.84C358.426 376.84 358.906 376.4 358.906 375.9C358.906 375.66 358.826 375.4 358.586 375.14C357.826 374.3 356.626 373.56 354.906 373.58C352.526 373.58 350.746 375.08 350.746 377.16C350.746 378.74 351.726 379.84 353.826 380.82L355.286 381.5C356.746 382.18 357.226 382.62 357.226 383.48C357.226 384.58 356.346 385.32 354.946 385.32C353.646 385.32 352.606 384.64 351.886 383.78C351.706 383.58 351.486 383.5 351.246 383.5C350.726 383.5 350.266 383.9 350.266 384.46C350.266 384.72 350.386 384.98 350.586 385.2C351.606 386.44 353.326 387.22 354.966 387.22ZM366.98 385.3C366.8 385.3 366.62 385.32 366.38 385.32C365.04 385.32 364.46 384.82 364.46 383.62V379H366.56C367.1 379 367.5 378.62 367.5 378.1C367.5 377.58 367.1 377.18 366.56 377.18H364.46V375.46C364.46 374.84 364 374.38 363.4 374.38C362.8 374.38 362.34 374.86 362.34 375.46V377.18H361.56C361.04 377.18 360.62 377.58 360.62 378.1C360.62 378.62 361.04 379 361.56 379H362.34V383.8C362.34 386.02 363.62 387.22 365.96 387.22C366.52 387.22 366.94 387.16 367.28 387.02C367.68 386.88 367.9 386.58 367.9 386.14C367.9 385.64 367.54 385.3 366.98 385.3ZM374.029 387.22C376.529 387.22 378.289 385.44 378.289 382.88V378.04C378.289 377.42 377.849 376.96 377.249 376.96C376.629 376.96 376.189 377.42 376.189 378.04V383.04C376.189 384.34 375.289 385.28 374.029 385.28C372.729 385.28 371.809 384.34 371.809 383.04V378.04C371.809 377.42 371.369 376.96 370.769 376.96C370.169 376.96 369.729 377.42 369.729 378.04V382.88C369.729 385.44 371.489 387.22 374.029 387.22ZM386.355 385.3C386.175 385.3 385.995 385.32 385.755 385.32C384.415 385.32 383.835 384.82 383.835 383.62V379H385.935C386.475 379 386.875 378.62 386.875 378.1C386.875 377.58 386.475 377.18 385.935 377.18H383.835V375.46C383.835 374.84 383.375 374.38 382.775 374.38C382.175 374.38 381.715 374.86 381.715 375.46V377.18H380.935C380.415 377.18 379.995 377.58 379.995 378.1C379.995 378.62 380.415 379 380.935 379H381.715V383.8C381.715 386.02 382.995 387.22 385.335 387.22C385.895 387.22 386.315 387.16 386.655 387.02C387.055 386.88 387.275 386.58 387.275 386.14C387.275 385.64 386.915 385.3 386.355 385.3ZM393.718 385.3C393.538 385.3 393.358 385.32 393.118 385.32C391.778 385.32 391.198 384.82 391.198 383.62V379H393.298C393.838 379 394.238 378.62 394.238 378.1C394.238 377.58 393.838 377.18 393.298 377.18H391.198V375.46C391.198 374.84 390.738 374.38 390.138 374.38C389.538 374.38 389.078 374.86 389.078 375.46V377.18H388.298C387.778 377.18 387.358 377.58 387.358 378.1C387.358 378.62 387.778 379 388.298 379H389.078V383.8C389.078 386.02 390.358 387.22 392.698 387.22C393.258 387.22 393.678 387.16 394.018 387.02C394.418 386.88 394.638 386.58 394.638 386.14C394.638 385.64 394.278 385.3 393.718 385.3ZM400.812 376.96C397.952 376.96 395.752 379.2 395.752 382.1C395.752 385.04 397.992 387.22 401.032 387.22C402.252 387.22 403.352 386.86 404.292 386.16C404.672 385.88 404.812 385.64 404.812 385.28C404.812 384.78 404.432 384.4 403.932 384.4C403.752 384.4 403.572 384.48 403.392 384.6C402.732 385.1 401.932 385.36 401.092 385.36C399.352 385.36 398.172 384.36 397.892 382.78H404.172C404.912 382.78 405.372 382.34 405.372 381.62V381.52C405.372 378.88 403.432 376.96 400.812 376.96ZM400.752 378.74C402.232 378.74 403.232 379.72 403.272 381.14H397.932C398.252 379.7 399.332 378.74 400.752 378.74ZM412.598 377.08C411.498 377.08 410.518 377.56 409.858 378.34V378.04C409.858 377.42 409.418 376.96 408.838 376.96C408.218 376.96 407.778 377.42 407.778 378.04V386.14C407.778 386.76 408.238 387.22 408.838 387.22C409.438 387.22 409.878 386.78 409.878 386.14V381.76C409.878 380.18 410.978 379.1 412.578 379.06C413.178 379.02 413.598 378.62 413.598 378.04C413.598 377.48 413.178 377.08 412.598 377.08ZM423.238 376.96C422.818 376.96 422.438 377.22 422.278 377.58L419.258 384.18L416.318 377.58C416.158 377.2 415.778 376.96 415.358 376.96C414.798 376.96 414.318 377.44 414.318 377.98C414.318 378.18 414.378 378.32 414.438 378.48L418.078 386.54L417.638 387.48C417.158 388.5 416.518 388.92 415.598 388.92C415.478 388.92 415.358 388.9 415.198 388.9C414.678 388.9 414.238 389.32 414.238 389.82C414.238 390.22 414.478 390.58 414.878 390.7C415.138 390.78 415.478 390.82 415.818 390.82C417.538 390.82 418.658 389.96 419.638 387.92L424.158 378.46C424.238 378.3 424.258 378.14 424.258 377.98C424.258 377.44 423.798 376.96 423.238 376.96Z" fill="white"/>
<rect x="112" y="461" width="150" height="100" rx="10" fill="#048B3C"/>
<rect opacity="0.2" x="112" y="461" width="150" height="100" rx="10" fill="#FAFDFE"/>
<path d="M207 497L179.5 524.5L167 512" stroke="#FAFDFE" stroke-width="5" stroke-linecap="square"/>
<path d="M167.008 517H173.208C173.768 517 174.168 516.58 174.168 516.04C174.168 515.5 173.768 515.1 173.208 515.1H168.028V504.66C168.028 504.04 167.588 503.58 166.968 503.58C166.348 503.58 165.908 504.06 165.908 504.66V515.9C165.908 516.54 166.368 517 167.008 517ZM180.621 506.96C177.721 506.96 175.441 509.2 175.441 512.08C175.441 514.94 177.721 517.2 180.621 517.22C183.541 517.22 185.841 514.94 185.841 512.08C185.841 509.22 183.541 506.96 180.621 506.96ZM180.641 508.88C182.361 508.9 183.681 510.26 183.681 512.1C183.681 513.9 182.361 515.28 180.621 515.28C178.881 515.28 177.581 513.92 177.581 512.1C177.581 510.26 178.881 508.9 180.641 508.88ZM192.449 517.22C194.949 517.22 196.709 515.44 196.709 512.88V508.04C196.709 507.42 196.269 506.96 195.669 506.96C195.049 506.96 194.609 507.42 194.609 508.04V513.04C194.609 514.34 193.709 515.28 192.449 515.28C191.149 515.28 190.229 514.34 190.229 513.04V508.04C190.229 507.42 189.789 506.96 189.189 506.96C188.589 506.96 188.149 507.42 188.149 508.04V512.88C188.149 515.44 189.909 517.22 192.449 517.22ZM208.175 501.78C207.575 501.78 207.115 502.24 207.115 502.86V508.38C206.375 507.5 205.215 506.96 203.835 506.96C201.075 506.96 199.035 509.14 199.035 512.1C199.035 515.06 201.075 517.22 203.835 517.22C205.255 517.22 206.435 516.68 207.155 515.76V516.16C207.155 516.76 207.595 517.22 208.195 517.22C208.775 517.22 209.235 516.78 209.235 516.16V502.86C209.235 502.22 208.775 501.78 208.175 501.78ZM204.195 515.3C202.435 515.3 201.175 513.94 201.175 512.08C201.175 510.24 202.455 508.88 204.195 508.88C205.955 508.88 207.155 510.2 207.155 512.1C207.155 514 205.955 515.3 204.195 515.3Z" fill="white"/>
<rect x="312" y="461" width="150" height="100" rx="10" fill="#8B0453"/>
<path d="M348.69 515.6L343.91 504.3C343.71 503.82 343.37 503.58 342.89 503.58C342.43 503.58 342.09 503.82 341.89 504.3L337.11 515.6C336.99 515.84 336.95 516.04 336.95 516.2C336.95 516.76 337.41 517.22 337.99 517.22C338.47 517.22 338.81 516.96 338.99 516.48L339.77 514.62H345.99L346.81 516.48C347.01 516.96 347.33 517.22 347.81 517.22C348.39 517.22 348.85 516.76 348.85 516.2C348.85 516.04 348.79 515.84 348.69 515.6ZM342.89 506.68L345.23 512.82H340.51L342.89 506.68ZM359.476 506.96C358.876 506.96 358.416 507.42 358.416 508.04V508.42C357.696 507.5 356.516 506.96 355.076 506.96C352.316 506.96 350.296 509.02 350.296 511.88C350.296 514.74 352.316 516.8 355.076 516.8C356.496 516.8 357.656 516.28 358.396 515.4V516.1C358.396 517.88 357.316 518.9 355.456 518.9C354.396 518.9 353.476 518.58 352.476 517.84C352.296 517.7 352.096 517.64 351.876 517.64C351.336 517.64 350.916 518.06 350.916 518.6C350.916 518.88 351.056 519.14 351.316 519.36C352.456 520.3 353.976 520.82 355.576 520.82C358.636 520.82 360.496 519 360.496 515.98V508.04C360.496 507.42 360.056 506.96 359.476 506.96ZM355.456 514.96C353.716 514.96 352.456 513.68 352.456 511.88C352.456 510.1 353.716 508.84 355.456 508.84C357.256 508.84 358.416 510.04 358.416 511.86C358.416 513.72 357.236 514.96 355.456 514.96ZM372.152 506.96C371.552 506.96 371.092 507.42 371.092 508.04V508.42C370.372 507.5 369.192 506.96 367.752 506.96C364.992 506.96 362.972 509.02 362.972 511.88C362.972 514.74 364.992 516.8 367.752 516.8C369.172 516.8 370.332 516.28 371.072 515.4V516.1C371.072 517.88 369.992 518.9 368.132 518.9C367.072 518.9 366.152 518.58 365.152 517.84C364.972 517.7 364.772 517.64 364.552 517.64C364.012 517.64 363.592 518.06 363.592 518.6C363.592 518.88 363.732 519.14 363.992 519.36C365.132 520.3 366.652 520.82 368.252 520.82C371.312 520.82 373.172 519 373.172 515.98V508.04C373.172 507.42 372.732 506.96 372.152 506.96ZM368.132 514.96C366.392 514.96 365.132 513.68 365.132 511.88C365.132 510.1 366.392 508.84 368.132 508.84C369.932 508.84 371.092 510.04 371.092 511.86C371.092 513.72 369.912 514.96 368.132 514.96ZM381.028 507.08C379.928 507.08 378.948 507.56 378.288 508.34V508.04C378.288 507.42 377.848 506.96 377.268 506.96C376.648 506.96 376.208 507.42 376.208 508.04V516.14C376.208 516.76 376.668 517.22 377.268 517.22C377.868 517.22 378.308 516.78 378.308 516.14V511.76C378.308 510.18 379.408 509.1 381.008 509.06C381.608 509.02 382.028 508.62 382.028 508.04C382.028 507.48 381.608 507.08 381.028 507.08ZM387.952 506.96C385.092 506.96 382.892 509.2 382.892 512.1C382.892 515.04 385.132 517.22 388.172 517.22C389.392 517.22 390.492 516.86 391.432 516.16C391.812 515.88 391.952 515.64 391.952 515.28C391.952 514.78 391.572 514.4 391.072 514.4C390.892 514.4 390.712 514.48 390.532 514.6C389.872 515.1 389.072 515.36 388.232 515.36C386.492 515.36 385.312 514.36 385.032 512.78H391.312C392.052 512.78 392.512 512.34 392.512 511.62V511.52C392.512 508.88 390.572 506.96 387.952 506.96ZM387.892 508.74C389.372 508.74 390.372 509.72 390.412 511.14H385.072C385.392 509.7 386.472 508.74 387.892 508.74ZM397.958 517.22C399.918 517.22 401.598 516.2 401.598 514.22C401.598 512.78 400.698 512 398.918 511.26L397.978 510.88C397.078 510.52 396.678 510.26 396.678 509.72C396.678 509.08 397.238 508.78 398.018 508.78C398.758 508.78 399.438 509.06 399.958 509.46C400.218 509.66 400.398 509.76 400.618 509.76C401.098 509.76 401.498 509.36 401.498 508.86C401.498 508.6 401.398 508.36 401.178 508.16C400.418 507.42 399.318 506.96 398.058 506.96C396.118 506.96 394.598 507.98 394.598 509.8C394.598 511.28 395.578 512 397.158 512.66L398.158 513.08C398.958 513.4 399.538 513.66 399.538 514.3C399.538 515.04 398.818 515.4 397.958 515.4C397.018 515.4 396.278 514.96 395.658 514.38C395.438 514.18 395.218 514.1 394.998 514.1C394.478 514.1 394.058 514.52 394.058 515.02C394.058 515.3 394.158 515.52 394.358 515.7C395.198 516.6 396.438 517.22 397.958 517.22ZM407.06 517.22C409.02 517.22 410.7 516.2 410.7 514.22C410.7 512.78 409.8 512 408.02 511.26L407.08 510.88C406.18 510.52 405.78 510.26 405.78 509.72C405.78 509.08 406.34 508.78 407.12 508.78C407.86 508.78 408.54 509.06 409.06 509.46C409.32 509.66 409.5 509.76 409.72 509.76C410.2 509.76 410.6 509.36 410.6 508.86C410.6 508.6 410.5 508.36 410.28 508.16C409.52 507.42 408.42 506.96 407.16 506.96C405.22 506.96 403.7 507.98 403.7 509.8C403.7 511.28 404.68 512 406.26 512.66L407.26 513.08C408.06 513.4 408.64 513.66 408.64 514.3C408.64 515.04 407.92 515.4 407.06 515.4C406.12 515.4 405.38 514.96 404.76 514.38C404.54 514.18 404.32 514.1 404.1 514.1C403.58 514.1 403.16 514.52 403.16 515.02C403.16 515.3 403.26 515.52 403.46 515.7C404.3 516.6 405.54 517.22 407.06 517.22ZM414.182 502.16C413.402 502.16 412.782 502.76 412.782 503.52C412.782 504.28 413.402 504.88 414.182 504.88C414.942 504.88 415.582 504.28 415.582 503.52C415.582 502.76 414.942 502.16 414.182 502.16ZM414.162 517.22C414.762 517.22 415.222 516.76 415.222 516.14V508.04C415.222 507.42 414.782 506.96 414.182 506.96C413.562 506.96 413.122 507.42 413.122 508.04V516.14C413.122 516.76 413.562 517.22 414.162 517.22ZM426.218 506.96C425.798 506.96 425.458 507.18 425.258 507.58L422.238 513.98L419.198 507.58C418.998 507.18 418.658 506.96 418.238 506.96C417.678 506.96 417.218 507.44 417.218 507.98C417.218 508.16 417.258 508.32 417.358 508.52L421.258 516.58C421.458 516.98 421.818 517.22 422.238 517.22C422.638 517.22 422.998 516.98 423.198 516.58L427.118 508.52C427.198 508.32 427.238 508.16 427.238 507.98C427.238 507.44 426.778 506.96 426.218 506.96ZM433.284 506.96C430.424 506.96 428.224 509.2 428.224 512.1C428.224 515.04 430.464 517.22 433.504 517.22C434.724 517.22 435.824 516.86 436.764 516.16C437.144 515.88 437.284 515.64 437.284 515.28C437.284 514.78 436.904 514.4 436.404 514.4C436.224 514.4 436.044 514.48 435.864 514.6C435.204 515.1 434.404 515.36 433.564 515.36C431.824 515.36 430.644 514.36 430.364 512.78H436.644C437.384 512.78 437.844 512.34 437.844 511.62V511.52C437.844 508.88 435.904 506.96 433.284 506.96ZM433.224 508.74C434.704 508.74 435.704 509.72 435.744 511.14H430.404C430.724 509.7 431.804 508.74 433.224 508.74Z" fill="white"/>
<path d="M161.522 250.198C162.062 250.198 162.476 249.784 162.476 249.226V244.564H168.452V249.226C168.452 249.784 168.866 250.198 169.406 250.198C169.946 250.198 170.36 249.784 170.36 249.226V238.894C170.36 238.336 169.964 237.922 169.406 237.922C168.848 237.922 168.452 238.336 168.452 238.894V242.854H162.476V238.894C162.476 238.336 162.08 237.922 161.522 237.922C160.964 237.922 160.568 238.336 160.568 238.894V249.226C160.568 249.784 160.982 250.198 161.522 250.198ZM177.238 240.964C174.628 240.964 172.576 242.98 172.576 245.572C172.576 248.146 174.628 250.18 177.238 250.198C179.866 250.198 181.936 248.146 181.936 245.572C181.936 242.998 179.866 240.964 177.238 240.964ZM177.256 242.692C178.804 242.71 179.992 243.934 179.992 245.59C179.992 247.21 178.804 248.452 177.238 248.452C175.672 248.452 174.502 247.228 174.502 245.59C174.502 243.934 175.672 242.71 177.256 242.692ZM196.405 240.964C196.045 240.964 195.721 241.18 195.577 241.522L193.129 247.102L190.951 241.648C190.789 241.216 190.465 240.964 190.051 240.964C189.655 240.964 189.331 241.216 189.151 241.648L186.991 247.102L184.543 241.522C184.399 241.18 184.075 240.964 183.697 240.964C183.193 240.964 182.779 241.378 182.779 241.882C182.779 242.026 182.815 242.17 182.869 242.314L186.073 249.622C186.235 249.982 186.541 250.198 186.919 250.198C187.297 250.198 187.603 249.982 187.783 249.64L190.069 244.132L192.337 249.64C192.499 249.982 192.823 250.198 193.183 250.198C193.579 250.198 193.885 249.982 194.047 249.622L197.251 242.314C197.305 242.17 197.341 242.026 197.341 241.882C197.341 241.378 196.909 240.964 196.405 240.964ZM211.809 236.302C211.269 236.302 210.855 236.716 210.855 237.274V242.242C210.189 241.45 209.145 240.964 207.903 240.964C205.419 240.964 203.583 242.926 203.583 245.59C203.583 248.254 205.419 250.198 207.903 250.198C209.181 250.198 210.243 249.712 210.891 248.884V249.244C210.891 249.784 211.287 250.198 211.827 250.198C212.349 250.198 212.763 249.802 212.763 249.244V237.274C212.763 236.698 212.349 236.302 211.809 236.302ZM208.227 248.47C206.643 248.47 205.509 247.246 205.509 245.572C205.509 243.916 206.661 242.692 208.227 242.692C209.811 242.692 210.891 243.88 210.891 245.59C210.891 247.3 209.811 248.47 208.227 248.47ZM219.601 240.964C216.991 240.964 214.939 242.98 214.939 245.572C214.939 248.146 216.991 250.18 219.601 250.198C222.229 250.198 224.299 248.146 224.299 245.572C224.299 242.998 222.229 240.964 219.601 240.964ZM219.619 242.692C221.167 242.71 222.355 243.934 222.355 245.59C222.355 247.21 221.167 248.452 219.601 248.452C218.035 248.452 216.865 247.228 216.865 245.59C216.865 243.934 218.035 242.71 219.619 242.692ZM238.675 240.964C238.297 240.964 237.955 241.198 237.811 241.522L235.093 247.462L232.447 241.522C232.303 241.18 231.961 240.964 231.583 240.964C231.079 240.964 230.647 241.396 230.647 241.882C230.647 242.062 230.701 242.188 230.755 242.332L234.031 249.586L233.635 250.432C233.203 251.35 232.627 251.728 231.799 251.728C231.691 251.728 231.583 251.71 231.439 251.71C230.971 251.71 230.575 252.088 230.575 252.538C230.575 252.898 230.791 253.222 231.151 253.33C231.385 253.402 231.691 253.438 231.997 253.438C233.545 253.438 234.553 252.664 235.435 250.828L239.503 242.314C239.575 242.17 239.593 242.026 239.593 241.882C239.593 241.396 239.179 240.964 238.675 240.964ZM245.142 240.964C242.532 240.964 240.48 242.98 240.48 245.572C240.48 248.146 242.532 250.18 245.142 250.198C247.77 250.198 249.84 248.146 249.84 245.572C249.84 242.998 247.77 240.964 245.142 240.964ZM245.16 242.692C246.708 242.71 247.896 243.934 247.896 245.59C247.896 247.21 246.708 248.452 245.142 248.452C243.576 248.452 242.406 247.228 242.406 245.59C242.406 243.934 243.576 242.71 245.16 242.692ZM255.787 250.198C258.037 250.198 259.621 248.596 259.621 246.292V241.936C259.621 241.378 259.225 240.964 258.685 240.964C258.127 240.964 257.731 241.378 257.731 241.936V246.436C257.731 247.606 256.921 248.452 255.787 248.452C254.617 248.452 253.789 247.606 253.789 246.436V241.936C253.789 241.378 253.393 240.964 252.853 240.964C252.313 240.964 251.917 241.378 251.917 241.936V246.292C251.917 248.596 253.501 250.198 255.787 250.198ZM270.989 238.012C271.169 238.012 271.295 238.03 271.421 238.03C271.925 238.03 272.267 237.724 272.267 237.274C272.267 236.878 272.051 236.59 271.709 236.464C271.421 236.356 271.097 236.302 270.683 236.302C268.775 236.302 267.641 237.436 267.641 239.38V241.162H267.029C266.561 241.162 266.201 241.522 266.201 241.99C266.201 242.458 266.561 242.8 267.029 242.8H267.641V249.226C267.641 249.784 268.037 250.198 268.595 250.198C269.135 250.198 269.531 249.802 269.531 249.226V242.8H270.953C271.439 242.8 271.799 242.458 271.799 241.99C271.799 241.522 271.439 241.162 270.953 241.162H269.531V239.542C269.531 238.552 270.053 238.012 270.989 238.012ZM277.114 240.964C274.54 240.964 272.56 242.98 272.56 245.59C272.56 248.236 274.576 250.198 277.312 250.198C278.41 250.198 279.4 249.874 280.246 249.244C280.588 248.992 280.714 248.776 280.714 248.452C280.714 248.002 280.372 247.66 279.922 247.66C279.76 247.66 279.598 247.732 279.436 247.84C278.842 248.29 278.122 248.524 277.366 248.524C275.8 248.524 274.738 247.624 274.486 246.202H280.138C280.804 246.202 281.218 245.806 281.218 245.158V245.068C281.218 242.692 279.472 240.964 277.114 240.964ZM277.06 242.566C278.392 242.566 279.292 243.448 279.328 244.726H274.522C274.81 243.43 275.782 242.566 277.06 242.566ZM287.38 240.964C284.806 240.964 282.826 242.98 282.826 245.59C282.826 248.236 284.842 250.198 287.578 250.198C288.676 250.198 289.666 249.874 290.512 249.244C290.854 248.992 290.98 248.776 290.98 248.452C290.98 248.002 290.638 247.66 290.188 247.66C290.026 247.66 289.864 247.732 289.702 247.84C289.108 248.29 288.388 248.524 287.632 248.524C286.066 248.524 285.004 247.624 284.752 246.202H290.404C291.07 246.202 291.484 245.806 291.484 245.158V245.068C291.484 242.692 289.738 240.964 287.38 240.964ZM287.326 242.566C288.658 242.566 289.558 243.448 289.594 244.726H284.788C285.076 243.43 286.048 242.566 287.326 242.566ZM294.603 250.198C295.143 250.198 295.539 249.784 295.539 249.226V237.274C295.539 236.716 295.143 236.302 294.603 236.302C294.045 236.302 293.649 236.716 293.649 237.274V249.226C293.649 249.784 294.063 250.198 294.603 250.198ZM306.701 240.964C305.405 240.964 304.235 241.414 303.479 242.206C303.227 242.458 303.101 242.71 303.101 242.98C303.101 243.394 303.479 243.772 303.929 243.772C304.145 243.772 304.343 243.682 304.577 243.484C305.135 242.926 305.801 242.656 306.539 242.656C307.745 242.656 308.429 243.34 308.429 244.546V245.122H305.927C303.929 245.122 302.669 246.094 302.669 247.642C302.669 249.172 303.911 250.198 305.747 250.198C306.881 250.198 307.817 249.82 308.465 249.136V249.244C308.465 249.784 308.861 250.198 309.401 250.198C309.941 250.198 310.337 249.802 310.337 249.244V244.654C310.337 242.332 308.987 240.964 306.701 240.964ZM306.143 248.74C305.207 248.74 304.595 248.29 304.595 247.57C304.595 246.868 305.135 246.49 306.161 246.49H308.429V246.652C308.429 247.822 307.421 248.74 306.143 248.74ZM317.378 240.964C316.352 240.964 315.47 241.324 314.84 241.936C314.84 241.378 314.444 240.964 313.922 240.964C313.364 240.964 312.968 241.378 312.968 241.936V249.226C312.968 249.784 313.382 250.198 313.922 250.198C314.462 250.198 314.858 249.802 314.858 249.226V244.726C314.858 243.538 315.704 242.674 316.874 242.674C318.026 242.674 318.8 243.502 318.8 244.726V249.226C318.8 249.784 319.196 250.198 319.754 250.198C320.276 250.198 320.69 249.802 320.69 249.226V244.474C320.69 242.332 319.394 240.964 317.378 240.964ZM330.989 236.302C330.449 236.302 330.035 236.716 330.035 237.274V242.242C329.369 241.45 328.325 240.964 327.083 240.964C324.599 240.964 322.763 242.926 322.763 245.59C322.763 248.254 324.599 250.198 327.083 250.198C328.361 250.198 329.423 249.712 330.071 248.884V249.244C330.071 249.784 330.467 250.198 331.007 250.198C331.529 250.198 331.943 249.802 331.943 249.244V237.274C331.943 236.698 331.529 236.302 330.989 236.302ZM327.407 248.47C325.823 248.47 324.689 247.246 324.689 245.572C324.689 243.916 325.841 242.692 327.407 242.692C328.991 242.692 330.071 243.88 330.071 245.59C330.071 247.3 328.991 248.47 327.407 248.47ZM343.106 240.964C341.81 240.964 340.64 241.414 339.884 242.206C339.632 242.458 339.506 242.71 339.506 242.98C339.506 243.394 339.884 243.772 340.334 243.772C340.55 243.772 340.748 243.682 340.982 243.484C341.54 242.926 342.206 242.656 342.944 242.656C344.15 242.656 344.834 243.34 344.834 244.546V245.122H342.332C340.334 245.122 339.074 246.094 339.074 247.642C339.074 249.172 340.316 250.198 342.152 250.198C343.286 250.198 344.222 249.82 344.87 249.136V249.244C344.87 249.784 345.266 250.198 345.806 250.198C346.346 250.198 346.742 249.802 346.742 249.244V244.654C346.742 242.332 345.392 240.964 343.106 240.964ZM342.548 248.74C341.612 248.74 341 248.29 341 247.57C341 246.868 341.54 246.49 342.566 246.49H344.834V246.652C344.834 247.822 343.826 248.74 342.548 248.74ZM353.494 250.198C355.078 250.198 356.338 249.478 357.076 248.38C357.202 248.2 357.238 248.056 357.238 247.894C357.238 247.426 356.86 247.048 356.392 247.048C356.14 247.048 355.942 247.102 355.726 247.354C355.186 247.984 354.484 248.452 353.512 248.452C351.91 248.452 350.74 247.246 350.74 245.572C350.74 243.934 351.928 242.71 353.512 242.71C354.484 242.71 355.204 243.178 355.726 243.826C355.924 244.06 356.14 244.132 356.392 244.132C356.86 244.132 357.238 243.754 357.238 243.268C357.238 243.124 357.202 242.98 357.058 242.764C356.374 241.702 355.042 240.964 353.494 240.964C350.866 240.964 348.814 242.998 348.814 245.572C348.814 248.164 350.866 250.198 353.494 250.198ZM363.912 248.47C363.75 248.47 363.588 248.488 363.372 248.488C362.166 248.488 361.644 248.038 361.644 246.958V242.8H363.534C364.02 242.8 364.38 242.458 364.38 241.99C364.38 241.522 364.02 241.162 363.534 241.162H361.644V239.614C361.644 239.056 361.23 238.642 360.69 238.642C360.15 238.642 359.736 239.074 359.736 239.614V241.162H359.034C358.566 241.162 358.188 241.522 358.188 241.99C358.188 242.458 358.566 242.8 359.034 242.8H359.736V247.12C359.736 249.118 360.888 250.198 362.994 250.198C363.498 250.198 363.876 250.144 364.182 250.018C364.542 249.892 364.74 249.622 364.74 249.226C364.74 248.776 364.416 248.47 363.912 248.47ZM383.629 240.964C383.269 240.964 382.945 241.18 382.801 241.522L380.353 247.102L378.175 241.648C378.013 241.216 377.689 240.964 377.275 240.964C376.879 240.964 376.555 241.216 376.375 241.648L374.215 247.102L371.767 241.522C371.623 241.18 371.299 240.964 370.921 240.964C370.417 240.964 370.003 241.378 370.003 241.882C370.003 242.026 370.039 242.17 370.093 242.314L373.297 249.622C373.459 249.982 373.765 250.198 374.143 250.198C374.521 250.198 374.827 249.982 375.007 249.64L377.293 244.132L379.561 249.64C379.723 249.982 380.047 250.198 380.407 250.198C380.803 250.198 381.109 249.982 381.271 249.622L384.475 242.314C384.529 242.17 384.565 242.026 384.565 241.882C384.565 241.378 384.133 240.964 383.629 240.964ZM390.767 240.964C389.705 240.964 388.823 241.36 388.211 242.044V237.274C388.211 236.698 387.815 236.302 387.275 236.302C386.735 236.302 386.321 236.716 386.321 237.274V249.226C386.321 249.784 386.735 250.198 387.275 250.198C387.815 250.198 388.211 249.802 388.211 249.226V244.744C388.211 243.538 389.057 242.692 390.227 242.692C391.379 242.692 392.153 243.502 392.153 244.744V249.226C392.153 249.784 392.549 250.198 393.107 250.198C393.629 250.198 394.043 249.802 394.043 249.226V244.474C394.043 242.35 392.747 240.964 390.767 240.964ZM400.671 240.964C398.097 240.964 396.117 242.98 396.117 245.59C396.117 248.236 398.133 250.198 400.869 250.198C401.967 250.198 402.957 249.874 403.803 249.244C404.145 248.992 404.271 248.776 404.271 248.452C404.271 248.002 403.929 247.66 403.479 247.66C403.317 247.66 403.155 247.732 402.993 247.84C402.399 248.29 401.679 248.524 400.923 248.524C399.357 248.524 398.295 247.624 398.043 246.202H403.695C404.361 246.202 404.775 245.806 404.775 245.158V245.068C404.775 242.692 403.029 240.964 400.671 240.964ZM400.617 242.566C401.949 242.566 402.849 243.448 402.885 244.726H398.079C398.367 243.43 399.339 242.566 400.617 242.566ZM411.35 240.964C410.324 240.964 409.442 241.324 408.812 241.936C408.812 241.378 408.416 240.964 407.894 240.964C407.336 240.964 406.94 241.378 406.94 241.936V249.226C406.94 249.784 407.354 250.198 407.894 250.198C408.434 250.198 408.83 249.802 408.83 249.226V244.726C408.83 243.538 409.676 242.674 410.846 242.674C411.998 242.674 412.772 243.502 412.772 244.726V249.226C412.772 249.784 413.168 250.198 413.726 250.198C414.248 250.198 414.662 249.802 414.662 249.226V244.474C414.662 242.332 413.366 240.964 411.35 240.964ZM226.704 275.198C228.954 275.198 230.538 273.596 230.538 271.292V266.936C230.538 266.378 230.142 265.964 229.602 265.964C229.044 265.964 228.648 266.378 228.648 266.936V271.436C228.648 272.606 227.838 273.452 226.704 273.452C225.534 273.452 224.706 272.606 224.706 271.436V266.936C224.706 266.378 224.31 265.964 223.77 265.964C223.23 265.964 222.834 266.378 222.834 266.936V271.292C222.834 273.596 224.418 275.198 226.704 275.198ZM237.599 265.964C236.573 265.964 235.691 266.324 235.061 266.936C235.061 266.378 234.665 265.964 234.143 265.964C233.585 265.964 233.189 266.378 233.189 266.936V274.226C233.189 274.784 233.603 275.198 234.143 275.198C234.683 275.198 235.079 274.802 235.079 274.226V269.726C235.079 268.538 235.925 267.674 237.095 267.674C238.247 267.674 239.021 268.502 239.021 269.726V274.226C239.021 274.784 239.417 275.198 239.975 275.198C240.497 275.198 240.911 274.802 240.911 274.226V269.474C240.911 267.332 239.615 265.964 237.599 265.964ZM247.665 275.198C249.249 275.198 250.509 274.478 251.247 273.38C251.373 273.2 251.409 273.056 251.409 272.894C251.409 272.426 251.031 272.048 250.563 272.048C250.311 272.048 250.113 272.102 249.897 272.354C249.357 272.984 248.655 273.452 247.683 273.452C246.081 273.452 244.911 272.246 244.911 270.572C244.911 268.934 246.099 267.71 247.683 267.71C248.655 267.71 249.375 268.178 249.897 268.826C250.095 269.06 250.311 269.132 250.563 269.132C251.031 269.132 251.409 268.754 251.409 268.268C251.409 268.124 251.373 267.98 251.229 267.764C250.545 266.702 249.213 265.964 247.665 265.964C245.037 265.964 242.985 267.998 242.985 270.572C242.985 273.164 245.037 275.198 247.665 275.198ZM257.403 265.964C254.793 265.964 252.741 267.98 252.741 270.572C252.741 273.146 254.793 275.18 257.403 275.198C260.031 275.198 262.101 273.146 262.101 270.572C262.101 267.998 260.031 265.964 257.403 265.964ZM257.421 267.692C258.969 267.71 260.157 268.934 260.157 270.59C260.157 272.21 258.969 273.452 257.403 273.452C255.837 273.452 254.667 272.228 254.667 270.59C254.667 268.934 255.837 267.71 257.421 267.692ZM274.257 265.964C273.015 265.964 271.935 266.486 271.269 267.35C270.729 266.45 269.793 265.964 268.587 265.964C267.597 265.964 266.751 266.306 266.139 266.882C266.121 266.36 265.725 265.964 265.221 265.964C264.663 265.964 264.267 266.378 264.267 266.936V274.226C264.267 274.784 264.681 275.198 265.221 275.198C265.761 275.198 266.157 274.802 266.157 274.226V269.744C266.157 268.52 266.949 267.692 268.101 267.692C269.217 267.692 269.955 268.502 269.955 269.744V274.226C269.955 274.784 270.351 275.198 270.909 275.198C271.431 275.198 271.845 274.802 271.845 274.226V269.654C271.845 268.52 272.673 267.692 273.789 267.692C274.923 267.692 275.625 268.484 275.625 269.744V274.226C275.625 274.784 276.039 275.198 276.579 275.198C277.119 275.198 277.533 274.802 277.533 274.226V269.474C277.533 267.314 276.273 265.964 274.257 265.964ZM283.83 263.012C284.01 263.012 284.136 263.03 284.262 263.03C284.766 263.03 285.108 262.724 285.108 262.274C285.108 261.878 284.892 261.59 284.55 261.464C284.262 261.356 283.938 261.302 283.524 261.302C281.616 261.302 280.482 262.436 280.482 264.38V266.162H279.87C279.402 266.162 279.042 266.522 279.042 266.99C279.042 267.458 279.402 267.8 279.87 267.8H280.482V274.226C280.482 274.784 280.878 275.198 281.436 275.198C281.976 275.198 282.372 274.802 282.372 274.226V267.8H283.794C284.28 267.8 284.64 267.458 284.64 266.99C284.64 266.522 284.28 266.162 283.794 266.162H282.372V264.542C282.372 263.552 282.894 263.012 283.83 263.012ZM290.063 265.964C287.453 265.964 285.401 267.98 285.401 270.572C285.401 273.146 287.453 275.18 290.063 275.198C292.691 275.198 294.761 273.146 294.761 270.572C294.761 267.998 292.691 265.964 290.063 265.964ZM290.081 267.692C291.629 267.71 292.817 268.934 292.817 270.59C292.817 272.21 291.629 273.452 290.063 273.452C288.497 273.452 287.327 272.228 287.327 270.59C287.327 268.934 288.497 267.71 290.081 267.692ZM301.266 266.072C300.276 266.072 299.394 266.504 298.8 267.206V266.936C298.8 266.378 298.404 265.964 297.882 265.964C297.324 265.964 296.928 266.378 296.928 266.936V274.226C296.928 274.784 297.342 275.198 297.882 275.198C298.422 275.198 298.818 274.802 298.818 274.226V270.284C298.818 268.862 299.808 267.89 301.248 267.854C301.788 267.818 302.166 267.458 302.166 266.936C302.166 266.432 301.788 266.072 301.266 266.072ZM308.286 273.47C308.124 273.47 307.962 273.488 307.746 273.488C306.54 273.488 306.018 273.038 306.018 271.958V267.8H307.908C308.394 267.8 308.754 267.458 308.754 266.99C308.754 266.522 308.394 266.162 307.908 266.162H306.018V264.614C306.018 264.056 305.604 263.642 305.064 263.642C304.524 263.642 304.11 264.074 304.11 264.614V266.162H303.408C302.94 266.162 302.562 266.522 302.562 266.99C302.562 267.458 302.94 267.8 303.408 267.8H304.11V272.12C304.11 274.118 305.262 275.198 307.368 275.198C307.872 275.198 308.25 275.144 308.556 275.018C308.916 274.892 309.114 274.622 309.114 274.226C309.114 273.776 308.79 273.47 308.286 273.47ZM314.233 265.964C312.937 265.964 311.767 266.414 311.011 267.206C310.759 267.458 310.633 267.71 310.633 267.98C310.633 268.394 311.011 268.772 311.461 268.772C311.677 268.772 311.875 268.682 312.109 268.484C312.667 267.926 313.333 267.656 314.071 267.656C315.277 267.656 315.961 268.34 315.961 269.546V270.122H313.459C311.461 270.122 310.201 271.094 310.201 272.642C310.201 274.172 311.443 275.198 313.279 275.198C314.413 275.198 315.349 274.82 315.997 274.136V274.244C315.997 274.784 316.393 275.198 316.933 275.198C317.473 275.198 317.869 274.802 317.869 274.244V269.654C317.869 267.332 316.519 265.964 314.233 265.964ZM313.675 273.74C312.739 273.74 312.127 273.29 312.127 272.57C312.127 271.868 312.667 271.49 313.693 271.49H315.961V271.652C315.961 272.822 314.953 273.74 313.675 273.74ZM325.342 265.964C324.1 265.964 323.056 266.45 322.39 267.26V262.274C322.39 261.698 321.994 261.302 321.454 261.302C320.914 261.302 320.5 261.716 320.5 262.274V274.226C320.5 274.784 320.896 275.198 321.454 275.198C321.976 275.198 322.372 274.802 322.372 274.226V273.902C323.038 274.712 324.1 275.198 325.36 275.198C327.844 275.198 329.68 273.254 329.68 270.59C329.68 267.926 327.844 265.964 325.342 265.964ZM325.036 273.47C323.452 273.47 322.372 272.3 322.372 270.59C322.372 268.862 323.434 267.692 325.036 267.692C326.602 267.692 327.736 268.916 327.736 270.572C327.736 272.246 326.602 273.47 325.036 273.47ZM332.809 275.198C333.349 275.198 333.745 274.784 333.745 274.226V262.274C333.745 261.716 333.349 261.302 332.809 261.302C332.251 261.302 331.855 261.716 331.855 262.274V274.226C331.855 274.784 332.269 275.198 332.809 275.198ZM340.474 265.964C337.9 265.964 335.92 267.98 335.92 270.59C335.92 273.236 337.936 275.198 340.672 275.198C341.77 275.198 342.76 274.874 343.606 274.244C343.948 273.992 344.074 273.776 344.074 273.452C344.074 273.002 343.732 272.66 343.282 272.66C343.12 272.66 342.958 272.732 342.796 272.84C342.202 273.29 341.482 273.524 340.726 273.524C339.16 273.524 338.098 272.624 337.846 271.202H343.498C344.164 271.202 344.578 270.806 344.578 270.158V270.068C344.578 267.692 342.832 265.964 340.474 265.964ZM340.42 267.566C341.752 267.566 342.652 268.448 342.688 269.726H337.882C338.17 268.43 339.142 267.566 340.42 267.566ZM348.976 271.418C349.462 271.418 349.84 271.076 349.858 270.608L349.876 270.428C349.876 269.906 350.164 269.492 351.136 268.628C352.27 267.62 352.72 266.864 352.72 265.91C352.72 264.2 351.28 262.922 349.39 262.922C347.95 262.922 346.834 263.624 346.276 264.848C346.168 265.046 346.114 265.208 346.114 265.424C346.114 265.892 346.492 266.27 346.96 266.27C347.302 266.27 347.554 266.108 347.77 265.73C348.112 265.028 348.652 264.668 349.318 264.668C350.128 264.668 350.758 265.28 350.758 266.108C350.758 266.738 350.524 267.098 349.462 268.052C348.4 269.042 348.076 269.582 348.076 270.338V270.554C348.076 271.04 348.49 271.418 348.976 271.418ZM349.03 275.198C349.786 275.198 350.38 274.604 350.38 273.848C350.38 273.092 349.786 272.48 349.03 272.48C348.256 272.48 347.644 273.092 347.644 273.848C347.644 274.604 348.256 275.198 349.03 275.198Z" fill="#808080"/>
<path d="M113.736 313.14C113.932 313.14 114.1 312.986 114.1 312.762V308.856H116.508C118.188 308.856 119.308 307.834 119.308 306.308C119.308 304.768 118.188 303.76 116.508 303.76H113.75C113.526 303.76 113.372 303.928 113.372 304.138V312.762C113.372 312.986 113.526 313.14 113.736 313.14ZM114.1 308.198V304.418H116.48C117.754 304.418 118.552 305.146 118.552 306.308C118.552 307.484 117.754 308.198 116.48 308.198H114.1ZM121.554 313.14C121.764 313.14 121.904 312.986 121.904 312.79V302.71C121.904 302.514 121.75 302.36 121.554 302.36C121.358 302.36 121.204 302.514 121.204 302.71V312.79C121.204 312.986 121.358 313.14 121.554 313.14ZM127.383 306.098C125.493 306.098 123.995 307.638 123.995 309.626C123.995 311.6 125.521 313.14 127.509 313.14C128.461 313.14 129.301 312.79 129.973 312.118C130.099 311.992 130.141 311.908 130.141 311.796C130.141 311.614 130.015 311.474 129.833 311.474C129.735 311.474 129.665 311.516 129.567 311.614C129.049 312.16 128.293 312.482 127.509 312.482C125.955 312.482 124.807 311.348 124.723 309.794H130.001C130.295 309.794 130.435 309.626 130.435 309.332V309.164C130.435 307.386 129.161 306.098 127.383 306.098ZM127.383 306.742C128.783 306.742 129.735 307.764 129.721 309.15H124.751C124.947 307.764 126.011 306.742 127.383 306.742ZM134.793 306.098C133.855 306.098 133.043 306.462 132.427 307.19C132.315 307.316 132.273 307.414 132.273 307.512C132.273 307.666 132.427 307.806 132.595 307.806C132.707 307.806 132.791 307.764 132.889 307.666C133.435 307.05 134.037 306.756 134.751 306.756C135.927 306.756 136.613 307.484 136.613 308.73V309.5H134.261C132.833 309.5 131.909 310.2 131.909 311.306C131.909 312.398 132.847 313.14 134.233 313.14C135.269 313.14 136.123 312.706 136.613 311.992V312.79C136.613 312.986 136.781 313.14 136.977 313.14C137.173 313.14 137.327 312.986 137.327 312.79V308.758C137.327 307.092 136.375 306.098 134.793 306.098ZM134.303 312.524C133.295 312.524 132.637 312.034 132.637 311.292C132.637 310.536 133.239 310.102 134.331 310.102H136.613V310.48C136.613 311.614 135.591 312.524 134.303 312.524ZM141.757 313.14C142.933 313.14 144.011 312.51 144.011 311.264C144.011 310.256 143.297 309.766 142.261 309.318L141.631 309.038C140.847 308.702 140.357 308.45 140.357 307.82C140.357 307.078 141.015 306.756 141.729 306.756C142.387 306.756 142.919 307.022 143.339 307.47C143.465 307.582 143.549 307.624 143.647 307.624C143.815 307.624 143.955 307.47 143.955 307.288C143.955 307.218 143.913 307.12 143.829 307.036C143.367 306.504 142.681 306.098 141.771 306.098C140.637 306.098 139.615 306.728 139.615 307.862C139.615 308.828 140.371 309.276 141.281 309.668L141.897 309.934C142.653 310.27 143.283 310.536 143.283 311.292C143.283 312.09 142.569 312.482 141.757 312.482C140.945 312.482 140.315 312.076 139.783 311.404C139.713 311.32 139.615 311.278 139.517 311.278C139.335 311.278 139.167 311.446 139.167 311.628C139.167 311.712 139.209 311.796 139.265 311.866C139.797 312.594 140.665 313.14 141.757 313.14ZM149.067 306.098C147.177 306.098 145.679 307.638 145.679 309.626C145.679 311.6 147.205 313.14 149.193 313.14C150.145 313.14 150.985 312.79 151.657 312.118C151.783 311.992 151.825 311.908 151.825 311.796C151.825 311.614 151.699 311.474 151.517 311.474C151.419 311.474 151.349 311.516 151.251 311.614C150.733 312.16 149.977 312.482 149.193 312.482C147.639 312.482 146.491 311.348 146.407 309.794H151.685C151.979 309.794 152.119 309.626 152.119 309.332V309.164C152.119 307.386 150.845 306.098 149.067 306.098ZM149.067 306.742C150.467 306.742 151.419 307.764 151.405 309.15H146.435C146.631 307.764 147.695 306.742 149.067 306.742ZM160.064 313.14C161.24 313.14 162.318 312.51 162.318 311.264C162.318 310.256 161.604 309.766 160.568 309.318L159.938 309.038C159.154 308.702 158.664 308.45 158.664 307.82C158.664 307.078 159.322 306.756 160.036 306.756C160.694 306.756 161.226 307.022 161.646 307.47C161.772 307.582 161.856 307.624 161.954 307.624C162.122 307.624 162.262 307.47 162.262 307.288C162.262 307.218 162.22 307.12 162.136 307.036C161.674 306.504 160.988 306.098 160.078 306.098C158.944 306.098 157.922 306.728 157.922 307.862C157.922 308.828 158.678 309.276 159.588 309.668L160.204 309.934C160.96 310.27 161.59 310.536 161.59 311.292C161.59 312.09 160.876 312.482 160.064 312.482C159.252 312.482 158.622 312.076 158.09 311.404C158.02 311.32 157.922 311.278 157.824 311.278C157.642 311.278 157.474 311.446 157.474 311.628C157.474 311.712 157.516 311.796 157.572 311.866C158.104 312.594 158.972 313.14 160.064 313.14ZM167.373 306.098C165.483 306.098 163.985 307.638 163.985 309.626C163.985 311.6 165.511 313.14 167.499 313.14C168.451 313.14 169.291 312.79 169.963 312.118C170.089 311.992 170.131 311.908 170.131 311.796C170.131 311.614 170.005 311.474 169.823 311.474C169.725 311.474 169.655 311.516 169.557 311.614C169.039 312.16 168.283 312.482 167.499 312.482C165.945 312.482 164.797 311.348 164.713 309.794H169.991C170.285 309.794 170.425 309.626 170.425 309.332V309.164C170.425 307.386 169.151 306.098 167.373 306.098ZM167.373 306.742C168.773 306.742 169.725 307.764 169.711 309.15H164.741C164.937 307.764 166.001 306.742 167.373 306.742ZM172.865 313.14C173.075 313.14 173.215 312.986 173.215 312.79V302.71C173.215 302.514 173.061 302.36 172.865 302.36C172.669 302.36 172.515 302.514 172.515 302.71V312.79C172.515 312.986 172.669 313.14 172.865 313.14ZM178.693 306.098C176.803 306.098 175.305 307.638 175.305 309.626C175.305 311.6 176.831 313.14 178.819 313.14C179.771 313.14 180.611 312.79 181.283 312.118C181.409 311.992 181.451 311.908 181.451 311.796C181.451 311.614 181.325 311.474 181.143 311.474C181.045 311.474 180.975 311.516 180.877 311.614C180.359 312.16 179.603 312.482 178.819 312.482C177.265 312.482 176.117 311.348 176.033 309.794H181.311C181.605 309.794 181.745 309.626 181.745 309.332V309.164C181.745 307.386 180.471 306.098 178.693 306.098ZM178.693 306.742C180.093 306.742 181.045 307.764 181.031 309.15H176.061C176.257 307.764 177.321 306.742 178.693 306.742ZM186.803 313.14C187.951 313.14 188.833 312.664 189.477 311.838C189.561 311.726 189.589 311.656 189.589 311.572C189.589 311.404 189.435 311.264 189.253 311.264C189.169 311.264 189.085 311.292 188.987 311.404C188.441 312.09 187.769 312.482 186.803 312.482C185.235 312.482 184.045 311.222 184.045 309.612C184.045 308.002 185.249 306.756 186.817 306.756C187.769 306.756 188.455 307.148 189.001 307.834C189.085 307.946 189.183 307.974 189.267 307.974C189.435 307.974 189.589 307.834 189.589 307.666C189.589 307.582 189.575 307.512 189.491 307.4C188.861 306.574 187.951 306.098 186.817 306.098C184.857 306.098 183.317 307.652 183.317 309.612C183.317 311.572 184.857 313.14 186.803 313.14ZM194.724 312.426C194.57 312.426 194.36 312.496 194.01 312.496C193.016 312.496 192.54 312.034 192.54 311.082V306.882H194.43C194.612 306.882 194.766 306.742 194.766 306.56C194.766 306.378 194.612 306.238 194.43 306.238H192.54V304.586C192.54 304.39 192.386 304.222 192.19 304.222C191.994 304.222 191.826 304.376 191.826 304.586V306.238H190.944C190.762 306.238 190.608 306.378 190.608 306.56C190.608 306.742 190.762 306.882 190.944 306.882H191.826V311.11C191.826 312.412 192.568 313.14 193.898 313.14C194.206 313.14 194.486 313.112 194.752 313.042C194.948 313 195.046 312.888 195.046 312.72C195.046 312.538 194.906 312.426 194.724 312.426ZM202.838 306.098C201.9 306.098 201.088 306.462 200.472 307.19C200.36 307.316 200.318 307.414 200.318 307.512C200.318 307.666 200.472 307.806 200.64 307.806C200.752 307.806 200.836 307.764 200.934 307.666C201.48 307.05 202.082 306.756 202.796 306.756C203.972 306.756 204.658 307.484 204.658 308.73V309.5H202.306C200.878 309.5 199.954 310.2 199.954 311.306C199.954 312.398 200.892 313.14 202.278 313.14C203.314 313.14 204.168 312.706 204.658 311.992V312.79C204.658 312.986 204.826 313.14 205.022 313.14C205.218 313.14 205.372 312.986 205.372 312.79V308.758C205.372 307.092 204.42 306.098 202.838 306.098ZM202.348 312.524C201.34 312.524 200.682 312.034 200.682 311.292C200.682 310.536 201.284 310.102 202.376 310.102H204.658V310.48C204.658 311.614 203.636 312.524 202.348 312.524ZM209.802 313.14C210.978 313.14 212.056 312.51 212.056 311.264C212.056 310.256 211.342 309.766 210.306 309.318L209.676 309.038C208.892 308.702 208.402 308.45 208.402 307.82C208.402 307.078 209.06 306.756 209.774 306.756C210.432 306.756 210.964 307.022 211.384 307.47C211.51 307.582 211.594 307.624 211.692 307.624C211.86 307.624 212 307.47 212 307.288C212 307.218 211.958 307.12 211.874 307.036C211.412 306.504 210.726 306.098 209.816 306.098C208.682 306.098 207.66 306.728 207.66 307.862C207.66 308.828 208.416 309.276 209.326 309.668L209.942 309.934C210.698 310.27 211.328 310.536 211.328 311.292C211.328 312.09 210.614 312.482 209.802 312.482C208.99 312.482 208.36 312.076 207.828 311.404C207.758 311.32 207.66 311.278 207.562 311.278C207.38 311.278 207.212 311.446 207.212 311.628C207.212 311.712 207.254 311.796 207.31 311.866C207.842 312.594 208.71 313.14 209.802 313.14ZM225.389 306.098C224.367 306.098 223.499 306.602 223.051 307.414C222.701 306.574 221.945 306.098 220.923 306.098C220.041 306.098 219.313 306.462 218.865 307.092V306.448C218.865 306.252 218.711 306.098 218.515 306.098C218.319 306.098 218.165 306.252 218.165 306.448V312.79C218.165 312.986 218.319 313.14 218.515 313.14C218.711 313.14 218.865 312.986 218.865 312.79V308.786C218.865 307.596 219.677 306.756 220.825 306.756C221.917 306.756 222.631 307.554 222.631 308.786V312.79C222.631 312.986 222.785 313.14 222.981 313.14C223.177 313.14 223.331 312.986 223.331 312.79V308.674C223.331 307.582 224.185 306.756 225.291 306.756C226.383 306.756 227.083 307.54 227.083 308.786V312.79C227.083 312.986 227.237 313.14 227.447 313.14C227.643 313.14 227.797 312.986 227.797 312.79V308.73C227.797 307.106 226.859 306.098 225.389 306.098ZM232.854 313.14C234.394 313.14 235.5 312.02 235.5 310.438V306.448C235.5 306.252 235.346 306.098 235.15 306.098C234.954 306.098 234.8 306.252 234.8 306.448V310.466C234.8 311.656 234.002 312.482 232.854 312.482C231.678 312.482 230.894 311.656 230.894 310.466V306.448C230.894 306.252 230.726 306.098 230.544 306.098C230.348 306.098 230.194 306.252 230.194 306.448V310.438C230.194 312.02 231.286 313.14 232.854 313.14ZM240.971 313.14C242.119 313.14 243.001 312.664 243.645 311.838C243.729 311.726 243.757 311.656 243.757 311.572C243.757 311.404 243.603 311.264 243.421 311.264C243.337 311.264 243.253 311.292 243.155 311.404C242.609 312.09 241.937 312.482 240.971 312.482C239.403 312.482 238.213 311.222 238.213 309.612C238.213 308.002 239.417 306.756 240.985 306.756C241.937 306.756 242.623 307.148 243.169 307.834C243.253 307.946 243.351 307.974 243.435 307.974C243.603 307.974 243.757 307.834 243.757 307.666C243.757 307.582 243.743 307.512 243.659 307.4C243.029 306.574 242.119 306.098 240.985 306.098C239.025 306.098 237.485 307.652 237.485 309.612C237.485 311.572 239.025 313.14 240.971 313.14ZM248.57 306.098C247.632 306.098 246.876 306.49 246.428 307.176V302.71C246.428 302.514 246.274 302.36 246.078 302.36C245.882 302.36 245.728 302.514 245.728 302.71V312.79C245.728 312.986 245.882 313.14 246.078 313.14C246.274 313.14 246.428 312.986 246.428 312.79V308.786C246.428 307.596 247.282 306.756 248.444 306.756C249.578 306.756 250.334 307.554 250.334 308.786V312.79C250.334 312.986 250.488 313.14 250.684 313.14C250.88 313.14 251.034 312.986 251.034 312.79V308.73C251.034 307.12 250.068 306.098 248.57 306.098ZM259.726 306.098C258.788 306.098 257.976 306.462 257.36 307.19C257.248 307.316 257.206 307.414 257.206 307.512C257.206 307.666 257.36 307.806 257.528 307.806C257.64 307.806 257.724 307.764 257.822 307.666C258.368 307.05 258.97 306.756 259.684 306.756C260.86 306.756 261.546 307.484 261.546 308.73V309.5H259.194C257.766 309.5 256.842 310.2 256.842 311.306C256.842 312.398 257.78 313.14 259.166 313.14C260.202 313.14 261.056 312.706 261.546 311.992V312.79C261.546 312.986 261.714 313.14 261.91 313.14C262.106 313.14 262.26 312.986 262.26 312.79V308.758C262.26 307.092 261.308 306.098 259.726 306.098ZM259.236 312.524C258.228 312.524 257.57 312.034 257.57 311.292C257.57 310.536 258.172 310.102 259.264 310.102H261.546V310.48C261.546 311.614 260.524 312.524 259.236 312.524ZM266.691 313.14C267.867 313.14 268.945 312.51 268.945 311.264C268.945 310.256 268.231 309.766 267.195 309.318L266.565 309.038C265.781 308.702 265.291 308.45 265.291 307.82C265.291 307.078 265.949 306.756 266.663 306.756C267.321 306.756 267.853 307.022 268.273 307.47C268.399 307.582 268.483 307.624 268.581 307.624C268.749 307.624 268.889 307.47 268.889 307.288C268.889 307.218 268.847 307.12 268.763 307.036C268.301 306.504 267.615 306.098 266.705 306.098C265.571 306.098 264.549 306.728 264.549 307.862C264.549 308.828 265.305 309.276 266.215 309.668L266.831 309.934C267.587 310.27 268.217 310.536 268.217 311.292C268.217 312.09 267.503 312.482 266.691 312.482C265.879 312.482 265.249 312.076 264.717 311.404C264.647 311.32 264.549 311.278 264.451 311.278C264.269 311.278 264.101 311.446 264.101 311.628C264.101 311.712 264.143 311.796 264.199 311.866C264.731 312.594 265.599 313.14 266.691 313.14ZM278.484 306.098C277.28 306.098 276.258 306.686 275.754 307.554V306.448C275.754 306.238 275.6 306.084 275.404 306.084C275.208 306.084 275.054 306.238 275.054 306.448V315.31C275.054 315.506 275.208 315.674 275.404 315.674C275.6 315.674 275.754 315.52 275.754 315.31V311.684C276.258 312.552 277.28 313.14 278.484 313.14C280.388 313.14 281.844 311.614 281.844 309.612C281.844 307.624 280.374 306.098 278.484 306.098ZM278.414 312.482C276.818 312.482 275.754 311.334 275.754 309.612C275.754 307.904 276.818 306.756 278.414 306.756C279.954 306.756 281.116 307.974 281.116 309.626C281.116 311.264 279.968 312.482 278.414 312.482ZM286.909 306.098C284.949 306.098 283.409 307.624 283.409 309.612C283.409 311.586 284.949 313.14 286.895 313.14C288.855 313.14 290.409 311.586 290.409 309.612C290.409 307.638 288.855 306.098 286.909 306.098ZM286.909 306.756C288.463 306.756 289.681 307.988 289.681 309.626C289.681 311.236 288.463 312.482 286.895 312.482C285.327 312.482 284.137 311.25 284.137 309.626C284.137 307.988 285.327 306.756 286.909 306.756ZM294.431 313.14C295.607 313.14 296.685 312.51 296.685 311.264C296.685 310.256 295.971 309.766 294.935 309.318L294.305 309.038C293.521 308.702 293.031 308.45 293.031 307.82C293.031 307.078 293.689 306.756 294.403 306.756C295.061 306.756 295.593 307.022 296.013 307.47C296.139 307.582 296.223 307.624 296.321 307.624C296.489 307.624 296.629 307.47 296.629 307.288C296.629 307.218 296.587 307.12 296.503 307.036C296.041 306.504 295.355 306.098 294.445 306.098C293.311 306.098 292.289 306.728 292.289 307.862C292.289 308.828 293.045 309.276 293.955 309.668L294.571 309.934C295.327 310.27 295.957 310.536 295.957 311.292C295.957 312.09 295.243 312.482 294.431 312.482C293.619 312.482 292.989 312.076 292.457 311.404C292.387 311.32 292.289 311.278 292.191 311.278C292.009 311.278 291.841 311.446 291.841 311.628C291.841 311.712 291.883 311.796 291.939 311.866C292.471 312.594 293.339 313.14 294.431 313.14ZM300.802 313.14C301.978 313.14 303.056 312.51 303.056 311.264C303.056 310.256 302.342 309.766 301.306 309.318L300.676 309.038C299.892 308.702 299.402 308.45 299.402 307.82C299.402 307.078 300.06 306.756 300.774 306.756C301.432 306.756 301.964 307.022 302.384 307.47C302.51 307.582 302.594 307.624 302.692 307.624C302.86 307.624 303 307.47 303 307.288C303 307.218 302.958 307.12 302.874 307.036C302.412 306.504 301.726 306.098 300.816 306.098C299.682 306.098 298.66 306.728 298.66 307.862C298.66 308.828 299.416 309.276 300.326 309.668L300.942 309.934C301.698 310.27 302.328 310.536 302.328 311.292C302.328 312.09 301.614 312.482 300.802 312.482C299.99 312.482 299.36 312.076 298.828 311.404C298.758 311.32 298.66 311.278 298.562 311.278C298.38 311.278 298.212 311.446 298.212 311.628C298.212 311.712 298.254 311.796 298.31 311.866C298.842 312.594 299.71 313.14 300.802 313.14ZM305.591 303.032C305.255 303.032 304.989 303.298 304.989 303.634C304.989 303.97 305.255 304.236 305.591 304.236C305.927 304.236 306.193 303.97 306.193 303.634C306.193 303.298 305.927 303.032 305.591 303.032ZM305.577 313.14C305.787 313.14 305.941 312.986 305.941 312.79V306.448C305.941 306.252 305.787 306.098 305.591 306.098C305.381 306.098 305.241 306.252 305.241 306.448V312.79C305.241 312.986 305.395 313.14 305.577 313.14ZM311.98 306.098C310.776 306.098 309.754 306.686 309.25 307.554V302.71C309.25 302.514 309.096 302.36 308.9 302.36C308.704 302.36 308.55 302.514 308.55 302.71V312.79C308.55 312.986 308.704 313.14 308.9 313.14C309.096 313.14 309.25 312.986 309.25 312.79V311.684C309.754 312.552 310.776 313.14 311.98 313.14C313.87 313.14 315.34 311.614 315.34 309.626C315.34 307.624 313.884 306.098 311.98 306.098ZM311.91 312.482C310.314 312.482 309.25 311.334 309.25 309.626C309.25 307.904 310.314 306.756 311.91 306.756C313.464 306.756 314.612 307.974 314.612 309.612C314.612 311.264 313.45 312.482 311.91 312.482ZM317.773 313.14C317.983 313.14 318.123 312.986 318.123 312.79V302.71C318.123 302.514 317.969 302.36 317.773 302.36C317.577 302.36 317.423 302.514 317.423 302.71V312.79C317.423 312.986 317.577 313.14 317.773 313.14ZM323.602 306.098C321.712 306.098 320.214 307.638 320.214 309.626C320.214 311.6 321.74 313.14 323.728 313.14C324.68 313.14 325.52 312.79 326.192 312.118C326.318 311.992 326.36 311.908 326.36 311.796C326.36 311.614 326.234 311.474 326.052 311.474C325.954 311.474 325.884 311.516 325.786 311.614C325.268 312.16 324.512 312.482 323.728 312.482C322.174 312.482 321.026 311.348 320.942 309.794H326.22C326.514 309.794 326.654 309.626 326.654 309.332V309.164C326.654 307.386 325.38 306.098 323.602 306.098ZM323.602 306.742C325.002 306.742 325.954 307.764 325.94 309.15H320.97C321.166 307.764 322.23 306.742 323.602 306.742Z" fill="#808080"/>
<path d="M114.72 865.22C115.32 865.22 115.78 864.76 115.78 864.14V859.9H118.46C121.12 859.9 122.94 858.24 122.94 855.84C122.94 853.42 121.14 851.8 118.46 851.8H114.76C114.12 851.8 113.66 852.26 113.66 852.9V864.14C113.66 864.76 114.12 865.22 114.72 865.22ZM115.78 858.02V853.68H118.44C119.88 853.68 120.76 854.52 120.76 855.86C120.76 857.2 119.88 858.02 118.44 858.02H115.78ZM126.24 865.22C126.84 865.22 127.28 864.76 127.28 864.14V850.86C127.28 850.24 126.84 849.78 126.24 849.78C125.62 849.78 125.18 850.24 125.18 850.86V864.14C125.18 864.76 125.64 865.22 126.24 865.22ZM134.757 854.96C131.897 854.96 129.697 857.2 129.697 860.1C129.697 863.04 131.937 865.22 134.977 865.22C136.197 865.22 137.297 864.86 138.237 864.16C138.617 863.88 138.757 863.64 138.757 863.28C138.757 862.78 138.377 862.4 137.877 862.4C137.697 862.4 137.517 862.48 137.337 862.6C136.677 863.1 135.877 863.36 135.037 863.36C133.297 863.36 132.117 862.36 131.837 860.78H138.117C138.857 860.78 139.317 860.34 139.317 859.62V859.52C139.317 856.88 137.377 854.96 134.757 854.96ZM134.697 856.74C136.177 856.74 137.177 857.72 137.217 859.14H131.877C132.197 857.7 133.277 856.74 134.697 856.74ZM145.483 854.96C144.043 854.96 142.743 855.46 141.903 856.34C141.623 856.62 141.483 856.9 141.483 857.2C141.483 857.66 141.903 858.08 142.403 858.08C142.643 858.08 142.863 857.98 143.123 857.76C143.743 857.14 144.483 856.84 145.303 856.84C146.643 856.84 147.403 857.6 147.403 858.94V859.58H144.623C142.403 859.58 141.003 860.66 141.003 862.38C141.003 864.08 142.383 865.22 144.423 865.22C145.683 865.22 146.723 864.8 147.443 864.04V864.16C147.443 864.76 147.883 865.22 148.483 865.22C149.083 865.22 149.523 864.78 149.523 864.16V859.06C149.523 856.48 148.023 854.96 145.483 854.96ZM144.863 863.6C143.823 863.6 143.143 863.1 143.143 862.3C143.143 861.52 143.743 861.1 144.883 861.1H147.403V861.28C147.403 862.58 146.283 863.6 144.863 863.6ZM155.486 865.22C157.446 865.22 159.126 864.2 159.126 862.22C159.126 860.78 158.226 860 156.446 859.26L155.506 858.88C154.606 858.52 154.206 858.26 154.206 857.72C154.206 857.08 154.766 856.78 155.546 856.78C156.286 856.78 156.966 857.06 157.486 857.46C157.746 857.66 157.926 857.76 158.146 857.76C158.626 857.76 159.026 857.36 159.026 856.86C159.026 856.6 158.926 856.36 158.706 856.16C157.946 855.42 156.846 854.96 155.586 854.96C153.646 854.96 152.126 855.98 152.126 857.8C152.126 859.28 153.106 860 154.686 860.66L155.686 861.08C156.486 861.4 157.066 861.66 157.066 862.3C157.066 863.04 156.346 863.4 155.486 863.4C154.546 863.4 153.806 862.96 153.186 862.38C152.966 862.18 152.746 862.1 152.526 862.1C152.006 862.1 151.586 862.52 151.586 863.02C151.586 863.3 151.686 863.52 151.886 863.7C152.726 864.6 153.966 865.22 155.486 865.22ZM165.987 854.96C163.127 854.96 160.927 857.2 160.927 860.1C160.927 863.04 163.167 865.22 166.207 865.22C167.427 865.22 168.527 864.86 169.467 864.16C169.847 863.88 169.987 863.64 169.987 863.28C169.987 862.78 169.607 862.4 169.107 862.4C168.927 862.4 168.747 862.48 168.567 862.6C167.907 863.1 167.107 863.36 166.267 863.36C164.527 863.36 163.347 862.36 163.067 860.78H169.347C170.087 860.78 170.547 860.34 170.547 859.62V859.52C170.547 856.88 168.607 854.96 165.987 854.96ZM165.927 856.74C167.407 856.74 168.407 857.72 168.447 859.14H163.107C163.427 857.7 164.507 856.74 165.927 856.74ZM181.599 865.22C183.559 865.22 185.239 864.2 185.239 862.22C185.239 860.78 184.339 860 182.559 859.26L181.619 858.88C180.719 858.52 180.319 858.26 180.319 857.72C180.319 857.08 180.879 856.78 181.659 856.78C182.399 856.78 183.079 857.06 183.599 857.46C183.859 857.66 184.039 857.76 184.259 857.76C184.739 857.76 185.139 857.36 185.139 856.86C185.139 856.6 185.039 856.36 184.819 856.16C184.059 855.42 182.959 854.96 181.699 854.96C179.759 854.96 178.239 855.98 178.239 857.8C178.239 859.28 179.219 860 180.799 860.66L181.799 861.08C182.599 861.4 183.179 861.66 183.179 862.3C183.179 863.04 182.459 863.4 181.599 863.4C180.659 863.4 179.919 862.96 179.299 862.38C179.079 862.18 178.859 862.1 178.639 862.1C178.119 862.1 177.699 862.52 177.699 863.02C177.699 863.3 177.799 863.52 177.999 863.7C178.839 864.6 180.079 865.22 181.599 865.22ZM193.041 854.96C191.641 854.96 190.461 855.5 189.741 856.4V856C189.741 855.4 189.301 854.94 188.721 854.94C188.101 854.94 187.661 855.4 187.661 856V867.76C187.661 868.38 188.121 868.84 188.721 868.84C189.321 868.84 189.761 868.38 189.761 867.76V863.8C190.501 864.68 191.661 865.22 193.041 865.22C195.821 865.22 197.861 863.04 197.861 860.08C197.861 857.14 195.821 854.96 193.041 854.96ZM192.701 863.3C190.921 863.3 189.741 862 189.741 860.08C189.741 858.18 190.941 856.88 192.701 856.88C194.441 856.88 195.701 858.24 195.701 860.1C195.701 861.94 194.441 863.3 192.701 863.3ZM204.718 854.96C201.858 854.96 199.658 857.2 199.658 860.1C199.658 863.04 201.898 865.22 204.938 865.22C206.158 865.22 207.258 864.86 208.198 864.16C208.578 863.88 208.718 863.64 208.718 863.28C208.718 862.78 208.338 862.4 207.838 862.4C207.658 862.4 207.478 862.48 207.298 862.6C206.638 863.1 205.838 863.36 204.998 863.36C203.258 863.36 202.078 862.36 201.798 860.78H208.078C208.818 860.78 209.278 860.34 209.278 859.62V859.52C209.278 856.88 207.338 854.96 204.718 854.96ZM204.658 856.74C206.138 856.74 207.138 857.72 207.178 859.14H201.838C202.158 857.7 203.238 856.74 204.658 856.74ZM216.264 865.22C218.024 865.22 219.424 864.42 220.244 863.2C220.384 863 220.424 862.84 220.424 862.66C220.424 862.14 220.004 861.72 219.484 861.72C219.204 861.72 218.984 861.78 218.744 862.06C218.144 862.76 217.364 863.28 216.284 863.28C214.504 863.28 213.204 861.94 213.204 860.08C213.204 858.26 214.524 856.9 216.284 856.9C217.364 856.9 218.164 857.42 218.744 858.14C218.964 858.4 219.204 858.48 219.484 858.48C220.004 858.48 220.424 858.06 220.424 857.52C220.424 857.36 220.384 857.2 220.224 856.96C219.464 855.78 217.984 854.96 216.264 854.96C213.344 854.96 211.064 857.22 211.064 860.08C211.064 862.96 213.344 865.22 216.264 865.22ZM223.779 850.16C222.999 850.16 222.379 850.76 222.379 851.52C222.379 852.28 222.999 852.88 223.779 852.88C224.539 852.88 225.179 852.28 225.179 851.52C225.179 850.76 224.539 850.16 223.779 850.16ZM223.759 865.22C224.359 865.22 224.819 864.76 224.819 864.14V856.04C224.819 855.42 224.379 854.96 223.779 854.96C223.159 854.96 222.719 855.42 222.719 856.04V864.14C222.719 864.76 223.159 865.22 223.759 865.22ZM231.936 851.68C232.136 851.68 232.276 851.7 232.416 851.7C232.976 851.7 233.356 851.36 233.356 850.86C233.356 850.42 233.116 850.1 232.736 849.96C232.416 849.84 232.056 849.78 231.596 849.78C229.476 849.78 228.216 851.04 228.216 853.2V855.18H227.536C227.016 855.18 226.616 855.58 226.616 856.1C226.616 856.62 227.016 857 227.536 857H228.216V864.14C228.216 864.76 228.656 865.22 229.276 865.22C229.876 865.22 230.316 864.78 230.316 864.14V857H231.896C232.436 857 232.836 856.62 232.836 856.1C232.836 855.58 232.436 855.18 231.896 855.18H230.316V853.38C230.316 852.28 230.896 851.68 231.936 851.68ZM242.457 854.96C242.037 854.96 241.657 855.22 241.497 855.58L238.477 862.18L235.537 855.58C235.377 855.2 234.997 854.96 234.577 854.96C234.017 854.96 233.537 855.44 233.537 855.98C233.537 856.18 233.597 856.32 233.657 856.48L237.297 864.54L236.857 865.48C236.377 866.5 235.737 866.92 234.817 866.92C234.697 866.92 234.577 866.9 234.417 866.9C233.897 866.9 233.457 867.32 233.457 867.82C233.457 868.22 233.697 868.58 234.097 868.7C234.357 868.78 234.697 868.82 235.037 868.82C236.757 868.82 237.877 867.96 238.857 865.92L243.377 856.46C243.457 856.3 243.477 856.14 243.477 855.98C243.477 855.44 243.017 854.96 242.457 854.96ZM245.393 855.36C245.393 854.853 245.513 854.5 245.753 854.3C245.993 854.1 246.28 854 246.613 854C246.96 854 247.253 854.1 247.493 854.3C247.746 854.5 247.873 854.853 247.873 855.36C247.873 855.84 247.746 856.187 247.493 856.4C247.253 856.613 246.96 856.72 246.613 856.72C246.28 856.72 245.993 856.613 245.753 856.4C245.513 856.187 245.393 855.84 245.393 855.36ZM245.393 863.92C245.393 863.427 245.513 863.08 245.753 862.88C245.993 862.68 246.28 862.58 246.613 862.58C246.96 862.58 247.253 862.68 247.493 862.88C247.746 863.08 247.873 863.427 247.873 863.92C247.873 864.4 247.746 864.747 247.493 864.96C247.253 865.173 246.96 865.28 246.613 865.28C246.28 865.28 245.993 865.173 245.753 864.96C245.513 864.747 245.393 864.4 245.393 863.92Z" fill="black"/>
<line x1="112" y1="909.5" x2="462" y2="909.5" stroke="black"/>
<path d="M377.136 926.792H380.32V927.928H377.136V931.224H375.984V927.928H372.8V926.792H375.984V923.48H377.136V926.792ZM394.78 931.88L390.956 922.84C390.796 922.456 390.524 922.264 390.14 922.264C389.772 922.264 389.5 922.456 389.34 922.84L385.516 931.88C385.42 932.072 385.388 932.232 385.388 932.36C385.388 932.808 385.756 933.176 386.22 933.176C386.604 933.176 386.876 932.968 387.02 932.584L387.644 931.096H392.62L393.276 932.584C393.436 932.968 393.692 933.176 394.076 933.176C394.54 933.176 394.908 932.808 394.908 932.36C394.908 932.232 394.86 932.072 394.78 931.88ZM390.14 924.744L392.012 929.656H388.236L390.14 924.744ZM403.329 920.824C402.849 920.824 402.481 921.192 402.481 921.688V926.104C401.889 925.4 400.961 924.968 399.857 924.968C397.649 924.968 396.017 926.712 396.017 929.08C396.017 931.448 397.649 933.176 399.857 933.176C400.993 933.176 401.937 932.744 402.513 932.008V932.328C402.513 932.808 402.865 933.176 403.345 933.176C403.809 933.176 404.177 932.824 404.177 932.328V921.688C404.177 921.176 403.809 920.824 403.329 920.824ZM400.145 931.64C398.737 931.64 397.729 930.552 397.729 929.064C397.729 927.592 398.753 926.504 400.145 926.504C401.553 926.504 402.513 927.56 402.513 929.08C402.513 930.6 401.553 931.64 400.145 931.64ZM413.423 920.824C412.943 920.824 412.575 921.192 412.575 921.688V926.104C411.983 925.4 411.055 924.968 409.951 924.968C407.743 924.968 406.111 926.712 406.111 929.08C406.111 931.448 407.743 933.176 409.951 933.176C411.087 933.176 412.031 932.744 412.607 932.008V932.328C412.607 932.808 412.959 933.176 413.439 933.176C413.903 933.176 414.271 932.824 414.271 932.328V921.688C414.271 921.176 413.903 920.824 413.423 920.824ZM410.239 931.64C408.831 931.64 407.823 930.552 407.823 929.064C407.823 927.592 408.847 926.504 410.239 926.504C411.647 926.504 412.607 927.56 412.607 929.08C412.607 930.6 411.647 931.64 410.239 931.64ZM430.065 924.968C428.961 924.968 428.001 925.432 427.409 926.2C426.929 925.4 426.097 924.968 425.025 924.968C424.145 924.968 423.393 925.272 422.849 925.784C422.833 925.32 422.481 924.968 422.033 924.968C421.537 924.968 421.185 925.336 421.185 925.832V932.312C421.185 932.808 421.553 933.176 422.033 933.176C422.513 933.176 422.865 932.824 422.865 932.312V928.328C422.865 927.24 423.569 926.504 424.593 926.504C425.585 926.504 426.241 927.224 426.241 928.328V932.312C426.241 932.808 426.593 933.176 427.089 933.176C427.553 933.176 427.921 932.824 427.921 932.312V928.248C427.921 927.24 428.657 926.504 429.649 926.504C430.657 926.504 431.281 927.208 431.281 928.328V932.312C431.281 932.808 431.649 933.176 432.129 933.176C432.609 933.176 432.977 932.824 432.977 932.312V928.088C432.977 926.168 431.857 924.968 430.065 924.968ZM438.958 924.968C436.638 924.968 434.814 926.76 434.814 929.064C434.814 931.352 436.638 933.16 438.958 933.176C441.294 933.176 443.134 931.352 443.134 929.064C443.134 926.776 441.294 924.968 438.958 924.968ZM438.974 926.504C440.35 926.52 441.406 927.608 441.406 929.08C441.406 930.52 440.35 931.624 438.958 931.624C437.566 931.624 436.526 930.536 436.526 929.08C436.526 927.608 437.566 926.52 438.974 926.504ZM448.916 925.064C448.036 925.064 447.252 925.448 446.724 926.072V925.832C446.724 925.336 446.372 924.968 445.908 924.968C445.412 924.968 445.06 925.336 445.06 925.832V932.312C445.06 932.808 445.428 933.176 445.908 933.176C446.388 933.176 446.74 932.824 446.74 932.312V928.808C446.74 927.544 447.62 926.68 448.9 926.648C449.38 926.616 449.716 926.296 449.716 925.832C449.716 925.384 449.38 925.064 448.916 925.064ZM454.456 924.968C452.168 924.968 450.408 926.76 450.408 929.08C450.408 931.432 452.2 933.176 454.632 933.176C455.608 933.176 456.488 932.888 457.24 932.328C457.544 932.104 457.656 931.912 457.656 931.624C457.656 931.224 457.352 930.92 456.952 930.92C456.808 930.92 456.664 930.984 456.52 931.08C455.992 931.48 455.352 931.688 454.68 931.688C453.288 931.688 452.344 930.888 452.12 929.624H457.144C457.736 929.624 458.104 929.272 458.104 928.696V928.616C458.104 926.504 456.552 924.968 454.456 924.968ZM454.408 926.392C455.592 926.392 456.392 927.176 456.424 928.312H452.152C452.408 927.16 453.272 926.392 454.408 926.392Z" fill="#1469B8"/>
<rect x="107" y="886" width="360" height="64" rx="5" fill="#0A345A"/>
<path d="M235.336 925.288C237.784 925.288 240.064 924.256 241.456 922.552C241.816 922.12 241.96 921.736 241.96 921.352C241.96 920.56 241.312 919.888 240.472 919.888C239.992 919.888 239.584 920.104 239.2 920.512C238.144 921.712 236.872 922.288 235.36 922.288C232.384 922.288 230.248 920.128 230.248 917.104C230.248 914.056 232.384 911.872 235.36 911.872C236.896 911.872 238.192 912.448 239.224 913.648C239.584 914.056 240.016 914.272 240.472 914.272C241.312 914.272 241.984 913.6 241.984 912.808C241.984 912.376 241.816 911.992 241.48 911.608C240.064 909.904 237.784 908.872 235.36 908.872C230.608 908.872 226.912 912.472 226.912 917.08C226.912 921.688 230.584 925.288 235.336 925.288ZM252.468 908.872C247.764 908.872 244.068 912.472 244.068 917.08C244.068 921.688 247.74 925.288 252.468 925.288C257.196 925.288 260.916 921.664 260.916 917.08C260.916 912.496 257.196 908.872 252.468 908.872ZM252.492 911.872C255.444 911.872 257.58 914.056 257.58 917.08C257.58 920.104 255.444 922.288 252.492 922.288C249.516 922.288 247.404 920.128 247.404 917.08C247.404 914.032 249.516 911.872 252.492 911.872ZM275.516 908.872C274.58 908.872 273.884 909.592 273.884 910.528L273.908 918.928L266.876 909.928C266.396 909.328 266.036 908.872 265.22 908.872C264.332 908.872 263.636 909.592 263.636 910.504V923.632C263.636 924.568 264.332 925.288 265.268 925.288C266.18 925.288 266.876 924.568 266.876 923.632V915.232L273.932 924.304C274.364 924.832 274.748 925.288 275.54 925.288C276.452 925.288 277.124 924.568 277.124 923.656V910.528C277.124 909.592 276.428 908.872 275.516 908.872ZM285.93 925.288C286.866 925.288 287.562 924.568 287.562 923.632V912.088H291.33C292.17 912.088 292.818 911.44 292.818 910.624C292.818 909.784 292.194 909.16 291.33 909.16H280.554C279.714 909.16 279.066 909.784 279.066 910.624C279.066 911.44 279.714 912.088 280.554 912.088H284.322V923.632C284.322 924.568 285.018 925.288 285.93 925.288ZM296.393 925.288C297.329 925.288 298.001 924.568 298.001 923.632V910.528C298.001 909.592 297.329 908.872 296.393 908.872C295.433 908.872 294.761 909.592 294.761 910.528V923.632C294.761 924.568 295.433 925.288 296.393 925.288ZM313.485 908.872C312.549 908.872 311.853 909.592 311.853 910.528L311.877 918.928L304.845 909.928C304.365 909.328 304.005 908.872 303.189 908.872C302.301 908.872 301.605 909.592 301.605 910.504V923.632C301.605 924.568 302.301 925.288 303.237 925.288C304.149 925.288 304.845 924.568 304.845 923.632V915.232L311.901 924.304C312.333 924.832 312.717 925.288 313.509 925.288C314.421 925.288 315.093 924.568 315.093 923.656V910.528C315.093 909.592 314.397 908.872 313.485 908.872ZM325.291 925.288C329.299 925.288 332.011 922.528 332.011 918.448V910.528C332.011 909.592 331.315 908.872 330.403 908.872C329.467 908.872 328.771 909.592 328.771 910.528V918.688C328.771 920.896 327.427 922.288 325.291 922.288C323.155 922.288 321.811 920.896 321.811 918.688V910.528C321.811 909.592 321.115 908.872 320.203 908.872C319.267 908.872 318.571 909.592 318.571 910.528V918.448C318.571 922.528 321.283 925.288 325.291 925.288ZM337.103 925H345.143C345.983 925 346.631 924.376 346.631 923.536C346.631 922.72 346.007 922.072 345.143 922.072H338.735V918.064H342.935C343.751 918.064 344.351 917.464 344.351 916.696C344.351 915.904 343.751 915.304 342.935 915.304H338.735V912.088H344.855C345.695 912.088 346.343 911.44 346.343 910.624C346.343 909.784 345.719 909.16 344.855 909.16H337.103C336.191 909.16 335.495 909.856 335.495 910.768V923.392C335.495 924.304 336.191 925 337.103 925Z" fill="white"/>
<g opacity="0.5">
<path d="M389.304 145.907C389.176 145.715 389.128 145.635 389.336 145.539C391.704 144.435 392.824 139.299 390.056 138.115C388.84 137.603 386.104 139.667 385.624 141.107C385.56 141.571 384.936 138.963 384.632 138.547C384.104 137.715 383.336 137.267 383.016 137.235C382.872 137.203 382.808 137.235 382.824 137.411C382.6 138.147 382.328 149.283 382.616 150.931C382.68 151.699 382.568 153.587 383.288 153.715C383.304 153.619 383.32 153.539 383.368 153.443C383.496 153.443 383.592 153.475 383.704 153.459C384.744 153.299 385.672 148.611 385.672 147.459C385.672 146.883 386.04 147.475 386.584 147.939C387.752 148.915 390.664 151.907 391.448 152.115C392.536 152.403 393.656 151.747 393.944 151.059C393.8 151.363 392.344 150.595 389.304 145.907ZM385.672 144.003C385.768 140.851 388.648 139.059 388.808 140.387C389.224 143.891 386.744 145.907 385.96 146.291C385.624 146.563 385.656 144.467 385.672 144.003ZM396.657 148.915C395.521 149.443 395.329 147.891 395.329 147.123C395.361 147.011 395.297 146.707 395.425 146.675C396.353 146.499 397.729 145.059 397.441 142.787C397.345 142.051 396.817 141.779 396.225 141.779C394.881 141.779 393.601 143.715 393.329 144.867C392.897 146.643 393.457 150.323 395.793 150.323C396.321 150.323 397.681 149.139 398.225 148.339C398.609 147.843 399.409 146.483 399.393 145.907C399.473 145.715 399.217 145.363 399.105 145.875C398.817 146.963 397.937 148.323 396.657 148.915ZM395.889 142.515C396.625 142.483 396.481 144.099 396.497 144.291C396.529 144.851 396.417 145.891 395.329 146.355C395.297 145.507 395.217 142.547 395.889 142.515ZM401.8 148.067C401.512 148.195 401.16 147.379 401.032 147.075C400.552 145.907 399.864 144.531 400.456 144.083C400.792 143.827 401.928 142.403 402.248 141.891C402.44 141.523 401.88 140.979 401.512 140.739C400.408 141.235 399.448 142.707 399.08 143.827C398.472 145.811 399.56 148.531 399.624 149.427C399.608 149.491 398.584 150.931 398.472 151.475C398.168 152.915 400.36 152.787 401.24 152.307C402.056 151.715 402.184 149.827 402.008 149.283C401.896 148.691 401.656 148.611 401.976 148.371C402.616 147.891 403.528 147.187 403.816 145.859C403.816 145.811 403.8 145.747 403.768 145.699C403.752 145.683 403.704 145.667 403.64 145.683C403.512 145.747 403.528 145.763 403.464 145.907C403.272 146.531 402.824 147.427 401.8 148.067ZM399.56 150.147C399.64 150.611 399.512 151.043 399.432 151.507C399.4 151.731 399.128 151.763 398.68 151.763C398.776 151.139 399.064 150.675 399.56 150.147ZM400.024 143.795C399.976 143.363 400.888 142.163 401.112 141.891C401.32 141.635 401.512 141.411 401.768 141.491C401.592 142.163 400.44 143.379 400.024 143.795ZM409.439 145.843C409.263 146.531 409.103 147.155 408.911 147.763C408.639 148.499 407.807 149.779 406.751 149.731C406.511 149.731 405.423 149.219 405.727 146.003C405.775 145.635 405.855 145.219 405.967 144.835C406.079 144.355 406.927 141.859 407.503 142.259C407.679 142.419 407.679 142.995 407.599 143.235C407.295 144.211 406.431 146.259 407.215 146.163C407.407 146.131 407.695 145.779 407.711 145.555C407.727 145.459 407.759 145.427 407.791 145.347C407.983 144.835 408.191 142.979 408.127 142.355C408.079 141.939 407.951 141.683 407.615 141.459C406.575 140.819 405.295 141.123 404.575 142.339C403.247 144.547 402.831 147.139 403.583 148.659C403.871 149.203 404.623 149.859 405.215 150.211C405.615 150.451 406.031 150.531 406.543 150.595C408.671 150.787 409.775 147.059 409.807 145.699C409.871 145.395 409.535 145.491 409.439 145.843ZM411.504 149.011C411.488 147.315 411.568 144.355 411.632 142.627C411.648 142.563 411.616 142.547 411.616 142.467C411.52 142.051 410.144 141.315 409.824 141.203C409.184 142.931 409.104 146.931 409.712 148.659C410.224 149.235 410.96 149.843 411.68 149.635C412.224 149.507 412.752 149.219 413.36 148.211C413.808 147.171 413.072 149.827 414.224 150.563C415.68 151.491 416.384 148.099 417.072 145.843C417.104 145.571 416.928 145.635 416.912 145.603C416.784 145.651 416.784 145.571 416.704 145.795C416.656 146.147 415.664 149.587 415.184 149.907C415.104 149.955 414.896 149.843 414.864 149.731C414.736 148.899 414.944 146.995 415.04 146.163C415.056 145.859 415.136 143.427 415.168 143.315C415.296 142.803 413.952 142.979 413.92 143.683C413.76 144.483 413.488 147.123 413.232 147.843C412.96 148.547 411.68 149.811 411.504 149.011ZM419.986 148.915C418.85 149.443 418.658 147.891 418.658 147.123C418.69 147.011 418.626 146.707 418.754 146.675C419.682 146.499 421.058 145.059 420.77 142.787C420.674 142.051 420.146 141.779 419.554 141.779C418.21 141.779 416.93 143.715 416.658 144.867C416.226 146.643 416.786 150.323 419.122 150.323C419.65 150.323 421.01 149.139 421.554 148.339C421.938 147.843 422.738 146.483 422.722 145.907C422.802 145.715 422.546 145.363 422.434 145.875C422.146 146.963 421.266 148.323 419.986 148.915ZM419.218 142.515C419.954 142.483 419.81 144.099 419.826 144.291C419.858 144.851 419.746 145.891 418.658 146.355C418.626 145.507 418.546 142.547 419.218 142.515ZM426.44 137.299C422.2 140.387 420.776 149.747 425.048 151.923C426.024 152.211 426.92 152.115 427.704 151.347C427.736 151.299 427.784 151.251 427.832 151.219C428.76 151.027 429.96 148.099 429.944 146.739C430.072 146.147 427.976 145.219 428.184 146.339C428.68 147.123 428.328 150.403 427.352 150.563C427.256 150.707 427.192 150.707 427.064 150.611C425.688 149.299 425.432 144.275 425.848 142.611C425.912 142.419 425.944 142.403 426.12 142.451C426.28 142.531 426.808 142.531 426.968 142.483C427.784 142.867 430.84 138.419 429.72 138.259C429.208 137.747 426.968 136.899 426.44 137.299ZM425.976 142.099C425.976 142.051 425.976 142.019 425.976 141.971C426.008 141.667 426.744 139.043 427 138.675C430.248 138.003 426.856 142.067 426.056 142.115C426.04 142.099 426.024 142.099 425.976 142.099ZM434.674 147.443C434.994 147.299 438.114 146.179 438.002 146.579C438.082 147.155 438.13 150.467 438.514 151.667C438.578 151.843 438.674 151.939 438.834 152.003C439.266 152.115 439.73 152.723 439.97 152.227C439.506 150.355 439.282 148.339 439.09 146.291C439.058 146.051 439.01 146.083 439.25 145.971C439.618 145.795 439.922 145.667 440.258 145.491C440.594 145.315 440.642 145.075 440.658 144.771C440.674 144.579 440.546 144.515 440.354 144.627C439.97 144.819 439.618 144.995 439.106 145.107C438.914 145.155 438.834 145.091 438.85 144.867C438.738 143.571 438.53 140.515 438.13 138.995C438.13 138.835 438.114 138.707 438.21 138.563C438.274 138.563 438.37 138.547 438.418 138.515C438.562 138.435 438.658 138.323 438.658 138.179C438.658 138.035 438.514 137.971 438.418 137.923C437.954 137.827 436.69 137.411 436.226 137.411C432.626 137.411 431.714 148.531 431.17 151.155C431.138 151.763 430.354 151.267 431.058 151.811C431.682 152.291 431.842 152.403 432.514 152.851C433.17 153.283 434.226 148.851 434.37 147.731C434.386 147.603 434.466 147.491 434.674 147.443ZM437.794 139.059C437.602 140.083 437.81 144.259 437.906 145.139C437.922 145.235 437.938 145.459 437.778 145.507C437.25 145.779 435.538 146.067 435.01 146.211C434.882 146.243 434.738 146.387 434.738 146.115C434.77 145.987 434.834 145.587 434.882 145.427C435.042 144.851 436.53 139.139 437.794 139.059ZM443.897 151.363C443.401 151.363 443.449 151.443 443.417 150.771C443.273 148.099 444.921 138.339 444.089 137.379C443.961 137.347 443.833 137.331 443.689 137.331C443.337 137.299 441.993 139.203 441.625 139.315C441.449 139.363 441.417 139.427 441.433 139.619C441.193 140.563 441.225 152.019 441.193 152.323C441.209 152.467 441.801 153.667 441.961 153.667C442.137 153.939 448.841 151.555 449.337 151.731C449.561 151.795 449.689 151.619 449.817 151.523C449.833 151.507 449.849 151.459 449.849 151.427C449.865 151.283 449.689 151.043 449.545 151.011C448.745 150.963 444.857 151.283 443.897 151.363ZM449.678 151.363C449.182 151.363 449.23 151.443 449.198 150.771C449.054 148.099 450.702 138.339 449.87 137.379C449.742 137.347 449.614 137.331 449.47 137.331C449.118 137.299 447.774 139.203 447.406 139.315C447.23 139.363 447.198 139.427 447.214 139.619C446.974 140.563 447.006 152.019 446.974 152.323C446.99 152.467 447.582 153.667 447.742 153.667C447.918 153.939 454.622 151.555 455.118 151.731C455.342 151.795 455.47 151.619 455.598 151.523C455.614 151.507 455.63 151.459 455.63 151.427C455.646 151.283 455.47 151.043 455.326 151.011C454.526 150.963 450.638 151.283 449.678 151.363Z" fill="#0A345A"/>
<path d="M356.644 151.775L358.225 151.168L356.403 146.425L354.822 147.032L356.644 151.775ZM359.623 152.445L361.205 151.838L358.168 143.932L356.586 144.54L359.623 152.445ZM372.214 140.351L374.037 145.094L375.618 144.486L373.796 139.743L372.214 140.351ZM372.272 147.586L373.853 146.979L370.816 139.073L369.235 139.681L372.272 147.586ZM366.044 137.278L358.929 140.011C358.273 140.263 357.947 140.996 358.199 141.652L362.754 153.511C363.006 154.167 363.74 154.493 364.396 154.241L371.511 151.508C372.167 151.256 372.493 150.522 372.241 149.866L367.686 138.008C367.433 137.352 366.7 137.025 366.044 137.278ZM370.508 150.078L364.184 152.508L359.932 141.44L366.256 139.011L370.508 150.078Z" fill="#1469B8"/>
</g>
<defs>
<linearGradient id="paint0_linear" x1="125" y1="806" x2="125" y2="1056" gradientUnits="userSpaceOnUse">
<stop stop-color="#8B0453"/>
<stop offset="1" stop-color="#479CEB"/>
</linearGradient>
<linearGradient id="paint1_linear" x1="574" y1="-1.49012e-05" x2="324" y2="207.5" gradientUnits="userSpaceOnUse">
<stop offset="0.0618485" stop-color="#047F8B"/>
<stop offset="1" stop-color="#A3CEF5"/>
</linearGradient>
</defs>
</svg>
