<svg width="610" height="1006" viewBox="0 0 610 1006" fill="none" xmlns="http://www.w3.org/2000/svg">
<rect x="5" y="0.894531" width="600" height="324" rx="50" fill="#A3CEF5"/>
<rect x="80" y="70.8945" width="450" height="920" rx="50" fill="#FAFDFE" stroke="#479CEB" stroke-width="30"/>
<g opacity="0.5">
<path d="M425.304 135.801C425.176 135.609 425.128 135.529 425.336 135.433C427.704 134.329 428.824 129.193 426.056 128.009C424.84 127.497 422.104 129.561 421.624 131.001C421.56 131.465 420.936 128.857 420.632 128.441C420.104 127.609 419.336 127.161 419.016 127.129C418.872 127.097 418.808 127.129 418.824 127.305C418.6 128.041 418.328 139.177 418.616 140.825C418.68 141.593 418.568 143.481 419.288 143.609C419.304 143.513 419.32 143.433 419.368 143.337C419.496 143.337 419.592 143.369 419.704 143.353C420.744 143.193 421.672 138.505 421.672 137.353C421.672 136.777 422.04 137.369 422.584 137.833C423.752 138.809 426.664 141.801 427.448 142.009C428.536 142.297 429.656 141.641 429.944 140.953C429.8 141.257 428.344 140.489 425.304 135.801ZM421.672 133.897C421.768 130.745 424.648 128.953 424.808 130.281C425.224 133.785 422.744 135.801 421.96 136.185C421.624 136.457 421.656 134.361 421.672 133.897ZM432.657 138.809C431.521 139.337 431.329 137.785 431.329 137.017C431.361 136.905 431.297 136.601 431.425 136.569C432.353 136.393 433.729 134.953 433.441 132.681C433.345 131.945 432.817 131.673 432.225 131.673C430.881 131.673 429.601 133.609 429.329 134.761C428.897 136.537 429.457 140.217 431.793 140.217C432.321 140.217 433.681 139.033 434.225 138.233C434.609 137.737 435.409 136.377 435.393 135.801C435.473 135.609 435.217 135.257 435.105 135.769C434.817 136.857 433.937 138.217 432.657 138.809ZM431.889 132.409C432.625 132.377 432.481 133.993 432.497 134.185C432.529 134.745 432.417 135.785 431.329 136.249C431.297 135.401 431.217 132.441 431.889 132.409ZM437.8 137.961C437.512 138.089 437.16 137.273 437.032 136.969C436.552 135.801 435.864 134.425 436.456 133.977C436.792 133.721 437.928 132.297 438.248 131.785C438.44 131.417 437.88 130.873 437.512 130.633C436.408 131.129 435.448 132.601 435.08 133.721C434.472 135.705 435.56 138.425 435.624 139.321C435.608 139.385 434.584 140.825 434.472 141.369C434.168 142.809 436.36 142.681 437.24 142.201C438.056 141.609 438.184 139.721 438.008 139.177C437.896 138.585 437.656 138.505 437.976 138.265C438.616 137.785 439.528 137.081 439.816 135.753C439.816 135.705 439.8 135.641 439.768 135.593C439.752 135.577 439.704 135.561 439.64 135.577C439.512 135.641 439.528 135.657 439.464 135.801C439.272 136.425 438.824 137.321 437.8 137.961ZM435.56 140.041C435.64 140.505 435.512 140.937 435.432 141.401C435.4 141.625 435.128 141.657 434.68 141.657C434.776 141.033 435.064 140.569 435.56 140.041ZM436.024 133.689C435.976 133.257 436.888 132.057 437.112 131.785C437.32 131.529 437.512 131.305 437.768 131.385C437.592 132.057 436.44 133.273 436.024 133.689ZM445.439 135.737C445.263 136.425 445.103 137.049 444.911 137.657C444.639 138.393 443.807 139.673 442.751 139.625C442.511 139.625 441.423 139.113 441.727 135.897C441.775 135.529 441.855 135.113 441.967 134.729C442.079 134.249 442.927 131.753 443.503 132.153C443.679 132.313 443.679 132.889 443.599 133.129C443.295 134.105 442.431 136.153 443.215 136.057C443.407 136.025 443.695 135.673 443.711 135.449C443.727 135.353 443.759 135.321 443.791 135.241C443.983 134.729 444.191 132.873 444.127 132.249C444.079 131.833 443.951 131.577 443.615 131.353C442.575 130.713 441.295 131.017 440.575 132.233C439.247 134.441 438.831 137.033 439.583 138.553C439.871 139.097 440.623 139.753 441.215 140.105C441.615 140.345 442.031 140.425 442.543 140.489C444.671 140.681 445.775 136.953 445.807 135.593C445.871 135.289 445.535 135.385 445.439 135.737ZM447.504 138.905C447.488 137.209 447.568 134.249 447.632 132.521C447.648 132.457 447.616 132.441 447.616 132.361C447.52 131.945 446.144 131.209 445.824 131.097C445.184 132.825 445.104 136.825 445.712 138.553C446.224 139.129 446.96 139.737 447.68 139.529C448.224 139.401 448.752 139.113 449.36 138.105C449.808 137.065 449.072 139.721 450.224 140.457C451.68 141.385 452.384 137.993 453.072 135.737C453.104 135.465 452.928 135.529 452.912 135.497C452.784 135.545 452.784 135.465 452.704 135.689C452.656 136.041 451.664 139.481 451.184 139.801C451.104 139.849 450.896 139.737 450.864 139.625C450.736 138.793 450.944 136.889 451.04 136.057C451.056 135.753 451.136 133.321 451.168 133.209C451.296 132.697 449.952 132.873 449.92 133.577C449.76 134.377 449.488 137.017 449.232 137.737C448.96 138.441 447.68 139.705 447.504 138.905ZM455.986 138.809C454.85 139.337 454.658 137.785 454.658 137.017C454.69 136.905 454.626 136.601 454.754 136.569C455.682 136.393 457.058 134.953 456.77 132.681C456.674 131.945 456.146 131.673 455.554 131.673C454.21 131.673 452.93 133.609 452.658 134.761C452.226 136.537 452.786 140.217 455.122 140.217C455.65 140.217 457.01 139.033 457.554 138.233C457.938 137.737 458.738 136.377 458.722 135.801C458.802 135.609 458.546 135.257 458.434 135.769C458.146 136.857 457.266 138.217 455.986 138.809ZM455.218 132.409C455.954 132.377 455.81 133.993 455.826 134.185C455.858 134.745 455.746 135.785 454.658 136.249C454.626 135.401 454.546 132.441 455.218 132.409ZM462.44 127.193C458.2 130.281 456.776 139.641 461.048 141.817C462.024 142.105 462.92 142.009 463.704 141.241C463.736 141.193 463.784 141.145 463.832 141.113C464.76 140.921 465.96 137.993 465.944 136.633C466.072 136.041 463.976 135.113 464.184 136.233C464.68 137.017 464.328 140.297 463.352 140.457C463.256 140.601 463.192 140.601 463.064 140.505C461.688 139.193 461.432 134.169 461.848 132.505C461.912 132.313 461.944 132.297 462.12 132.345C462.28 132.425 462.808 132.425 462.968 132.377C463.784 132.761 466.84 128.313 465.72 128.153C465.208 127.641 462.968 126.793 462.44 127.193ZM461.976 131.993C461.976 131.945 461.976 131.913 461.976 131.865C462.008 131.561 462.744 128.937 463 128.569C466.248 127.897 462.856 131.961 462.056 132.009C462.04 131.993 462.024 131.993 461.976 131.993ZM470.674 137.337C470.994 137.193 474.114 136.073 474.002 136.473C474.082 137.049 474.13 140.361 474.514 141.561C474.578 141.737 474.674 141.833 474.834 141.897C475.266 142.009 475.73 142.617 475.97 142.121C475.506 140.249 475.282 138.233 475.09 136.185C475.058 135.945 475.01 135.977 475.25 135.865C475.618 135.689 475.922 135.561 476.258 135.385C476.594 135.209 476.642 134.969 476.658 134.665C476.674 134.473 476.546 134.409 476.354 134.521C475.97 134.713 475.618 134.889 475.106 135.001C474.914 135.049 474.834 134.985 474.85 134.761C474.738 133.465 474.53 130.409 474.13 128.889C474.13 128.729 474.114 128.601 474.21 128.457C474.274 128.457 474.37 128.441 474.418 128.409C474.562 128.329 474.658 128.217 474.658 128.073C474.658 127.929 474.514 127.865 474.418 127.817C473.954 127.721 472.69 127.305 472.226 127.305C468.626 127.305 467.714 138.425 467.17 141.049C467.138 141.657 466.354 141.161 467.058 141.705C467.682 142.185 467.842 142.297 468.514 142.745C469.17 143.177 470.226 138.745 470.37 137.625C470.386 137.497 470.466 137.385 470.674 137.337ZM473.794 128.953C473.602 129.977 473.81 134.153 473.906 135.033C473.922 135.129 473.938 135.353 473.778 135.401C473.25 135.673 471.538 135.961 471.01 136.105C470.882 136.137 470.738 136.281 470.738 136.009C470.77 135.881 470.834 135.481 470.882 135.321C471.042 134.745 472.53 129.033 473.794 128.953ZM479.897 141.257C479.401 141.257 479.449 141.337 479.417 140.665C479.273 137.993 480.921 128.233 480.089 127.273C479.961 127.241 479.833 127.225 479.689 127.225C479.337 127.193 477.993 129.097 477.625 129.209C477.449 129.257 477.417 129.321 477.433 129.513C477.193 130.457 477.225 141.913 477.193 142.217C477.209 142.361 477.801 143.561 477.961 143.561C478.137 143.833 484.841 141.449 485.337 141.625C485.561 141.689 485.689 141.513 485.817 141.417C485.833 141.401 485.849 141.353 485.849 141.321C485.865 141.177 485.689 140.937 485.545 140.905C484.745 140.857 480.857 141.177 479.897 141.257ZM485.678 141.257C485.182 141.257 485.23 141.337 485.198 140.665C485.054 137.993 486.702 128.233 485.87 127.273C485.742 127.241 485.614 127.225 485.47 127.225C485.118 127.193 483.774 129.097 483.406 129.209C483.23 129.257 483.198 129.321 483.214 129.513C482.974 130.457 483.006 141.913 482.974 142.217C482.99 142.361 483.582 143.561 483.742 143.561C483.918 143.833 490.622 141.449 491.118 141.625C491.342 141.689 491.47 141.513 491.598 141.417C491.614 141.401 491.63 141.353 491.63 141.321C491.646 141.177 491.47 140.937 491.326 140.905C490.526 140.857 486.638 141.177 485.678 141.257Z" fill="#0A345A"/>
<path d="M392.644 141.67L394.225 141.063L392.403 136.319L390.822 136.927L392.644 141.67ZM395.623 142.34L397.205 141.733L394.168 133.827L392.586 134.434L395.623 142.34ZM408.214 130.245L410.037 134.989L411.618 134.381L409.796 129.638L408.214 130.245ZM408.272 137.481L409.853 136.873L406.816 128.968L405.235 129.575L408.272 137.481ZM402.044 127.172L394.929 129.906C394.273 130.158 393.947 130.891 394.199 131.547L398.754 143.405C399.006 144.062 399.74 144.388 400.396 144.136L407.511 141.402C408.167 141.15 408.493 140.417 408.241 139.761L403.686 127.903C403.433 127.246 402.7 126.92 402.044 127.172ZM406.508 139.973L400.184 142.403L395.932 131.335L402.256 128.905L406.508 139.973Z" fill="#1469B8"/>
</g>
<path d="M148 184.413H128" stroke="black" stroke-width="3" stroke-linecap="round" stroke-linejoin="round"/>
<path d="M138 194.413L128 184.413L138 174.413" stroke="black" stroke-width="3" stroke-linecap="round" stroke-linejoin="round"/>
<path opacity="0.8" d="M259.736 191.013L254.956 179.713C254.756 179.233 254.416 178.993 253.936 178.993C253.476 178.993 253.136 179.233 252.936 179.713L248.156 191.013C248.036 191.253 247.996 191.453 247.996 191.613C247.996 192.173 248.456 192.633 249.036 192.633C249.516 192.633 249.856 192.373 250.036 191.893L250.816 190.033H257.036L257.856 191.893C258.056 192.373 258.376 192.633 258.856 192.633C259.436 192.633 259.896 192.173 259.896 191.613C259.896 191.453 259.836 191.253 259.736 191.013ZM253.936 182.093L256.276 188.233H251.556L253.936 182.093ZM270.423 177.193C269.823 177.193 269.363 177.653 269.363 178.273V183.793C268.623 182.913 267.463 182.373 266.083 182.373C263.323 182.373 261.283 184.553 261.283 187.513C261.283 190.473 263.323 192.633 266.083 192.633C267.503 192.633 268.683 192.093 269.403 191.173V191.573C269.403 192.173 269.843 192.633 270.443 192.633C271.023 192.633 271.483 192.193 271.483 191.573V178.273C271.483 177.633 271.023 177.193 270.423 177.193ZM266.443 190.713C264.683 190.713 263.423 189.353 263.423 187.493C263.423 185.653 264.703 184.293 266.443 184.293C268.203 184.293 269.403 185.613 269.403 187.513C269.403 189.413 268.203 190.713 266.443 190.713ZM283.04 177.193C282.44 177.193 281.98 177.653 281.98 178.273V183.793C281.24 182.913 280.08 182.373 278.7 182.373C275.94 182.373 273.9 184.553 273.9 187.513C273.9 190.473 275.94 192.633 278.7 192.633C280.12 192.633 281.3 192.093 282.02 191.173V191.573C282.02 192.173 282.46 192.633 283.06 192.633C283.64 192.633 284.1 192.193 284.1 191.573V178.273C284.1 177.633 283.64 177.193 283.04 177.193ZM279.06 190.713C277.3 190.713 276.04 189.353 276.04 187.493C276.04 185.653 277.32 184.293 279.06 184.293C280.82 184.293 282.02 185.613 282.02 187.513C282.02 189.413 280.82 190.713 279.06 190.713ZM299.023 192.633C301.083 192.633 302.983 191.773 304.143 190.333C304.403 189.993 304.503 189.753 304.503 189.493C304.503 188.973 304.063 188.533 303.523 188.533C303.183 188.533 302.903 188.673 302.663 188.953C301.703 190.093 300.483 190.693 299.043 190.693C296.303 190.693 294.283 188.613 294.283 185.813C294.283 183.013 296.303 180.933 299.043 180.933C300.503 180.933 301.723 181.513 302.683 182.673C302.923 182.953 303.203 183.093 303.523 183.093C304.063 183.093 304.503 182.653 304.503 182.133C304.503 181.853 304.403 181.613 304.163 181.293C302.963 179.853 301.063 178.993 299.023 178.993C295.123 178.993 292.083 181.973 292.083 185.813C292.083 189.653 295.123 192.633 299.023 192.633ZM311.279 192.633C313.779 192.633 315.539 190.853 315.539 188.293V183.453C315.539 182.833 315.099 182.373 314.499 182.373C313.879 182.373 313.439 182.833 313.439 183.453V188.453C313.439 189.753 312.539 190.693 311.279 190.693C309.979 190.693 309.059 189.753 309.059 188.453V183.453C309.059 182.833 308.619 182.373 308.019 182.373C307.419 182.373 306.979 182.833 306.979 183.453V188.293C306.979 190.853 308.739 192.633 311.279 192.633ZM321.525 192.633C323.485 192.633 325.165 191.613 325.165 189.633C325.165 188.193 324.265 187.413 322.485 186.673L321.545 186.293C320.645 185.933 320.245 185.673 320.245 185.133C320.245 184.493 320.805 184.193 321.585 184.193C322.325 184.193 323.005 184.473 323.525 184.873C323.785 185.073 323.965 185.173 324.185 185.173C324.665 185.173 325.065 184.773 325.065 184.273C325.065 184.013 324.965 183.773 324.745 183.573C323.985 182.833 322.885 182.373 321.625 182.373C319.685 182.373 318.165 183.393 318.165 185.213C318.165 186.693 319.145 187.413 320.725 188.073L321.725 188.493C322.525 188.813 323.105 189.073 323.105 189.713C323.105 190.453 322.385 190.813 321.525 190.813C320.585 190.813 319.845 190.373 319.225 189.793C319.005 189.593 318.785 189.513 318.565 189.513C318.045 189.513 317.625 189.933 317.625 190.433C317.625 190.713 317.725 190.933 317.925 191.113C318.765 192.013 320.005 192.633 321.525 192.633ZM332.706 190.713C332.526 190.713 332.346 190.733 332.106 190.733C330.766 190.733 330.186 190.233 330.186 189.033V184.413H332.286C332.826 184.413 333.226 184.033 333.226 183.513C333.226 182.993 332.826 182.593 332.286 182.593H330.186V180.873C330.186 180.253 329.726 179.793 329.126 179.793C328.526 179.793 328.066 180.273 328.066 180.873V182.593H327.286C326.766 182.593 326.346 182.993 326.346 183.513C326.346 184.033 326.766 184.413 327.286 184.413H328.066V189.213C328.066 191.433 329.346 192.633 331.686 192.633C332.246 192.633 332.666 192.573 333.006 192.433C333.406 192.293 333.626 191.993 333.626 191.553C333.626 191.053 333.266 190.713 332.706 190.713ZM339.92 182.373C337.02 182.373 334.74 184.613 334.74 187.493C334.74 190.353 337.02 192.613 339.92 192.633C342.84 192.633 345.14 190.353 345.14 187.493C345.14 184.633 342.84 182.373 339.92 182.373ZM339.94 184.293C341.66 184.313 342.98 185.673 342.98 187.513C342.98 189.313 341.66 190.693 339.92 190.693C338.18 190.693 336.88 189.333 336.88 187.513C336.88 185.673 338.18 184.313 339.94 184.293ZM358.647 182.373C357.267 182.373 356.067 182.953 355.327 183.913C354.727 182.913 353.687 182.373 352.347 182.373C351.247 182.373 350.307 182.753 349.627 183.393C349.607 182.813 349.167 182.373 348.607 182.373C347.987 182.373 347.547 182.833 347.547 183.453V191.553C347.547 192.173 348.007 192.633 348.607 192.633C349.207 192.633 349.647 192.193 349.647 191.553V186.573C349.647 185.213 350.527 184.293 351.807 184.293C353.047 184.293 353.867 185.193 353.867 186.573V191.553C353.867 192.173 354.307 192.633 354.927 192.633C355.507 192.633 355.967 192.193 355.967 191.553V186.473C355.967 185.213 356.887 184.293 358.127 184.293C359.387 184.293 360.167 185.173 360.167 186.573V191.553C360.167 192.173 360.627 192.633 361.227 192.633C361.827 192.633 362.287 192.193 362.287 191.553V186.273C362.287 183.873 360.887 182.373 358.647 182.373Z" fill="#666666"/>
<line x1="130" y1="325.913" x2="480" y2="325.913" stroke="#1469B8"/>
<path opacity="0.5" d="M138.749 305.743C139.649 305.743 140.339 305.053 140.339 304.123V288.463H145.709C146.549 288.463 147.179 287.863 147.179 287.053C147.179 286.243 146.549 285.613 145.709 285.613H131.819C130.979 285.613 130.349 286.243 130.349 287.053C130.349 287.863 130.979 288.463 131.819 288.463H137.159V304.123C137.159 305.053 137.849 305.743 138.749 305.743ZM151.379 283.153C150.209 283.153 149.279 284.053 149.279 285.193C149.279 286.333 150.209 287.233 151.379 287.233C152.519 287.233 153.479 286.333 153.479 285.193C153.479 284.053 152.519 283.153 151.379 283.153ZM151.349 305.743C152.249 305.743 152.939 305.053 152.939 304.123V291.973C152.939 291.043 152.279 290.353 151.379 290.353C150.449 290.353 149.789 291.043 149.789 291.973V304.123C149.789 305.053 150.449 305.743 151.349 305.743ZM165.174 302.863C164.904 302.863 164.634 302.893 164.274 302.893C162.264 302.893 161.394 302.143 161.394 300.343V293.413H164.544C165.354 293.413 165.954 292.843 165.954 292.063C165.954 291.283 165.354 290.683 164.544 290.683H161.394V288.103C161.394 287.173 160.704 286.483 159.804 286.483C158.904 286.483 158.214 287.203 158.214 288.103V290.683H157.044C156.264 290.683 155.634 291.283 155.634 292.063C155.634 292.843 156.264 293.413 157.044 293.413H158.214V300.613C158.214 303.943 160.134 305.743 163.644 305.743C164.484 305.743 165.114 305.653 165.624 305.443C166.224 305.233 166.554 304.783 166.554 304.123C166.554 303.373 166.014 302.863 165.174 302.863ZM171.037 305.743C171.937 305.743 172.597 305.053 172.597 304.123V284.203C172.597 283.273 171.937 282.583 171.037 282.583C170.107 282.583 169.447 283.273 169.447 284.203V304.123C169.447 305.053 170.137 305.743 171.037 305.743ZM183.812 290.353C179.522 290.353 176.222 293.713 176.222 298.063C176.222 302.473 179.582 305.743 184.142 305.743C185.972 305.743 187.622 305.203 189.032 304.153C189.602 303.733 189.812 303.373 189.812 302.833C189.812 302.083 189.242 301.513 188.492 301.513C188.222 301.513 187.952 301.633 187.682 301.813C186.692 302.563 185.492 302.953 184.232 302.953C181.622 302.953 179.852 301.453 179.432 299.083H188.852C189.962 299.083 190.652 298.423 190.652 297.343V297.193C190.652 293.233 187.742 290.353 183.812 290.353ZM183.722 293.023C185.942 293.023 187.442 294.493 187.502 296.623H179.492C179.972 294.463 181.592 293.023 183.722 293.023Z" fill="#666666"/>
<line opacity="0.5" x1="130" y1="445.663" x2="480" y2="445.663" stroke="#666666" stroke-width="1.5"/>
<path opacity="0.7" d="M133.082 422.633C133.522 422.633 133.862 422.273 133.862 421.813V409.813C133.862 409.353 133.522 408.993 133.082 408.993C132.622 408.993 132.302 409.353 132.302 409.813V421.813C132.302 422.273 132.622 422.633 133.082 422.633ZM141.701 412.453C140.521 412.453 139.501 412.893 138.801 413.613V413.253C138.801 412.813 138.461 412.453 138.041 412.453C137.581 412.453 137.261 412.813 137.261 413.253V421.833C137.261 422.273 137.581 422.633 138.041 422.633C138.461 422.633 138.801 422.293 138.801 421.833V416.473C138.801 414.953 139.861 413.873 141.361 413.873C142.801 413.873 143.781 414.893 143.781 416.473V421.833C143.781 422.273 144.101 422.633 144.561 422.633C144.981 422.633 145.321 422.293 145.321 421.833V416.293C145.321 413.953 143.921 412.453 141.701 412.453ZM152.149 408.593C152.429 408.593 152.609 408.633 152.789 408.633C153.209 408.633 153.469 408.393 153.469 408.033C153.469 407.653 153.289 407.433 152.929 407.333C152.649 407.233 152.329 407.193 151.949 407.193C149.989 407.193 148.829 408.373 148.829 410.353V412.673H147.949C147.549 412.673 147.249 412.973 147.249 413.353C147.249 413.753 147.549 414.053 147.949 414.053H148.829V421.833C148.829 422.273 149.169 422.633 149.609 422.633C150.049 422.633 150.369 422.293 150.369 421.833V414.053H152.289C152.689 414.053 152.989 413.753 152.989 413.353C152.989 412.973 152.689 412.673 152.289 412.673H150.369V410.453C150.369 409.233 150.989 408.593 152.149 408.593ZM159.043 412.453C156.183 412.453 153.943 414.673 153.943 417.533C153.943 420.353 156.183 422.593 159.023 422.613C161.883 422.613 164.143 420.353 164.143 417.533C164.143 414.693 161.883 412.453 159.043 412.453ZM159.043 413.873C161.043 413.873 162.563 415.453 162.563 417.553C162.563 419.613 161.023 421.193 159.023 421.193C157.023 421.193 155.523 419.633 155.523 417.553C155.503 415.453 157.023 413.873 159.043 413.873ZM171.43 412.593C170.19 412.593 169.11 413.113 168.39 413.973V413.253C168.39 412.813 168.05 412.453 167.63 412.453C167.17 412.453 166.85 412.813 166.85 413.253V421.833C166.85 422.273 167.17 422.633 167.63 422.633C168.05 422.633 168.39 422.293 168.39 421.833V416.913C168.39 415.253 169.67 414.033 171.43 414.033C171.87 414.033 172.21 413.753 172.21 413.313C172.21 412.893 171.87 412.593 171.43 412.593ZM184.776 412.453C183.376 412.453 182.156 413.093 181.436 414.133C180.876 413.053 179.816 412.453 178.436 412.453C177.276 412.453 176.316 412.873 175.636 413.573V413.253C175.636 412.813 175.296 412.453 174.876 412.453C174.416 412.453 174.096 412.813 174.096 413.253V421.833C174.096 422.273 174.416 422.633 174.876 422.633C175.296 422.633 175.636 422.293 175.636 421.833V416.493C175.636 414.953 176.636 413.873 178.116 413.873C179.516 413.873 180.436 414.913 180.436 416.493V421.833C180.436 422.273 180.756 422.633 181.216 422.633C181.636 422.633 181.976 422.293 181.976 421.833V416.353C181.976 414.953 183.036 413.873 184.476 413.873C185.876 413.873 186.776 414.893 186.776 416.493V421.833C186.776 422.273 187.096 422.633 187.556 422.633C187.976 422.633 188.316 422.293 188.316 421.833V416.293C188.316 413.933 186.956 412.453 184.776 412.453ZM195.077 412.453C193.657 412.453 192.357 412.993 191.517 413.973C191.317 414.193 191.237 414.413 191.237 414.633C191.237 414.953 191.557 415.273 191.937 415.273C192.137 415.273 192.337 415.173 192.537 414.973C193.217 414.253 194.037 413.873 194.977 413.873C196.477 413.873 197.337 414.753 197.337 416.333V417.173H194.257C192.137 417.173 190.757 418.253 190.757 419.893C190.757 421.533 192.117 422.633 194.157 422.633C195.517 422.633 196.617 422.133 197.337 421.273V421.833C197.337 422.273 197.677 422.633 198.117 422.633C198.537 422.633 198.877 422.293 198.877 421.833V416.413C198.877 413.933 197.437 412.453 195.077 412.453ZM194.357 421.353C193.137 421.353 192.337 420.753 192.337 419.833C192.337 418.913 193.057 418.433 194.437 418.433H197.337V418.673C197.337 420.153 195.997 421.353 194.357 421.353ZM206.963 421.193C206.743 421.193 206.503 421.233 206.163 421.233C204.763 421.233 204.103 420.653 204.103 419.373V414.053H206.523C206.903 414.053 207.223 413.753 207.223 413.353C207.223 412.973 206.903 412.673 206.523 412.673H204.103V410.613C204.103 410.153 203.783 409.813 203.343 409.813C202.903 409.813 202.563 410.173 202.563 410.613V412.673H201.563C201.163 412.673 200.843 412.973 200.843 413.353C200.843 413.753 201.163 414.053 201.563 414.053H202.563V419.473C202.563 421.513 203.723 422.633 205.843 422.633C206.383 422.633 206.783 422.593 207.103 422.493C207.463 422.393 207.663 422.153 207.663 421.793C207.663 421.433 207.383 421.193 206.963 421.193ZM210.541 407.853C209.921 407.853 209.401 408.353 209.401 408.953C209.401 409.573 209.921 410.053 210.541 410.053C211.141 410.053 211.661 409.573 211.661 408.953C211.661 408.353 211.141 407.853 210.541 407.853ZM210.501 422.633C210.941 422.633 211.301 422.273 211.301 421.833V413.253C211.301 412.813 210.981 412.453 210.541 412.453C210.081 412.453 209.761 412.813 209.761 413.253V421.833C209.761 422.273 210.061 422.633 210.501 422.633ZM219.082 412.453C216.222 412.453 213.982 414.673 213.982 417.533C213.982 420.353 216.222 422.593 219.062 422.613C221.922 422.613 224.182 420.353 224.182 417.533C224.182 414.693 221.922 412.453 219.082 412.453ZM219.082 413.873C221.082 413.873 222.602 415.453 222.602 417.553C222.602 419.613 221.062 421.193 219.062 421.193C217.062 421.193 215.562 419.633 215.562 417.553C215.542 415.453 217.062 413.873 219.082 413.873ZM231.329 412.453C230.149 412.453 229.129 412.893 228.429 413.613V413.253C228.429 412.813 228.089 412.453 227.669 412.453C227.209 412.453 226.889 412.813 226.889 413.253V421.833C226.889 422.273 227.209 422.633 227.669 422.633C228.089 422.633 228.429 422.293 228.429 421.833V416.473C228.429 414.953 229.489 413.873 230.989 413.873C232.429 413.873 233.409 414.893 233.409 416.473V421.833C233.409 422.273 233.729 422.633 234.189 422.633C234.609 422.633 234.949 422.293 234.949 421.833V416.293C234.949 413.953 233.549 412.453 231.329 412.453Z" fill="#666666"/>
<path opacity="0.5" d="M144.136 528.993C143.776 528.993 143.536 529.193 143.376 529.513L138.956 540.313L134.536 529.513C134.396 529.193 134.136 528.993 133.796 528.993C133.376 528.993 133.036 529.333 133.036 529.753C133.036 529.893 133.076 530.053 133.156 530.253L138.216 542.093C138.376 542.453 138.616 542.633 138.956 542.633C139.296 542.633 139.536 542.453 139.696 542.093L144.756 530.253C144.856 530.053 144.896 529.893 144.896 529.753C144.896 529.353 144.536 528.993 144.136 528.993ZM150.409 532.453C147.549 532.453 145.309 534.673 145.309 537.533C145.309 540.353 147.549 542.593 150.389 542.613C153.249 542.613 155.509 540.353 155.509 537.533C155.509 534.693 153.249 532.453 150.409 532.453ZM150.409 533.873C152.409 533.873 153.929 535.453 153.929 537.553C153.929 539.613 152.389 541.193 150.389 541.193C148.389 541.193 146.889 539.633 146.889 537.553C146.869 535.453 148.389 533.873 150.409 533.873ZM158.996 527.853C158.376 527.853 157.856 528.353 157.856 528.953C157.856 529.573 158.376 530.053 158.996 530.053C159.596 530.053 160.116 529.573 160.116 528.953C160.116 528.353 159.596 527.853 158.996 527.853ZM158.956 542.633C159.396 542.633 159.756 542.273 159.756 541.833V533.253C159.756 532.813 159.436 532.453 158.996 532.453C158.536 532.453 158.216 532.813 158.216 533.253V541.833C158.216 542.273 158.516 542.633 158.956 542.633ZM167.538 542.633C169.298 542.633 170.678 541.793 171.498 540.613C171.618 540.433 171.638 540.313 171.638 540.193C171.638 539.793 171.318 539.493 170.918 539.493C170.758 539.493 170.578 539.533 170.378 539.753C169.718 540.573 168.818 541.213 167.558 541.213C165.538 541.213 164.018 539.633 164.018 537.533C164.018 535.453 165.558 533.873 167.558 533.873C168.818 533.873 169.718 534.513 170.378 535.333C170.578 535.573 170.758 535.613 170.938 535.613C171.318 535.613 171.638 535.293 171.638 534.913C171.638 534.793 171.618 534.673 171.498 534.493C170.698 533.293 169.298 532.453 167.538 532.453C164.698 532.453 162.438 534.693 162.438 537.533C162.438 540.373 164.698 542.633 167.538 542.633ZM178.238 532.453C175.458 532.453 173.258 534.693 173.258 537.553C173.258 540.453 175.458 542.633 178.418 542.633C179.678 542.633 180.838 542.233 181.798 541.433C182.078 541.173 182.178 540.993 182.178 540.733C182.178 540.333 181.878 540.053 181.498 540.053C181.318 540.053 181.138 540.133 180.978 540.273C180.278 540.873 179.398 541.213 178.438 541.213C176.478 541.213 175.058 539.933 174.858 538.013H181.738C182.338 538.013 182.678 537.693 182.678 537.053V536.953C182.678 534.333 180.818 532.453 178.238 532.453ZM178.198 533.853C179.898 533.853 181.058 535.013 181.098 536.653H174.918C175.258 534.993 176.538 533.853 178.198 533.853Z" fill="#666666"/>
<path d="M180.624 588.651C180.228 588.651 179.986 588.827 179.612 589.399L174.75 596.989L169.866 589.399C169.514 588.827 169.272 588.651 168.876 588.651C168.414 588.651 168.084 589.025 168.084 589.531V602.775C168.084 603.259 168.436 603.655 168.942 603.655C169.426 603.655 169.8 603.259 169.8 602.775V592.347L173.826 598.639C174.09 599.057 174.354 599.255 174.75 599.255C175.124 599.255 175.41 599.057 175.674 598.639L179.7 592.347V602.775C179.7 603.259 180.074 603.655 180.558 603.655C181.064 603.655 181.416 603.259 181.416 602.775V589.531C181.416 589.025 181.086 588.651 180.624 588.651ZM189.033 592.457C187.471 592.457 186.041 593.051 185.117 594.129C184.897 594.371 184.809 594.613 184.809 594.855C184.809 595.207 185.161 595.559 185.579 595.559C185.799 595.559 186.019 595.449 186.239 595.229C186.987 594.437 187.889 594.019 188.923 594.019C190.573 594.019 191.519 594.987 191.519 596.725V597.649H188.131C185.799 597.649 184.281 598.837 184.281 600.641C184.281 602.445 185.777 603.655 188.021 603.655C189.517 603.655 190.727 603.105 191.519 602.159V602.775C191.519 603.259 191.893 603.655 192.377 603.655C192.839 603.655 193.213 603.281 193.213 602.775V596.813C193.213 594.085 191.629 592.457 189.033 592.457ZM188.241 602.247C186.899 602.247 186.019 601.587 186.019 600.575C186.019 599.563 186.811 599.035 188.329 599.035H191.519V599.299C191.519 600.927 190.045 602.247 188.241 602.247ZM197.664 603.655C198.148 603.655 198.5 603.259 198.5 602.775V587.551C198.5 587.067 198.148 586.671 197.664 586.671C197.158 586.671 196.806 587.067 196.806 587.551V602.775C196.806 603.259 197.158 603.655 197.664 603.655ZM206.928 592.457C203.87 592.457 201.45 594.921 201.45 598.067C201.45 601.257 203.87 603.655 207.126 603.655C208.512 603.655 209.788 603.215 210.844 602.335C211.152 602.049 211.262 601.851 211.262 601.565C211.262 601.125 210.932 600.817 210.514 600.817C210.316 600.817 210.118 600.905 209.942 601.059C209.172 601.719 208.204 602.093 207.148 602.093C204.992 602.093 203.43 600.685 203.21 598.573H210.778C211.438 598.573 211.812 598.221 211.812 597.517V597.407C211.812 594.525 209.766 592.457 206.928 592.457ZM206.884 593.997C208.754 593.997 210.03 595.273 210.074 597.077H203.276C203.65 595.251 205.058 593.997 206.884 593.997Z" fill="#0A345A"/>
<path d="M146 591.413C145.011 591.413 144.044 591.707 143.222 592.256C142.4 592.805 141.759 593.586 141.381 594.5C141.002 595.414 140.903 596.419 141.096 597.389C141.289 598.359 141.765 599.25 142.464 599.949C143.164 600.648 144.055 601.124 145.025 601.317C145.994 601.51 147 601.411 147.913 601.033C148.827 600.654 149.608 600.013 150.157 599.191C150.707 598.369 151 597.402 151 596.413C151 595.087 150.473 593.815 149.536 592.878C148.598 591.94 147.326 591.413 146 591.413ZM146 586.413C144.022 586.413 142.089 587 140.444 588.099C138.8 589.197 137.518 590.759 136.761 592.586C136.004 594.414 135.806 596.424 136.192 598.364C136.578 600.304 137.53 602.086 138.929 603.484C140.327 604.883 142.109 605.835 144.049 606.221C145.989 606.607 148 606.409 149.827 605.652C151.654 604.895 153.216 603.614 154.315 601.969C155.414 600.325 156 598.391 156 596.413C155.999 593.761 154.945 591.218 153.07 589.343C151.195 587.468 148.652 586.414 146 586.413ZM146 604.413C144.418 604.413 142.871 603.944 141.555 603.065C140.24 602.186 139.214 600.937 138.609 599.475C138.003 598.013 137.845 596.404 138.154 594.853C138.462 593.301 139.224 591.875 140.343 590.756C141.462 589.638 142.887 588.876 144.439 588.567C145.991 588.258 147.6 588.417 149.061 589.022C150.523 589.628 151.773 590.653 152.652 591.969C153.531 593.284 154 594.831 154 596.413C154 598.535 153.157 600.57 151.657 602.07C150.157 603.57 148.122 604.413 146 604.413Z" fill="#0A345A"/>
<path d="M287.86 603.655C288.344 603.655 288.718 603.259 288.718 602.753V596.989H294.13C294.57 596.989 294.922 596.637 294.922 596.197C294.922 595.779 294.57 595.427 294.13 595.427H288.718V590.433H295.384C295.824 590.433 296.176 590.103 296.176 589.663C296.176 589.245 295.824 588.893 295.384 588.893H287.904C287.376 588.893 287.002 589.289 287.002 589.795V602.753C287.002 603.259 287.354 603.655 287.86 603.655ZM302.299 592.457C299.241 592.457 296.821 594.921 296.821 598.067C296.821 601.257 299.241 603.655 302.497 603.655C303.883 603.655 305.159 603.215 306.215 602.335C306.523 602.049 306.633 601.851 306.633 601.565C306.633 601.125 306.303 600.817 305.885 600.817C305.687 600.817 305.489 600.905 305.313 601.059C304.543 601.719 303.575 602.093 302.519 602.093C300.363 602.093 298.801 600.685 298.581 598.573H306.149C306.809 598.573 307.183 598.221 307.183 597.517V597.407C307.183 594.525 305.137 592.457 302.299 592.457ZM302.255 593.997C304.125 593.997 305.401 595.273 305.445 597.077H298.647C299.021 595.251 300.429 593.997 302.255 593.997ZM321.907 592.457C320.367 592.457 319.025 593.161 318.233 594.305C317.617 593.117 316.451 592.457 314.933 592.457C313.657 592.457 312.601 592.919 311.853 593.689V593.337C311.853 592.853 311.479 592.457 311.017 592.457C310.511 592.457 310.159 592.853 310.159 593.337V602.775C310.159 603.259 310.511 603.655 311.017 603.655C311.479 603.655 311.853 603.281 311.853 602.775V596.901C311.853 595.207 312.953 594.019 314.581 594.019C316.121 594.019 317.133 595.163 317.133 596.901V602.775C317.133 603.259 317.485 603.655 317.991 603.655C318.453 603.655 318.827 603.281 318.827 602.775V596.747C318.827 595.207 319.993 594.019 321.577 594.019C323.117 594.019 324.107 595.141 324.107 596.901V602.775C324.107 603.259 324.459 603.655 324.965 603.655C325.427 603.655 325.801 603.281 325.801 602.775V596.681C325.801 594.085 324.305 592.457 321.907 592.457ZM333.238 592.457C331.676 592.457 330.246 593.051 329.322 594.129C329.102 594.371 329.014 594.613 329.014 594.855C329.014 595.207 329.366 595.559 329.784 595.559C330.004 595.559 330.224 595.449 330.444 595.229C331.192 594.437 332.094 594.019 333.128 594.019C334.778 594.019 335.724 594.987 335.724 596.725V597.649H332.336C330.004 597.649 328.486 598.837 328.486 600.641C328.486 602.445 329.982 603.655 332.226 603.655C333.722 603.655 334.932 603.105 335.724 602.159V602.775C335.724 603.259 336.098 603.655 336.582 603.655C337.044 603.655 337.418 603.281 337.418 602.775V596.813C337.418 594.085 335.834 592.457 333.238 592.457ZM332.446 602.247C331.104 602.247 330.224 601.587 330.224 600.575C330.224 599.563 331.016 599.035 332.534 599.035H335.724V599.299C335.724 600.927 334.25 602.247 332.446 602.247ZM341.869 603.655C342.353 603.655 342.705 603.259 342.705 602.775V587.551C342.705 587.067 342.353 586.671 341.869 586.671C341.363 586.671 341.011 587.067 341.011 587.551V602.775C341.011 603.259 341.363 603.655 341.869 603.655ZM351.133 592.457C348.075 592.457 345.655 594.921 345.655 598.067C345.655 601.257 348.075 603.655 351.331 603.655C352.717 603.655 353.993 603.215 355.049 602.335C355.357 602.049 355.467 601.851 355.467 601.565C355.467 601.125 355.137 600.817 354.719 600.817C354.521 600.817 354.323 600.905 354.147 601.059C353.377 601.719 352.409 602.093 351.353 602.093C349.197 602.093 347.635 600.685 347.415 598.573H354.983C355.643 598.573 356.017 598.221 356.017 597.517V597.407C356.017 594.525 353.971 592.457 351.133 592.457ZM351.089 593.997C352.959 593.997 354.235 595.273 354.279 597.077H347.481C347.855 595.251 349.263 593.997 351.089 593.997Z" fill="#666666"/>
<circle cx="265" cy="596.413" r="9" stroke="#666666" stroke-width="2"/>
<path d="M443.684 602.269L438.118 589.245C437.942 588.849 437.678 588.651 437.304 588.651C436.93 588.651 436.666 588.849 436.49 589.245L430.924 602.269C430.836 602.489 430.792 602.665 430.792 602.819C430.792 603.259 431.166 603.655 431.628 603.655C432.002 603.655 432.288 603.435 432.442 603.083L433.542 600.465H441L442.166 603.083C442.342 603.435 442.606 603.655 443.002 603.655C443.442 603.655 443.838 603.259 443.838 602.819C443.838 602.665 443.794 602.489 443.684 602.269ZM437.304 591.225L440.34 598.925H434.18L437.304 591.225ZM450.469 603.655C453.043 603.655 454.891 601.785 454.891 599.145V593.337C454.891 592.831 454.517 592.457 454.055 592.457C453.549 592.457 453.197 592.853 453.197 593.337V599.255C453.197 600.905 452.053 602.093 450.469 602.093C448.819 602.093 447.697 600.905 447.697 599.255V593.337C447.697 592.853 447.323 592.457 446.861 592.457C446.377 592.457 446.025 592.853 446.025 593.337V599.145C446.025 601.785 447.851 603.655 450.469 603.655ZM463.77 602.071C463.528 602.071 463.264 602.115 462.89 602.115C461.35 602.115 460.624 601.477 460.624 600.069V594.217H463.286C463.704 594.217 464.056 593.887 464.056 593.447C464.056 593.029 463.704 592.699 463.286 592.699H460.624V590.433C460.624 589.927 460.272 589.553 459.788 589.553C459.304 589.553 458.93 589.949 458.93 590.433V592.699H457.83C457.39 592.699 457.038 593.029 457.038 593.447C457.038 593.887 457.39 594.217 457.83 594.217H458.93V600.179C458.93 602.423 460.206 603.655 462.538 603.655C463.132 603.655 463.572 603.611 463.924 603.501C464.32 603.391 464.54 603.127 464.54 602.731C464.54 602.335 464.232 602.071 463.77 602.071ZM471.472 592.457C468.326 592.457 465.862 594.899 465.862 598.045C465.862 601.147 468.326 603.611 471.45 603.633C474.596 603.633 477.082 601.147 477.082 598.045C477.082 594.921 474.596 592.457 471.472 592.457ZM471.472 594.019C473.672 594.019 475.344 595.757 475.344 598.067C475.344 600.333 473.65 602.071 471.45 602.071C469.25 602.071 467.6 600.355 467.6 598.067C467.578 595.757 469.25 594.019 471.472 594.019Z" fill="#666666"/>
<circle cx="410" cy="596.413" r="9" stroke="#666666" stroke-width="2"/>
<g filter="url(#filter0_d)">
<rect x="125" y="686.413" width="360" height="64" rx="5" fill="#0A345A"/>
</g>
<path d="M275.751 724.653C278.391 724.653 280.371 723.133 280.371 720.693C280.371 718.893 279.311 717.813 277.111 716.833L275.611 716.173C274.431 715.633 274.071 715.313 274.071 714.653C274.071 713.833 274.751 713.373 275.711 713.373C276.651 713.373 277.251 713.833 277.791 714.313C278.031 714.513 278.291 714.593 278.531 714.593C279.151 714.593 279.771 714.073 279.771 713.393C279.771 713.133 279.691 712.833 279.411 712.533C278.851 711.893 277.691 710.973 275.711 710.973C273.211 710.973 271.331 712.493 271.331 714.713C271.331 716.413 272.431 717.553 274.531 718.513L275.951 719.153C277.171 719.713 277.631 720.033 277.631 720.793C277.631 721.693 276.931 722.253 275.751 722.253C274.411 722.253 273.471 721.453 272.931 720.893C272.731 720.713 272.471 720.633 272.231 720.633C271.591 720.633 271.011 721.113 270.991 721.833C270.991 722.213 271.171 722.553 271.491 722.873C272.471 723.953 274.191 724.653 275.751 724.653ZM288.223 724.653C291.563 724.653 293.823 722.353 293.823 718.953V712.353C293.823 711.573 293.243 710.973 292.483 710.973C291.703 710.973 291.123 711.573 291.123 712.353V719.153C291.123 720.993 290.003 722.153 288.223 722.153C286.443 722.153 285.323 720.993 285.323 719.153V712.353C285.323 711.573 284.743 710.973 283.983 710.973C283.203 710.973 282.623 711.573 282.623 712.353V718.953C282.623 722.353 284.883 724.653 288.223 724.653ZM304.607 717.273C305.247 716.673 305.587 715.873 305.587 714.893C305.587 712.713 303.867 711.213 301.407 711.213H298.107C297.307 711.213 296.727 711.793 296.727 712.593V723.033C296.727 723.833 297.307 724.413 298.107 724.413H302.607C305.167 724.413 306.967 722.813 306.967 720.533C306.967 718.953 306.087 717.793 304.607 717.273ZM301.207 713.533C302.267 713.533 302.927 714.093 302.927 715.033C302.927 715.973 302.267 716.553 301.207 716.553H299.347V713.533H301.207ZM302.407 722.093H299.347V718.773H302.407C303.587 718.773 304.287 719.393 304.287 720.433C304.287 721.493 303.587 722.093 302.407 722.093ZM320.729 710.973C320.149 710.973 319.789 711.253 319.309 712.013L315.589 717.913L311.869 712.013C311.409 711.253 311.029 710.973 310.449 710.973C309.689 710.973 309.129 711.573 309.129 712.373V723.273C309.129 724.053 309.709 724.653 310.489 724.653C311.249 724.653 311.829 724.053 311.829 723.273V716.713L314.309 720.653C314.689 721.253 315.069 721.513 315.589 721.513C316.129 721.513 316.489 721.253 316.869 720.653L319.349 716.753V723.273C319.349 724.053 319.929 724.653 320.709 724.653C321.469 724.653 322.049 724.053 322.049 723.273V712.373C322.049 711.573 321.489 710.973 320.729 710.973ZM326.407 724.653C327.187 724.653 327.747 724.053 327.747 723.273V712.353C327.747 711.573 327.187 710.973 326.407 710.973C325.607 710.973 325.047 711.573 325.047 712.353V723.273C325.047 724.053 325.607 724.653 326.407 724.653ZM335.09 724.653C335.87 724.653 336.45 724.053 336.45 723.273V713.653H339.59C340.29 713.653 340.83 713.113 340.83 712.433C340.83 711.733 340.31 711.213 339.59 711.213H330.61C329.91 711.213 329.37 711.733 329.37 712.433C329.37 713.113 329.91 713.653 330.61 713.653H333.75V723.273C333.75 724.053 334.33 724.653 335.09 724.653Z" fill="white"/>
<g filter="url(#filter1_d)">
<path fill-rule="evenodd" clip-rule="evenodd" d="M345 900.895C345 922.986 327.091 940.895 305 940.895C282.909 940.895 265 922.986 265 900.895C265 898.855 265.153 896.852 265.447 894.895H98V944.895C98 961.463 111.431 974.895 128 974.895H482C498.569 974.895 512 961.463 512 944.895V894.895H344.553C344.847 896.852 345 898.855 345 900.895Z" fill="white"/>
</g>
<path d="M448 945.713C450.109 945.713 451.818 944.003 451.818 941.894C451.818 939.786 450.109 938.076 448 938.076C445.891 938.076 444.182 939.786 444.182 941.894C444.182 944.003 445.891 945.713 448 945.713Z" stroke="#666666" stroke-width="2" stroke-linecap="round" stroke-linejoin="round"/>
<path d="M457.418 945.713C457.249 946.097 457.198 946.522 457.273 946.935C457.348 947.348 457.545 947.729 457.838 948.029L457.915 948.105C458.151 948.342 458.339 948.623 458.467 948.932C458.595 949.241 458.661 949.572 458.661 949.906C458.661 950.241 458.595 950.572 458.467 950.881C458.339 951.19 458.151 951.471 457.915 951.707C457.678 951.944 457.397 952.132 457.088 952.26C456.779 952.388 456.448 952.454 456.114 952.454C455.779 952.454 455.448 952.388 455.139 952.26C454.83 952.132 454.549 951.944 454.313 951.707L454.236 951.631C453.936 951.337 453.555 951.141 453.143 951.066C452.73 950.991 452.304 951.041 451.92 951.211C451.544 951.372 451.223 951.64 450.996 951.982C450.77 952.323 450.649 952.723 450.647 953.133V953.349C450.647 954.024 450.379 954.672 449.902 955.149C449.424 955.626 448.777 955.895 448.102 955.895C447.427 955.895 446.779 955.626 446.302 955.149C445.825 954.672 445.556 954.024 445.556 953.349V953.235C445.547 952.813 445.41 952.405 445.165 952.062C444.92 951.719 444.577 951.458 444.182 951.313C443.798 951.143 443.372 951.093 442.959 951.168C442.546 951.242 442.165 951.439 441.865 951.733L441.789 951.809C441.553 952.046 441.272 952.233 440.963 952.362C440.654 952.49 440.323 952.556 439.988 952.556C439.654 952.556 439.322 952.49 439.013 952.362C438.704 952.233 438.424 952.046 438.187 951.809C437.951 951.573 437.763 951.292 437.635 950.983C437.507 950.674 437.441 950.343 437.441 950.008C437.441 949.674 437.507 949.342 437.635 949.033C437.763 948.724 437.951 948.444 438.187 948.207L438.264 948.131C438.557 947.831 438.754 947.45 438.829 947.037C438.904 946.624 438.853 946.198 438.684 945.815C438.522 945.438 438.254 945.117 437.913 944.891C437.571 944.665 437.171 944.543 436.762 944.542H436.545C435.87 944.542 435.223 944.274 434.746 943.796C434.268 943.319 434 942.671 434 941.996C434 941.321 434.268 940.674 434.746 940.196C435.223 939.719 435.87 939.451 436.545 939.451H436.66C437.081 939.441 437.49 939.305 437.833 939.06C438.175 938.814 438.436 938.472 438.582 938.076C438.751 937.692 438.802 937.267 438.727 936.854C438.652 936.441 438.455 936.06 438.162 935.76L438.085 935.684C437.849 935.447 437.661 935.166 437.533 934.857C437.405 934.548 437.339 934.217 437.339 933.883C437.339 933.548 437.405 933.217 437.533 932.908C437.661 932.599 437.849 932.318 438.085 932.082C438.322 931.845 438.603 931.657 438.912 931.529C439.221 931.401 439.552 931.335 439.886 931.335C440.221 931.335 440.552 931.401 440.861 931.529C441.17 931.657 441.451 931.845 441.687 932.082L441.764 932.158C442.064 932.452 442.445 932.648 442.857 932.723C443.27 932.798 443.696 932.748 444.08 932.578H444.182C444.558 932.417 444.879 932.149 445.105 931.807C445.332 931.466 445.453 931.066 445.455 930.656V930.44C445.455 929.765 445.723 929.117 446.2 928.64C446.677 928.163 447.325 927.895 448 927.895C448.675 927.895 449.323 928.163 449.8 928.64C450.277 929.117 450.545 929.765 450.545 930.44V930.555C450.547 930.964 450.668 931.364 450.895 931.706C451.121 932.047 451.442 932.315 451.818 932.476C452.202 932.646 452.628 932.696 453.041 932.621C453.454 932.547 453.835 932.35 454.135 932.056L454.211 931.98C454.447 931.743 454.728 931.556 455.037 931.427C455.346 931.299 455.677 931.233 456.012 931.233C456.346 931.233 456.678 931.299 456.987 931.427C457.296 931.556 457.576 931.743 457.813 931.98C458.049 932.216 458.237 932.497 458.365 932.806C458.493 933.115 458.559 933.446 458.559 933.781C458.559 934.115 458.493 934.447 458.365 934.756C458.237 935.065 458.049 935.345 457.813 935.582L457.736 935.658C457.443 935.958 457.246 936.339 457.171 936.752C457.096 937.165 457.147 937.591 457.316 937.975V938.076C457.478 938.453 457.746 938.774 458.087 939C458.429 939.226 458.829 939.347 459.238 939.349H459.455C460.13 939.349 460.777 939.617 461.254 940.095C461.732 940.572 462 941.219 462 941.895C462 942.57 461.732 943.217 461.254 943.694C460.777 944.172 460.13 944.44 459.455 944.44H459.34C458.93 944.442 458.53 944.563 458.189 944.789C457.847 945.015 457.58 945.336 457.418 945.713V945.713Z" stroke="#666666" stroke-width="2" stroke-linecap="round" stroke-linejoin="round"/>
<path d="M148 937.695L160.6 927.895L173.2 937.695V953.095C173.2 953.837 172.905 954.549 172.38 955.074C171.855 955.6 171.143 955.895 170.4 955.895H150.8C150.057 955.895 149.345 955.6 148.82 955.074C148.295 954.549 148 953.837 148 953.095V937.695Z" stroke="#0A345A" stroke-width="2" stroke-linecap="round" stroke-linejoin="round"/>
<path d="M156.4 955.895V941.895H164.8V955.895" stroke="#0A345A" stroke-width="2" stroke-linecap="round" stroke-linejoin="round"/>
<path d="M217 75.8945H393V100.895C393 114.702 381.807 125.895 368 125.895H242C228.193 125.895 217 114.702 217 100.895V75.8945Z" fill="#479CEB"/>
<g filter="url(#filter2_d)">
<path d="M329.246 920.141C342.915 906.472 342.915 884.312 329.246 870.643C315.578 856.975 293.417 856.975 279.749 870.643C266.08 884.312 266.08 906.472 279.749 920.141C293.417 933.809 315.578 933.809 329.246 920.141Z" fill="#479CEB"/>
</g>
<path d="M294.598 885.493L314.397 905.292" stroke="white" stroke-width="2" stroke-linecap="round" stroke-linejoin="round"/>
<path d="M294.598 905.292L314.397 885.493" stroke="white" stroke-width="2" stroke-linecap="round" stroke-linejoin="round"/>
<defs>
<filter id="filter0_d" x="122" y="683.413" width="370" height="74" filterUnits="userSpaceOnUse" color-interpolation-filters="sRGB">
<feFlood flood-opacity="0" result="BackgroundImageFix"/>
<feColorMatrix in="SourceAlpha" type="matrix" values="0 0 0 0 0 0 0 0 0 0 0 0 0 0 0 0 0 0 127 0"/>
<feOffset dx="2" dy="2"/>
<feGaussianBlur stdDeviation="2.5"/>
<feColorMatrix type="matrix" values="0 0 0 0 0.0383507 0 0 0 0 0.202133 0 0 0 0 0.353316 0 0 0 0.2 0"/>
<feBlend mode="normal" in2="BackgroundImageFix" result="effect1_dropShadow"/>
<feBlend mode="normal" in="SourceGraphic" in2="effect1_dropShadow" result="shape"/>
</filter>
<filter id="filter1_d" x="88" y="880.895" width="434" height="100" filterUnits="userSpaceOnUse" color-interpolation-filters="sRGB">
<feFlood flood-opacity="0" result="BackgroundImageFix"/>
<feColorMatrix in="SourceAlpha" type="matrix" values="0 0 0 0 0 0 0 0 0 0 0 0 0 0 0 0 0 0 127 0"/>
<feOffset dy="-4"/>
<feGaussianBlur stdDeviation="5"/>
<feColorMatrix type="matrix" values="0 0 0 0 0 0 0 0 0 0 0 0 0 0 0 0 0 0 0.2 0"/>
<feBlend mode="normal" in2="BackgroundImageFix" result="effect1_dropShadow"/>
<feBlend mode="normal" in="SourceGraphic" in2="effect1_dropShadow" result="shape"/>
</filter>
<filter id="filter2_d" x="249.497" y="840.392" width="110" height="110" filterUnits="userSpaceOnUse" color-interpolation-filters="sRGB">
<feFlood flood-opacity="0" result="BackgroundImageFix"/>
<feColorMatrix in="SourceAlpha" type="matrix" values="0 0 0 0 0 0 0 0 0 0 0 0 0 0 0 0 0 0 127 0"/>
<feOffset/>
<feGaussianBlur stdDeviation="10"/>
<feColorMatrix type="matrix" values="0 0 0 0 0.0383507 0 0 0 0 0.202133 0 0 0 0 0.353316 0 0 0 0.5 0"/>
<feBlend mode="normal" in2="BackgroundImageFix" result="effect1_dropShadow"/>
<feBlend mode="normal" in="SourceGraphic" in2="effect1_dropShadow" result="shape"/>
</filter>
</defs>
</svg>
